<svg width="598" height="120" fill="none" xmlns="http://www.w3.org/2000/svg"><g clip-path="url(#clip0)"><path d="M20.017 70.13V37.865h8.468c9.455 0 16.425 6.663 16.425 16.025 0 9.361-6.97 16.238-16.424 16.238h-8.469zM0 20.137v67.72h28.485c21.702 0 36.843-13.345 36.843-33.967S50.187 20.138 28.485 20.138H0zm103.296 41.729h-14.09l6.97-19.226 7.12 19.226zm5.928 16.304l3.583 9.66h21.31l-28.085-68.12H86.415L58.33 87.857h21.403l3.5-9.687h25.991zm70.902-40.611V20.138h-62.704v17.42h21.292v50.3h20.12v-50.3h21.292zm29.388 24.307h-14.043l6.97-19.226 7.073 19.226zm5.974 16.304l3.583 9.66h21.311l-28.076-68.12h-19.627l-28.076 68.12h21.404l3.49-9.66h25.991z" fill="#E32327"/><path fill-rule="evenodd" clip-rule="evenodd" d="M299.335 20.138h-20.12v26.085h-23.897V20.138h-20.017v18.984l20.017 48.55V63.754h23.897v24.102h20.12V20.138z" fill="#6D6E71"/><path d="M340.011 70.53c-9.464 0-16.165-7.668-16.165-16.556 0-8.887 6.673-16.527 16.137-16.527s16.155 7.687 16.155 16.527c0 8.841-6.672 16.537-16.127 16.537v.019zm0-51.909c-21.404 0-36.554 15.336-36.554 35.363 0 20.026 15.141 35.362 36.554 35.362 21.413 0 36.544-15.336 36.544-35.362 0-20.027-15.14-35.372-36.544-35.372v.01z" fill="#6D6E71"/><path d="M445.996 20.138h-20.315v35.698c0 9.305-4.653 14.833-12.349 14.833-7.696 0-12.349-5.583-12.349-14.833V20.138h-20.314v34.953c0 22.204 12.153 34.255 32.663 34.255 20.511 0 32.664-12.097 32.664-34.255V20.138zm34.879-1.526c-16.434 0-27.918 8.375-27.918 22.706 0 10.86 6.514 16.63 19.822 20.017l11.353 2.792c4.383.996 5.276 2.485 5.276 4.178 0 2.494-2.187 4.281-7.268 4.281-6.514 0-10.757-2.587-11.753-7.565h-20.185c2.066 18.946 18.026 24.316 31.669 24.316 18.118 0 29.676-8.562 29.676-22.604 0-12.154-8.375-17.132-19.821-19.915l-11.056-2.69c-3.722-.8-5.472-1.86-5.472-4.587 0-2.987 2.885-4.579 6.868-4.579 5.276 0 7.77 2.69 8.664 6.673h20.212c-1.786-19.208-19.412-23.023-30.067-23.023zm54.84 18.351h32.561V20.138h-52.578v67.72h52.578V71.022h-32.561v-8.86h27.88V46.028h-27.88v-9.064z" fill="#939598"/><path d="M568.276 96.056h-2.727l-8.207 12.823-8.218-12.805h-2.726l9.734 15.076v8.375h2.447v-8.375l9.697-15.094zm-44.873 0h-1.861l-9.455 15.876-9.455-15.876h-1.861v23.46h2.457l-.075-18.184 8.143 13.568h1.656l8.078-13.53v18.146h2.447l-.074-23.46zm-60.954 2.243h13.838v-2.243h-16.285v23.46h16.285v-2.261h-13.838v-8.273h12.461v-2.28h-12.461v-8.403zm-44.901 18.956V98.299h5.695c5.761 0 9.827 3.899 9.827 9.305 0 5.659-4.066 9.66-9.827 9.66l-5.695-.009zM415.1 96.037v23.46h8.143c7.24 0 12.349-4.894 12.349-11.902 0-6.756-5.109-11.558-12.349-11.558H415.1zm-30.281 14.387h-10.237l5.1-11.567 5.137 11.567zm1.005 2.243l3.034 6.83h2.624l-10.627-23.646h-2.345l-10.628 23.628h2.615l3.043-6.831 12.284.019zm-49.815 4.969a9.872 9.872 0 01-6.785-16.742 9.874 9.874 0 016.785-2.996c4.421 0 7.631 2.522 8.627 6.384h2.522c-1.108-5.174-5.416-8.729-11.167-8.729a12.217 12.217 0 00-11.882 12.214 12.218 12.218 0 0011.882 12.214c5.732 0 10.041-3.554 11.167-8.729h-2.522c-.996 3.89-4.206 6.403-8.627 6.403v-.019zm-39.829-7.212h-10.237l5.137-11.586 5.1 11.586zm.996 2.243l3.043 6.83h2.615l-10.628-23.646h-2.345l-10.627 23.628h2.624l3.034-6.831 12.284.019z" fill="#BCBEC0"/><path d="M584.859 59.725a5.63 5.63 0 115.491-5.63 5.507 5.507 0 01-1.561 3.97 5.511 5.511 0 01-3.93 1.66zm0-17.68c-7.286 0-12.451 5.22-12.451 12.041 0 6.821 5.165 12.042 12.451 12.042 7.287 0 12.452-5.23 12.452-12.042 0-6.812-5.156-12.032-12.452-12.032v-.01z" fill="#E32327"/><path fill-rule="evenodd" clip-rule="evenodd" d="M254.21 107.986h3.937L213.655 0h-3.946l44.501 107.986z" fill="#6D6E71"/></g><defs><clipPath id="clip0"><path fill="#fff" d="M0 0h597.311v120H0z"/></clipPath></defs></svg>