<svg data-name="Layer 1" xmlns="http://www.w3.org/2000/svg" viewBox="0 0 175 30.71"><defs><clipPath id="a" transform="translate(-210 -405.65)"><path fill="none" d="M210 405.65h175v30.71H210z"/></clipPath></defs><g clip-path="url(#a)"><path d="M164.57 29.25c5.41 0 9.66-2.7 10.43-8.49l-.38-.39h-1.55l-.39.39c-.77 4.24-3.47 6.56-8.11 6.56-5.79 0-10-4.25-10-12s4.25-12 10-12c4.64 0 7.34 2.31 8.11 6.17l.39.39h1.55l.38-.39c-.77-5.4-5-8.11-10.43-8.11-6.56 0-12.36 4.64-12.36 13.91s5.8 13.9 12.36 13.9m-17-.77V2.22l-.38-.39h-2.7l-.39.39-10 23.56h-.39l-10-23.56-.39-.39h-2.7l-.39.39v26.26l.39.39h1.54l.39-.39V6.08h.39l9.65 22.4.39.39h1.93l.39-.39 9.65-22.4h.39v22.4l.39.39h1.54zm-32.44 0v-1.07l-.39-.38h-14.29l-.38-.39v-10l.38-.39H114l.39-.38v-1.16l-.39-.39h-13.55l-.38-.39V4.15l.38-.39h14.29l.39-.38V2.22l-.39-.39h-16.6l-.39.39v26.26l.39.39h16.6z" fill="#898584"/><path d="M91.61 23.5v5.37H74.17v-27h6.14v21.67zM74.17 1.83h6.14m-69.35 27a13.53 13.53 0 0013.09-10.12l15.3 12 15.28-11.94v10.11h17.44v-5.37h-11.3V1.83h-6.14v10.11L40 23.4l-3.28-2.57 7-5.48 7.64-6L47 5.97 32.33 17.43l-3.27-2.57L43.72 3.41 39.36 0l-15.3 12A13.53 13.53 0 0011 1.83H0v27zm-4.82-5.37V7.21H11c4.08 0 7.38 3.64 7.38 8.14S15.08 23.5 11 23.5z" fill="#0382c3"/></g></svg>