<!-- Generated by IcoMoon.io -->
<svg version="1.1" xmlns="http://www.w3.org/2000/svg" width="16" height="16" viewBox="0 0 16 16">
<title>arrow-right</title>
<path d="M7.529 3.805l3.529 3.529h-7.724c-0.368 0-0.667 0.299-0.667 0.667s0.299 0.667 0.667 0.667h7.724l-3.529 3.529c-0.261 0.261-0.261 0.683 0 0.943s0.683 0.261 0.943 0l4.667-4.667c0.061-0.061 0.111-0.135 0.145-0.216 0.067-0.163 0.067-0.347 0-0.511-0.033-0.079-0.081-0.152-0.145-0.216l-4.667-4.667c-0.261-0.261-0.683-0.261-0.943 0s-0.261 0.683 0 0.943z"></path>
</svg>
