<!-- Generated by IcoMoon.io -->
<svg version="1.1" xmlns="http://www.w3.org/2000/svg" width="16" height="16" viewBox="0 0 16 16">
<title>sanallastirma</title>
<path fill="#616161" d="M12.699 3.051c-0.19 0-0.379 0.017-0.565 0.050-0.76-2.075-2.935-3.369-5.121-3.054-1.871 0.27-3.438 1.671-3.91 3.502l0.455 0.117c0.491-1.907 2.287-3.252 4.254-3.196 1.945 0.055 3.438 1.381 4.009 3.185 0.921-0.229 1.846-0.136 2.602 0.478 0.718 0.584 1.103 1.514 0.996 2.435-0.112 0.962-0.737 1.8-1.616 2.198-0.533 0.241-1.045 0.21-1.616 0.21v0.47c0.573 0 1.092 0.027 1.639-0.181 1.11-0.421 1.781-1.263 2.010-2.334 0.419-1.967-1.125-3.882-3.138-3.882z"></path>
<path fill="#616161" d="M2.249 8.95c-1.469-0.311-2.23-2.033-1.471-3.329 0.784-1.337 2.598-1.44 3.622-0.337l0.342-0.323c-0.401-0.432-0.898-0.75-1.481-0.868l-0 0.001c-1.993-0.368-3.768 1.522-3.127 3.493 0.294 0.903 1.083 1.645 2.025 1.824 0.506 0.097 1.050 0.053 1.563 0.053v-0.47c-0.487 0-0.989 0.032-1.472-0.044z"></path>
<path fill="#616161" d="M5.132 11.777h0.47v0.47h-0.47v-0.47z"></path>
<path fill="#616161" d="M6.073 11.777h0.47v0.47h-0.47v-0.47z"></path>
<path fill="#616161" d="M8.895 11.777h1.881v0.47h-1.881v-0.47z"></path>
<path fill="#616161" d="M7.735 13.648h0.47v0.47h-0.47v-0.47z"></path>
<path fill="#616161" d="M5.132 14.589h0.47v0.47h-0.47v-0.47z"></path>
<path fill="#616161" d="M6.073 14.589h0.47v0.47h-0.47v-0.47z"></path>
<path fill="#616161" d="M8.895 14.589h1.881v0.47h-1.881v-0.47z"></path>
<path fill="#616161" d="M7.735 9.906h0.47v0.47h-0.47v-0.47z"></path>
<path fill="#616161" d="M5.132 8.966h0.47v0.47h-0.47v-0.47z"></path>
<path fill="#616161" d="M6.073 8.966h0.47v0.47h-0.47v-0.47z"></path>
<path fill="#616161" d="M8.895 8.966h1.881v0.47h-1.881v-0.47z"></path>
<path fill="#616161" d="M9.601 6.145h0.731c0.101 0.269 0.361 0.462 0.665 0.462 0.391 0 0.709-0.318 0.709-0.709s-0.318-0.709-0.709-0.709c-0.313 0-0.579 0.204-0.673 0.486h-1.193v2.351h-0.47v-3.461l0.515-0.515c0.098 0.051 0.209 0.080 0.327 0.080 0.391 0 0.709-0.318 0.709-0.709s-0.318-0.709-0.709-0.709c-0.391 0-0.709 0.318-0.709 0.709 0 0.102 0.022 0.199 0.061 0.286l-0.663 0.663v3.655h-0.47v-5.014l-0.626-0.626c0.029-0.078 0.046-0.162 0.046-0.25 0-0.391-0.318-0.709-0.709-0.709s-0.709 0.318-0.709 0.709c0 0.391 0.318 0.709 0.709 0.709 0.131 0 0.254-0.036 0.359-0.098l0.46 0.46v4.819h-0.47v-1.901h-1.195c-0.101-0.269-0.361-0.461-0.664-0.461-0.391 0-0.709 0.318-0.709 0.709s0.318 0.709 0.709 0.709c0.313 0 0.58-0.204 0.673-0.487h0.716v1.431h-2.111v2.352h0.481v0.46h-0.481v2.352h0.481v0.46h-0.481v2.352h7.515v-2.352h-0.449v-0.46h0.449v-2.352h-0.449v-0.46h0.449v-2.352h-2.111v-1.88zM10.996 5.659c0.132 0 0.239 0.107 0.239 0.239s-0.107 0.239-0.239 0.239c-0.132 0-0.239-0.107-0.239-0.239s0.107-0.239 0.239-0.239zM9.502 3.181c0.132 0 0.239 0.107 0.239 0.239s-0.107 0.239-0.239 0.239c-0.132 0-0.239-0.107-0.239-0.239s0.107-0.239 0.239-0.239zM6.191 2.135c0-0.132 0.107-0.239 0.239-0.239s0.239 0.107 0.239 0.239c0 0.132-0.107 0.239-0.239 0.239s-0.239-0.107-0.239-0.239zM4.919 6.611c-0.132 0-0.239-0.107-0.239-0.239s0.107-0.239 0.239-0.239 0.239 0.107 0.239 0.239c0 0.132-0.107 0.239-0.239 0.239zM4.667 11.307h6.575v1.411h-6.575v-1.411zM10.792 13.648h-2.117v0.47h2.566v1.411h-6.575v-1.411h2.597v-0.47h-2.116v-0.46h5.644v0.46zM11.242 9.906h-2.566v0.47h2.117v0.46h-5.644v-0.46h2.116v-0.47h-2.597v-1.411h6.575v1.411z"></path>
</svg>
