<!-- Generated by IcoMoon.io -->
<svg version="1.1" xmlns="http://www.w3.org/2000/svg" width="16" height="16" viewBox="0 0 16 16">
<title>sistem</title>
<path fill="#616161" d="M7.147 5.793c0-0.219 0.090-0.43 0.251-0.585s0.379-0.242 0.606-0.242c0.227 0 0.445 0.087 0.606 0.242s0.251 0.366 0.251 0.585v0.276h0.571v-0.276c0-0.366-0.15-0.717-0.418-0.975s-0.631-0.404-1.010-0.404c-0.379 0-0.742 0.145-1.010 0.404s-0.418 0.61-0.418 0.975v0.276h0.571v-0.276z"></path>
<path fill="#616161" d="M4.291 11.586h-3.998c-0.076 0-0.148 0.029-0.202 0.081s-0.084 0.122-0.084 0.195v1.379h4.569v-1.379c0-0.073-0.030-0.143-0.084-0.195s-0.126-0.081-0.202-0.081z"></path>
<path fill="#616161" d="M10.003 6.621h-3.998c-0.076 0-0.148 0.029-0.202 0.081s-0.084 0.122-0.084 0.195v1.379h4.569v-1.379c0-0.073-0.030-0.143-0.084-0.195s-0.126-0.081-0.202-0.081zM6.861 7.724h-0.571v-0.552h0.571v0.552zM8.289 7.724h-0.571v-0.552h0.571v0.552zM9.717 7.724h-0.571v-0.552h0.571v0.552z"></path>
<path fill="#616161" d="M6.29 2.483c-0.001-0.219-0.091-0.429-0.252-0.584s-0.378-0.242-0.605-0.243c-0.076 0-0.148-0.029-0.202-0.081s-0.084-0.122-0.084-0.195c0.001-0.14-0.035-0.279-0.105-0.402s-0.171-0.227-0.294-0.301c-0.123-0.074-0.264-0.117-0.409-0.124s-0.29 0.022-0.42 0.085c-0.064 0.031-0.137 0.038-0.206 0.018s-0.127-0.063-0.163-0.123c-0.119-0.19-0.294-0.341-0.503-0.433s-0.442-0.121-0.669-0.083-0.436 0.142-0.6 0.297c-0.164 0.155-0.276 0.355-0.321 0.572-0.013 0.062-0.048 0.118-0.099 0.159s-0.115 0.062-0.181 0.062c-0.014 0-0.029-0.001-0.043-0.003-0.303 0.002-0.593 0.12-0.806 0.328s-0.331 0.49-0.33 0.782c0.002 0.293 0.124 0.573 0.34 0.778s0.507 0.32 0.81 0.318h4.284c0.227-0.001 0.445-0.088 0.605-0.243s0.251-0.365 0.252-0.584v0z"></path>
<path fill="#616161" d="M0.007 14.069c0 0.073 0.030 0.143 0.084 0.195s0.126 0.081 0.202 0.081h3.998c0.076 0 0.148-0.029 0.202-0.081s0.084-0.122 0.084-0.195v-0.276h-4.569v0.276z"></path>
<path fill="#616161" d="M2.577 14.897h-0.571v0.552h-1.142v0.552h2.856v-0.552h-1.142v-0.552z"></path>
<path fill="#616161" d="M5.719 10.207c0 0.073 0.030 0.143 0.084 0.195s0.126 0.081 0.202 0.081h3.998c0.076 0 0.148-0.029 0.202-0.081s0.084-0.122 0.084-0.195v-1.379h-4.569v1.379zM9.146 9.379h0.571v0.552h-0.571v-0.552zM7.718 9.379h0.571v0.552h-0.571v-0.552zM6.29 9.379h0.571v0.552h-0.571v-0.552z"></path>
<path fill="#616161" d="M15.714 1.103h-1.142c-0.158 0-0.286 0.124-0.286 0.276v2.207c0 0.152 0.128 0.276 0.286 0.276h1.142c0.158 0 0.286-0.124 0.286-0.276v-2.207c0-0.152-0.128-0.276-0.286-0.276z"></path>
<path fill="#616161" d="M12.287 3.862h1.479c-0.033-0.088-0.051-0.182-0.051-0.276v-2.207c0.001-0.219 0.091-0.429 0.252-0.584s0.378-0.242 0.605-0.243h0.286v-0.276c0-0.073-0.030-0.143-0.084-0.195s-0.126-0.081-0.202-0.081h-2.285c-0.076 0-0.148 0.029-0.202 0.081s-0.084 0.122-0.084 0.195v3.31c0 0.073 0.030 0.143 0.084 0.195s0.126 0.081 0.202 0.081z"></path>
<path fill="#616161" d="M11.716 12.414v1.931h3.998v-1.931c0-0.073-0.030-0.143-0.084-0.195s-0.126-0.081-0.202-0.081h-3.427c-0.076 0-0.148 0.029-0.202 0.081s-0.084 0.122-0.084 0.195z"></path>
<path fill="#616161" d="M11.431 15.172c0 0.073 0.030 0.143 0.084 0.195s0.126 0.081 0.202 0.081h3.998c0.076 0 0.148-0.029 0.202-0.081s0.084-0.122 0.084-0.195v-0.276h-4.569v0.276z"></path>
<path fill="#616161" d="M14.001 6.897v-1.931h-0.571v1.655h-1.999v0.552h2.285c0.076 0 0.148-0.029 0.202-0.081s0.084-0.122 0.084-0.195z"></path>
<path fill="#616161" d="M13.43 11.034h0.571v-2.483c0-0.073-0.030-0.143-0.084-0.195s-0.126-0.081-0.202-0.081h-2.285v0.552h1.999v2.207z"></path>
<path fill="#616161" d="M2.577 4.414h-0.571v2.483c0 0.073 0.030 0.143 0.084 0.195s0.126 0.081 0.202 0.081h2.285v-0.552h-1.999v-2.207z"></path>
<path fill="#616161" d="M2.006 8.552v1.931h0.571v-1.655h1.999v-0.552h-2.285c-0.076 0-0.148 0.029-0.202 0.081s-0.084 0.122-0.084 0.195z"></path>
</svg>
