<svg width="598" height="120" viewBox="0 0 598 120" fill="none" xmlns="http://www.w3.org/2000/svg">
<g clip-path="url(#clip0)">
<path d="M20.0171 70.1295V37.8658H28.4855C37.9403 37.8658 44.9104 44.5289 44.9104 53.8907C44.9104 63.2524 37.9403 70.1295 28.4855 70.1295H20.0171ZM0 20.138V87.8573H28.4855C50.1869 87.8573 65.3276 74.5126 65.3276 53.8907C65.3276 33.2687 50.1869 20.138 28.4855 20.138H0Z" fill="#E32327"/>
<path d="M103.296 61.8658H89.2067L96.1768 42.6398L103.296 61.8658ZM109.224 78.1698L112.807 87.8294H134.117L106.032 19.71H86.4149L58.3296 87.8573H79.7332L83.2323 78.1698H109.224Z" fill="#E32327"/>
<path d="M180.126 37.5587V20.138H117.422V37.5587H138.714V87.8573H158.834V37.5587H180.126Z" fill="#E32327"/>
<path d="M209.514 61.8658H195.471L202.441 42.6398L209.514 61.8658ZM215.488 78.1698L219.071 87.8294H240.382L212.306 19.71H192.679L164.603 87.8294H186.007L189.497 78.1698H215.488Z" fill="#E32327"/>
<path fill-rule="evenodd" clip-rule="evenodd" d="M299.335 20.138H279.215V46.2226H255.318V20.138H235.301V39.1221L255.318 87.6712V63.7549H279.215V87.8573H299.335V20.138Z" fill="#6D6E71"/>
<path d="M340.011 70.5297C330.547 70.5297 323.846 62.8616 323.846 53.9744C323.846 45.0872 330.519 37.4471 339.983 37.4471C349.447 37.4471 356.138 45.1338 356.138 53.9744C356.138 62.815 349.466 70.511 340.011 70.511V70.5297ZM340.011 18.6212C318.607 18.6212 303.457 33.9573 303.457 53.9837C303.457 74.0101 318.598 89.3463 340.011 89.3463C361.424 89.3463 376.555 74.0101 376.555 53.9837C376.555 33.9573 361.415 18.6119 340.011 18.6119V18.6212Z" fill="#6D6E71"/>
<path d="M445.996 20.138H425.681V55.8356C425.681 65.1415 421.028 70.6693 413.332 70.6693C405.636 70.6693 400.983 65.0857 400.983 55.8356V20.138H380.669V55.0911C380.669 77.2951 392.822 89.3463 413.332 89.3463C433.843 89.3463 445.996 77.2485 445.996 55.0911V20.138Z" fill="#939598"/>
<path d="M480.875 18.6119C464.441 18.6119 452.957 26.9872 452.957 41.3183C452.957 52.1784 459.471 57.948 472.779 61.3354L484.132 64.1272C488.515 65.1229 489.408 66.6119 489.408 68.3055C489.408 70.7995 487.221 72.5863 482.14 72.5863C475.626 72.5863 471.383 69.9992 470.387 65.0206H450.202C452.268 83.9674 468.228 89.337 481.871 89.337C499.989 89.337 511.547 80.7755 511.547 66.7328C511.547 54.5793 503.172 49.6006 491.726 46.8181L480.67 44.1287C476.948 43.3284 475.198 42.2675 475.198 39.5409C475.198 36.5537 478.083 34.9624 482.066 34.9624C487.342 34.9624 489.836 37.6518 490.73 41.6347H510.942C509.156 22.4273 491.53 18.6119 480.875 18.6119Z" fill="#939598"/>
<path d="M535.715 36.9632H568.276V20.138H515.698V87.8573H568.276V71.0229H535.715V62.1636H563.595V46.0271H535.715V36.9632Z" fill="#939598"/>
<path d="M568.276 96.0558H565.549L557.342 108.879L549.124 96.0744H546.398L556.132 111.15V119.525H558.579V111.15L568.276 96.0558ZM523.403 96.0558H521.542L512.087 111.932L502.632 96.0558H500.771V119.516H503.228L503.153 101.332L511.296 114.9H512.952L521.03 101.37V119.516H523.477L523.403 96.0558ZM462.449 98.2986H476.287V96.0558H460.002V119.516H476.287V117.255H462.449V108.982H474.91V106.702H462.449V98.2986ZM417.548 117.255V98.2986H423.243C429.004 98.2986 433.07 102.198 433.07 107.604C433.07 113.263 429.004 117.264 423.243 117.264L417.548 117.255ZM415.1 96.0372V119.497H423.243C430.483 119.497 435.592 114.603 435.592 107.595C435.592 100.839 430.483 96.0372 423.243 96.0372H415.1ZM384.819 110.424H374.582L379.682 98.8569L384.819 110.424ZM385.824 112.667L388.858 119.497H391.482L380.855 95.8511H378.51L367.882 119.479H370.497L373.54 112.648L385.824 112.667ZM336.009 117.636C333.444 117.558 331.011 116.483 329.224 114.641C327.438 112.799 326.439 110.334 326.439 107.767C326.439 105.201 327.438 102.736 329.224 100.894C331.011 99.0515 333.444 97.9772 336.009 97.8984C340.43 97.8984 343.64 100.42 344.636 104.282H347.158C346.05 99.1082 341.742 95.5533 335.991 95.5533C332.81 95.6411 329.788 96.9665 327.57 99.2475C325.351 101.528 324.109 104.585 324.109 107.767C324.109 110.95 325.351 114.006 327.57 116.287C329.788 118.568 332.81 119.894 335.991 119.981C341.723 119.981 346.032 116.427 347.158 111.252H344.636C343.64 115.142 340.43 117.655 336.009 117.655V117.636ZM296.18 110.424H285.943L291.08 98.8383L296.18 110.424ZM297.176 112.667L300.219 119.497H302.834L292.206 95.8511H289.861L279.234 119.479H281.858L284.892 112.648L297.176 112.667Z" fill="#BCBEC0"/>
<path d="M584.859 59.7255C583.74 59.7532 582.638 59.4468 581.694 58.8452C580.75 58.2437 580.007 57.3744 579.559 56.3484C579.112 55.3224 578.98 54.1862 579.181 53.0851C579.383 51.9839 579.907 50.9677 580.689 50.1663C581.47 49.3649 582.473 48.8147 583.569 48.5859C584.665 48.3571 585.804 48.4601 586.841 48.8818C587.878 49.3036 588.765 50.0248 589.39 50.9535C590.015 51.8821 590.349 52.976 590.35 54.0954C590.367 54.8277 590.238 55.5562 589.97 56.2379C589.702 56.9197 589.3 57.541 588.789 58.0655C588.277 58.59 587.666 59.007 586.992 59.292C586.317 59.5771 585.592 59.7244 584.859 59.7255V59.7255ZM584.859 42.0442C577.573 42.0442 572.408 47.2648 572.408 54.0861C572.408 60.9073 577.573 66.128 584.859 66.128C592.146 66.128 597.311 60.898 597.311 54.0861C597.311 47.2741 592.155 42.0535 584.859 42.0535V42.0442Z" fill="#E32327"/>
<path fill-rule="evenodd" clip-rule="evenodd" d="M254.21 107.986H258.147L213.655 0H209.709L254.21 107.986Z" fill="#6D6E71"/>
</g>
<defs>
<clipPath id="clip0">
<rect width="597.311" height="120" fill="white"/>
</clipPath>
</defs>
</svg>
