<svg
	xmlns="http://www.w3.org/2000/svg" style="display: none;">
	<symbol id="phone-call" viewBox="0 0 463.009 463.009">
		<title>phone-call</title>
		<path d="m462.692,381.085c-1.472-11.126-7.895-20.719-17.62-26.318l-114.226-65.767c-13.99-8.055-31.738-5.71-43.157,5.708l-22.499,22.499c-5.987,5.988-15.459,6.518-22.028,1.231-17.737-14.272-35.201-29.979-51.906-46.685-16.705-16.705-32.412-34.168-46.685-51.906-5.287-6.57-4.758-16.041 1.231-22.029l22.498-22.499c11.418-11.417 13.766-29.163 5.709-43.156l-65.767-114.226c-5.6-9.726-15.192-16.148-26.318-17.62-11.127-1.475-22.06,2.236-29.996,10.172l-33.901,33.902c-23.661,23.662-24.041,66.944-1.07,121.875 22.088,52.818 63.308,110.962 116.065,163.721 52.759,52.758 110.903,93.978 163.722,116.066 27.039,11.307 51.253,16.957 71.697,16.956 21.088,0 38.163-6.013 50.178-18.027l33.901-33.902c7.935-7.936 11.643-18.869 10.172-29.995zm-139.33-79.086l114.226,65.767c5.649,3.252 9.379,8.824 10.233,15.286 0.718,5.423-0.691,10.763-3.885,15.066l-151.805-86.638 6.165-6.165c6.631-6.631 16.941-7.994 25.066-3.316zm-243.406-286.811c6.463,0.855 12.034,4.585 15.286,10.234l65.767,114.226c4.68,8.127 3.316,18.435-3.315,25.065l-5.663,5.663-87.114-151.303c3.561-2.637 7.82-4.069 12.26-4.069 0.921-1.77636e-15 1.85,0.061 2.779,0.184zm328.055,419.187c-18.798,18.798-57.244,18.01-105.48-2.162-51.06-21.352-107.491-61.424-158.901-112.833-51.41-51.41-91.482-107.842-112.834-158.901-20.173-48.237-20.96-86.683-2.162-105.482l25.167-25.168 87.245,151.532-5.851,5.851c-11.415,11.416-12.409,29.488-2.311,42.04 14.609,18.156 30.68,36.024 47.764,53.108 17.086,17.085 34.954,33.156 53.109,47.765 12.55,10.098 30.622,9.105 42.04-2.312l5.338-5.338 152.016,86.759-25.14,25.141z"/>
	</symbol>
	<symbol id="customer-support" viewBox="0 0 569 569.54905">
		<title>customer-support</title>
		<path d="m1.527344 52.246094 37.984375 66.46875c1.28125 2.246094 3.425781 3.871094 5.933593 4.5l35.4375 8.859375 121.542969 121.542969 13.429688-13.425782-123.445313-123.441406c-1.214844-1.21875-2.738281-2.082031-4.40625-2.5l-34.050781-8.542969-32.339844-56.625 27.726563-27.726562 56.648437 32.371093 8.546875 34.050782c.414063 1.671875 1.28125 3.199218 2.496094 4.414062l123.445312 123.445313 13.425782-13.429688-121.542969-121.542969-8.859375-35.417968c-.628906-2.511719-2.253906-4.660156-4.5-5.945313l-66.472656-37.980469c-3.707032-2.109374-8.371094-1.484374-11.394532 1.527344l-37.980468 37.984375c-3.0546878 3.003907-3.71875 7.675781-1.625 11.414063zm0 0"/>
		<path d="m396.3125 187.144531-208.902344 208.90625-13.429687-13.429687 208.90625-208.902344zm0 0"/>
		<path d="m150.847656 403.441406c-1.71875-2.859375-4.804687-4.605468-8.140625-4.605468h-56.972656c-3.332031 0-6.421875 1.746093-8.136719 4.605468l-28.488281 47.476563c-1.808594 3.007812-1.808594 6.769531 0 9.78125l28.488281 47.476562c1.714844 2.855469 4.804688 4.605469 8.136719 4.605469h56.972656c3.335938 0 6.421875-1.75 8.140625-4.605469l28.484375-47.476562c1.808594-3.011719 1.808594-6.773438 0-9.78125zm-13.511718 90.347656h-46.226563l-22.789063-37.980468 22.789063-37.984375h46.226563l22.789062 37.984375zm0 0"/>
		<path d="m456.0625 227.914062c62.714844.210938 113.730469-50.460937 113.941406-113.175781.03125-9.546875-1.140625-19.054687-3.488281-28.308593-1.265625-5.089844-6.417969-8.1875-11.507813-6.921876-1.671874.417969-3.195312 1.28125-4.414062 2.496094l-59.109375 59.070313-46.898437-15.628907-15.640626-46.886718 59.109376-59.121094c3.707031-3.710938 3.703124-9.722656-.007813-13.429688-1.222656-1.222656-2.761719-2.089843-4.445313-2.503906-60.820312-15.402344-122.605468 21.414063-138.007812 82.230469-2.339844 9.226563-3.507812 18.710937-3.476562 28.230469.023437 7.476562.792968 14.929687 2.308593 22.25l-207.957031 207.953125c-7.320312-1.511719-14.773438-2.28125-22.246094-2.308594-62.933594 0-113.949218 51.015625-113.949218 113.949219 0 62.929687 51.015624 113.945312 113.949218 113.945312 62.929688 0 113.945313-51.015625 113.945313-113.945312-.023438-7.476563-.796875-14.929688-2.308594-22.25l49.785156-49.785156 21.773438 21.773437c3.710937 3.707031 9.71875 3.707031 13.429687 0l4.746094-4.75c4.164062-4.136719 10.894531-4.136719 15.058594 0 4.160156 4.148437 4.167968 10.882813.019531 15.042969-.003906.003906-.011719.011718-.019531.019531l-4.746094 4.746094c-3.707031 3.707031-3.707031 9.71875 0 13.425781l113.273438 113.273438c29.792968 30.066406 78.316406 30.285156 108.382812.492187 30.0625-29.792969 30.28125-78.320313.488281-108.382813-.160156-.164062-.324219-.328124-.488281-.492187l-113.273438-113.269531c-3.707031-3.707032-9.71875-3.707032-13.425781 0l-4.746093 4.746094c-4.167969 4.140624-10.894532 4.140624-15.0625 0-4.15625-4.148438-4.167969-10.882813-.019532-15.039063.007813-.007813.015625-.011719.019532-.019531l4.75-4.75c3.707031-3.707032 3.707031-9.71875 0-13.425782l-21.773438-21.773437 49.785156-49.785156c7.320313 1.511719 14.773438 2.285156 22.246094 2.308593zm37.308594 322.851563c-6.898438-.011719-13.738282-1.257813-20.195313-3.683594l74.160157-74.164062c11.191406 29.769531-3.867188 62.972656-33.636719 74.164062-6.496094 2.441407-13.382813 3.691407-20.328125 3.683594zm-107.574219-246.792969c-10.515625 12.542969-8.867187 31.238282 3.675781 41.75 11.023438 9.238282 27.089844 9.230469 38.101563-.027344l106.5625 106.65625c1.15625 1.160157 2.238281 2.382813 3.285156 3.625l-81.1875 81.1875c-1.246094-1.042968-2.46875-2.125-3.628906-3.285156l-106.644531-106.652344c10.515624-12.542968 8.867187-31.238281-3.675782-41.75-11.023437-9.242187-27.09375-9.230468-38.105468.023438l-15.191407-15.191406 81.613281-81.492188zm38.34375-95.503906-215.410156 215.367188c-2.363281 2.359374-3.3125 5.785156-2.507813 9.023437 13.027344 51.160156-17.886718 103.195313-69.050781 116.21875-51.160156 13.027344-103.195313-17.886719-116.222656-69.050781-13.023438-51.160156 17.890625-103.195313 69.054687-116.222656 15.476563-3.9375 31.691406-3.9375 47.167969 0 3.238281.792968 6.65625-.15625 9.023437-2.503907l215.359376-215.371093c2.359374-2.359376 3.308593-5.785157 2.496093-9.019532-12.9375-50.5625 17.5625-102.039062 68.125-114.980468 9.554688-2.441407 19.4375-3.378907 29.28125-2.765626l-50.089843 50.109376c-2.542969 2.539062-3.433594 6.300781-2.296876 9.710937l18.988282 56.976563c.949218 2.832031 3.175781 5.058593 6.011718 6l56.976563 18.992187c3.40625 1.136719 7.167969.25 9.710937-2.289063l50.089844-50.089843c.113282 1.8125.171875 3.605469.171875 5.390625.265625 52.175781-41.8125 94.6875-93.988281 94.957031-8.066406.039063-16.105469-.953125-23.917969-2.953125-3.238281-.808594-6.664062.136719-9.023437 2.496094h.050781zm0 0"/>
		<path d="m491.273438 477.578125-13.429688 13.429687-94.953125-94.953124 13.425781-13.429688zm0 0"/>
	</symbol>
	<symbol id="facebook" viewBox="0 0 48.605 48.605">
		<title>facebook</title>
		<path d="M34.094,8.688h4.756V0.005h-8.643c-0.721-0.03-9.51-0.198-11.788,8.489c-0.033,0.091-0.761,2.157-0.761,6.983l-7.903,0.024 v9.107l7.913-0.023v24.021h12.087v-24h8v-9.131h-8v-2.873C29.755,10.816,30.508,8.688,34.094,8.688z M35.755,17.474v5.131h-8v24 h-8.087V22.579l-7.913,0.023v-5.107l7.934-0.023l-0.021-1.017c-0.104-5.112,0.625-7.262,0.658-7.365 c1.966-7.482,9.473-7.106,9.795-7.086l6.729,0.002v4.683h-2.756c-4.673,0-6.338,3.054-6.338,5.912v4.873L35.755,17.474 L35.755,17.474z"/>
	</symbol>
	<symbol id="twitter" viewBox="0 0 52.851 52.851">
		<title>twitter</title>
		<path d="M52.412,9.656c-0.354-0.24-0.823-0.227-1.165,0.031c-0.449,0.34-1.179,0.61-1.965,0.818 c2.047-2.294,2.091-3.826,2.069-4.178c-0.023-0.364-0.242-0.687-0.572-0.842c-0.331-0.156-0.719-0.118-1.014,0.096 c-2.303,1.674-4.597,2.027-5.961,2.063c-2.094-2.004-4.813-3.102-7.707-3.102c-6.196,0-11.236,5.108-11.236,11.386 c0,0.54,0.038,1.079,0.113,1.613C14.236,17.42,5.516,7.131,5.426,7.024c-0.21-0.25-0.528-0.384-0.854-0.355 c-0.326,0.028-0.617,0.213-0.78,0.497C0.702,12.526,2.77,17.234,4.66,19.93c-0.334-0.178-0.605-0.354-0.767-0.473 c-0.3-0.224-0.701-0.261-1.039-0.095c-0.337,0.166-0.552,0.506-0.559,0.881c-0.083,5.108,2.375,8.034,4.687,9.652 c-0.308-0.029-0.621,0.085-0.835,0.318c-0.24,0.261-0.325,0.63-0.221,0.969c1.597,5.227,5.518,7.003,8.013,7.606 c-5.13,3.994-12.68,2.708-12.763,2.694c-0.456-0.081-0.906,0.159-1.092,0.582c-0.185,0.422-0.059,0.917,0.309,1.197 c5.415,4.133,11.892,5.048,16.57,5.048c3.539,0,6.05-0.524,6.29-0.577c23.698-5.616,24.365-27.323,24.31-30.88 c4.449-4.137,5.144-5.713,5.251-6.103C52.929,10.336,52.767,9.896,52.412,9.656z M45.874,15.691c-0.223,0.205-0.34,0.5-0.32,0.803 c0.063,0.96,1.275,23.597-22.742,29.288c-0.109,0.023-9.656,2.015-17.932-2.085c3.497-0.097,8.511-1.013,12.004-4.935 c0.264-0.295,0.328-0.719,0.164-1.079c-0.162-0.357-0.519-0.586-0.91-0.586c-0.003,0-0.007,0-0.01,0 c-0.05,0.032-5.301-0.006-7.705-5.001c0.968,0.055,2.162-0.005,3.113-0.443c0.392-0.181,0.623-0.592,0.575-1.021 c-0.048-0.428-0.366-0.777-0.788-0.866c-0.269-0.057-6.115-1.364-6.933-7.741c0.887,0.388,2.022,0.705,3.144,0.534 c0.386-0.058,0.702-0.335,0.811-0.71s-0.01-0.779-0.305-1.035c-0.25-0.218-5.74-5.097-3.137-11.39 c2.826,2.965,11.196,10.67,21.337,10.088c0.297-0.017,0.572-0.167,0.749-0.407c0.176-0.24,0.236-0.546,0.164-0.835 c-0.192-0.765-0.29-1.553-0.29-2.341c0-5.176,4.144-9.386,9.237-9.386c2.491,0,4.828,0.994,6.579,2.8 c0.184,0.19,0.437,0.299,0.701,0.304c1.06,0.015,2.802-0.11,4.77-0.899c-0.568,0.707-1.402,1.554-2.629,2.518 c-0.347,0.273-0.474,0.74-0.313,1.151c0.161,0.412,0.577,0.671,1.011,0.632c0.233-0.019,1.421-0.123,2.764-0.414 C48.249,13.423,47.246,14.429,45.874,15.691z"/>
	</symbol>
	<symbol id="linkedin" viewBox="0 0 512 512">
		<title>linkedin</title>
		<g transform="translate(1)">
			<g>
				<g>
					<path d="M68.12,4.267c-18.773,0-35.84,6.827-48.64,19.627C5.827,37.547-1,54.613-1,72.533c0,18.773,7.68,35.84,20.48,48.64 c12.8,12.8,30.72,20.48,47.787,19.627c0,0,0.853,0,1.707,0c17.067,0,33.28-6.827,46.08-19.627 c12.8-12.8,20.48-29.867,20.48-48.64c0.853-17.92-6.827-34.987-19.627-47.787C103.107,11.093,86.04,4.267,68.12,4.267z M103.107,109.227c-9.387,9.387-22.187,15.36-35.84,14.507c-12.8,0-26.453-5.12-35.84-14.507 c-10.24-9.387-15.36-23.04-15.36-36.693s5.12-26.453,15.36-36.693c9.387-9.387,22.187-14.507,36.693-14.507 c12.8,0,25.6,5.12,34.987,14.507c10.24,10.24,15.36,23.04,15.36,36.693S113.347,99.84,103.107,109.227z"/>
					<path d="M101.4,157.867H32.28c-13.653,0-24.747,11.093-24.747,25.6v298.667c0,13.653,11.947,25.6,25.6,25.6H101.4 c13.653,0,25.6-11.947,25.6-24.747v-299.52C127,169.813,115.053,157.867,101.4,157.867z M109.933,482.987 c0,4.267-4.267,7.68-8.533,7.68H33.133c-4.267,0-8.533-4.267-8.533-8.533V183.467c0-4.267,3.413-8.533,7.68-8.533h69.12 c4.267,0,8.533,4.267,8.533,8.533V482.987z"/>
					<path d="M391.533,149.333h-17.92c-33.28,0-64.853,14.507-85.333,37.547v-11.947c0-8.533-8.533-17.067-17.067-17.067H185.88 c-7.68,0-17.067,6.827-17.067,16.213v318.293c0,9.387,9.387,15.36,17.067,15.36h93.867c7.68,0,17.067-5.973,17.067-15.36v-184.32 c0-28.16,20.48-50.347,46.933-50.347c13.653,0,26.453,5.12,35.84,14.507c8.533,7.68,11.947,19.627,11.947,34.987v183.467 c0,8.533,8.533,17.067,17.067,17.067h85.333c8.533,0,17.067-8.533,17.067-17.067v-220.16 C511,202.24,458.947,149.333,391.533,149.333z M493.933,489.813l-0.853,0.853h-83.627L408.6,307.2 c0-20.48-5.12-35.84-16.213-46.933c-12.8-12.8-29.867-19.627-47.787-19.627c-35.84,0.853-64,29.867-64,67.413v182.613h-93.867 V174.933h84.48l0.853,0.853v53.76l23.04-23.04l0.853-0.853c17.067-23.893,46.933-39.253,78.507-39.253h17.92 c57.173,0,101.547,46.08,101.547,104.107V489.813z"/>
				</g>
			</g>
		</g>
	</symbol>
	<symbol id="email" viewBox="0 0 512 512">
		<title>email</title>
		<path d="M511.996,187.974c-0.004-0.343-0.034-0.678-0.08-1.009c-0.008-0.051-0.008-0.102-0.016-0.153 c-0.006-0.042-0.019-0.082-0.026-0.124c-0.065-0.372-0.149-0.736-0.263-1.09l-0.005-0.021c-0.006-0.018-0.016-0.034-0.022-0.053 c-0.115-0.348-0.257-0.683-0.416-1.008c-0.018-0.038-0.031-0.078-0.051-0.114c-0.012-0.023-0.026-0.045-0.038-0.068 c-0.167-0.319-0.356-0.625-0.563-0.917c-0.022-0.03-0.04-0.063-0.061-0.094c-0.032-0.044-0.07-0.083-0.102-0.126 c-0.21-0.276-0.431-0.542-0.674-0.789c-0.014-0.014-0.025-0.029-0.039-0.042c-0.004-0.005-0.01-0.01-0.014-0.015 c-0.01-0.01-0.021-0.018-0.03-0.028c-0.259-0.255-0.539-0.488-0.831-0.708c-0.034-0.026-0.064-0.058-0.098-0.083l-0.001-0.001 l-59.575-43.253c-3.613-2.623-8.667-1.823-11.292,1.793c-2.624,3.613-1.819,8.668,1.793,11.291l39.429,28.627H329.605 l-190.549-61.333c-0.53-0.17-1.066-0.283-1.601-0.342c-3.736-0.41-7.375,1.842-8.573,5.561L110.82,179.99H32.98L256.001,18.075 l163.359,118.6c3.612,2.62,8.666,1.822,11.292-1.793c2.624-3.613,1.821-8.668-1.793-11.292L260.75,1.542 c-2.832-2.057-6.668-2.057-9.5,0L3.335,181.533l-0.001,0.001c-0.034,0.025-0.064,0.057-0.098,0.083 c-0.291,0.219-0.571,0.452-0.831,0.708c-0.01,0.01-0.02,0.018-0.03,0.028c-0.005,0.005-0.01,0.01-0.015,0.015 c-0.013,0.013-0.024,0.027-0.036,0.04c-0.244,0.248-0.466,0.514-0.676,0.791c-0.032,0.043-0.07,0.082-0.101,0.125 c-0.022,0.03-0.04,0.063-0.061,0.094c-0.207,0.292-0.396,0.598-0.563,0.917c-0.012,0.023-0.026,0.045-0.038,0.068 c-0.019,0.038-0.032,0.077-0.051,0.114c-0.159,0.324-0.301,0.66-0.416,1.007c-0.006,0.018-0.016,0.034-0.023,0.053 c-0.002,0.006-0.002,0.014-0.005,0.021c-0.113,0.352-0.198,0.717-0.262,1.089c-0.008,0.042-0.021,0.083-0.027,0.125 c-0.008,0.051-0.009,0.101-0.015,0.153c-0.045,0.331-0.075,0.666-0.08,1.009c0,0.029-0.004,0.057-0.004,0.086L0,188.074v0.024 c0,0.005,0,0.01,0,0.015v315.803c0,0.044,0.005,0.087,0.006,0.132c0.002,0.147,0.012,0.292,0.023,0.439 c0.009,0.123,0.016,0.246,0.03,0.368c0.016,0.136,0.04,0.271,0.063,0.406c0.022,0.128,0.041,0.257,0.068,0.382 c0.028,0.127,0.064,0.251,0.097,0.377c0.034,0.129,0.068,0.26,0.109,0.388c0.039,0.12,0.086,0.237,0.13,0.356 c0.049,0.128,0.095,0.257,0.149,0.382c0.05,0.113,0.107,0.223,0.162,0.335c0.063,0.126,0.123,0.252,0.191,0.375 c0.058,0.104,0.123,0.204,0.185,0.305c0.078,0.126,0.155,0.251,0.239,0.372c0.065,0.093,0.136,0.182,0.205,0.274 c0.094,0.124,0.189,0.246,0.29,0.364c0.027,0.031,0.05,0.066,0.076,0.096c0.045,0.051,0.096,0.094,0.141,0.143 c0.119,0.127,0.239,0.251,0.365,0.371c0.085,0.081,0.17,0.158,0.258,0.235c0.12,0.104,0.244,0.204,0.369,0.301 c0.096,0.074,0.192,0.149,0.291,0.218c0.127,0.089,0.259,0.172,0.392,0.254c0.1,0.063,0.199,0.126,0.302,0.183 c0.148,0.083,0.3,0.156,0.453,0.23c0.092,0.044,0.181,0.093,0.275,0.133c0.184,0.08,0.375,0.149,0.566,0.216 c0.066,0.023,0.129,0.051,0.195,0.071c0.245,0.078,0.494,0.143,0.747,0.198c0.015,0.003,0.03,0.009,0.046,0.012 C6.96,511.94,7.515,512,8.084,512h495.832c0.57,0,1.125-0.06,1.661-0.172c0.015-0.003,0.03-0.009,0.046-0.012 c0.253-0.055,0.503-0.12,0.747-0.198c0.066-0.021,0.129-0.049,0.195-0.071c0.192-0.067,0.382-0.135,0.567-0.216 c0.093-0.04,0.182-0.088,0.274-0.132c0.153-0.073,0.306-0.147,0.453-0.23c0.102-0.057,0.202-0.122,0.302-0.183 c0.133-0.082,0.264-0.165,0.392-0.254c0.099-0.069,0.195-0.143,0.291-0.218c0.126-0.097,0.249-0.196,0.369-0.301 c0.087-0.077,0.174-0.154,0.258-0.235c0.126-0.12,0.247-0.244,0.365-0.371c0.046-0.05,0.097-0.093,0.141-0.143 c0.027-0.031,0.05-0.065,0.077-0.096c0.101-0.119,0.196-0.24,0.29-0.364c0.069-0.092,0.14-0.181,0.205-0.274 c0.084-0.121,0.162-0.246,0.239-0.372c0.063-0.101,0.128-0.203,0.185-0.305c0.069-0.123,0.129-0.25,0.192-0.376 c0.055-0.111,0.111-0.221,0.161-0.333c0.055-0.126,0.101-0.255,0.15-0.384c0.044-0.117,0.091-0.235,0.129-0.354 c0.041-0.127,0.074-0.258,0.109-0.388c0.033-0.125,0.069-0.25,0.097-0.377c0.027-0.125,0.046-0.253,0.068-0.382 c0.023-0.136,0.046-0.271,0.063-0.406c0.014-0.122,0.022-0.245,0.03-0.368c0.01-0.147,0.019-0.292,0.022-0.439 c0.001-0.044,0.006-0.087,0.006-0.132V188.113c0.001-0.005,0.001-0.01,0.001-0.015v-0.024v-0.014 C512,188.031,511.996,188.003,511.996,187.974z M479.021,196.158l-30.466,22.118l-68.718-22.118H479.021z M124.406,190.551 l17.39-54.026l184.061,59.245l106.487,34.276l-37.068,26.911L239.02,206.66c-4.249-1.362-8.804,0.968-10.173,5.219 c-1.368,4.249,0.968,8.804,5.219,10.173l145.002,46.673l-19.811,14.382L172.329,222.94c-4.248-1.364-8.804,0.968-10.173,5.219 c-1.368,4.249,0.968,8.804,5.219,10.173l175.671,56.544l-19.81,14.381l-24.31-7.826c-4.248-1.366-8.804,0.968-10.173,5.219 c-1.367,4.249,0.968,8.804,5.219,10.173l13.054,4.202l-51.025,37.044L105.625,248.899L124.406,190.551z M105.615,196.158 l-13.758,42.745L32.98,196.158H105.615z M16.168,203.933L191.563,331.27L16.168,486.004V203.933z M29.469,495.832 l175.503-154.828l46.281,33.6c0.034,0.025,0.072,0.041,0.107,0.066c0.314,0.22,0.636,0.424,0.973,0.594 c0.01,0.004,0.018,0.011,0.027,0.016c0.004,0.002,0.008,0.004,0.012,0.006c0.34,0.17,0.692,0.309,1.05,0.43 c0.115,0.039,0.232,0.07,0.349,0.104c0.252,0.072,0.507,0.133,0.764,0.18c0.123,0.023,0.244,0.047,0.367,0.064 c0.35,0.049,0.702,0.079,1.055,0.081c0.013,0,0.026,0.003,0.038,0.003c0.002,0,0.004-0.001,0.006-0.001 c0.002,0,0.004,0.001,0.006,0.001c0.013,0,0.025-0.003,0.038-0.003c0.354-0.002,0.705-0.032,1.055-0.081 c0.124-0.017,0.246-0.042,0.369-0.065c0.257-0.047,0.51-0.107,0.761-0.179c0.117-0.033,0.236-0.065,0.352-0.105 c0.357-0.12,0.708-0.259,1.048-0.429c0.004-0.002,0.009-0.004,0.013-0.006c0.011-0.005,0.02-0.013,0.031-0.018 c0.335-0.171,0.656-0.373,0.969-0.592c0.034-0.025,0.073-0.041,0.108-0.066l46.279-33.599l175.503,154.827H29.469z M495.832,486.003L320.438,331.272l80.977-58.789c0.005-0.003,0.01-0.008,0.015-0.011l94.402-68.538V486.003z"/>
		<path d="M180.823,204.869l29.455,9.48c0.823,0.264,1.658,0.39,2.479,0.39c3.416,0,6.59-2.183,7.694-5.609 c1.368-4.25-0.968-8.804-5.219-10.173l-29.455-9.48c-4.247-1.367-8.804,0.969-10.173,5.219 C174.237,198.947,176.573,203.5,180.823,204.869z"/>
		<path d="M273.06,309.687c3.416,0,6.59-2.183,7.694-5.609c1.368-4.249-0.968-8.804-5.219-10.173l-116.656-37.548 c-4.247-1.362-8.804,0.968-10.173,5.219c-1.366,4.25,0.97,8.804,5.22,10.173l116.655,37.548 C271.404,309.561,272.238,309.687,273.06,309.687z"/>
	</symbol>
	<symbol id="telephone" viewBox="0 0 480 480">
		<title>telephone</title>
		<path d="M272,264c-13.255,0-24,10.745-24,24s10.745,24,24,24s24-10.745,24-24S285.255,264,272,264z M272,296 c-4.418,0-8-3.582-8-8s3.582-8,8-8s8,3.582,8,8S276.418,296,272,296z"/>
		<path d="M336,264c-13.255,0-24,10.745-24,24s10.745,24,24,24s24-10.745,24-24S349.255,264,336,264z M336,296 c-4.418,0-8-3.582-8-8s3.582-8,8-8s8,3.582,8,8S340.418,296,336,296z"/>
		<path d="M400,264c-13.255,0-24,10.745-24,24s10.745,24,24,24s24-10.745,24-24S413.255,264,400,264z M400,296 c-4.418,0-8-3.582-8-8s3.582-8,8-8s8,3.582,8,8S404.418,296,400,296z"/>
		<path d="M272,328c-13.255,0-24,10.745-24,24s10.745,24,24,24s24-10.745,24-24S285.255,328,272,328z M272,360 c-4.418,0-8-3.582-8-8s3.582-8,8-8s8,3.582,8,8S276.418,360,272,360z"/>
		<path d="M336,328c-13.255,0-24,10.745-24,24s10.745,24,24,24s24-10.745,24-24S349.255,328,336,328z M336,360 c-4.418,0-8-3.582-8-8s3.582-8,8-8s8,3.582,8,8S340.418,360,336,360z"/>
		<path d="M400,328c-13.255,0-24,10.745-24,24s10.745,24,24,24s24-10.745,24-24S413.255,328,400,328z M400,360 c-4.418,0-8-3.582-8-8s3.582-8,8-8s8,3.582,8,8S404.418,360,400,360z"/>
		<path d="M272,392c-13.255,0-24,10.745-24,24s10.745,24,24,24s24-10.745,24-24S285.255,392,272,392z M272,424 c-4.418,0-8-3.582-8-8s3.582-8,8-8s8,3.582,8,8S276.418,424,272,424z"/>
		<path d="M336,392c-13.255,0-24,10.745-24,24s10.745,24,24,24s24-10.745,24-24S349.255,392,336,392z M336,424 c-4.418,0-8-3.582-8-8s3.582-8,8-8s8,3.582,8,8S340.418,424,336,424z"/>
		<path d="M400,392c-13.255,0-24,10.745-24,24s10.745,24,24,24s24-10.745,24-24S413.255,392,400,392z M400,424 c-4.418,0-8-3.582-8-8s3.582-8,8-8s8,3.582,8,8S404.418,424,400,424z"/>
		<path d="M456,128h-32V36.872L387.2,0H248v128h-72v-8c-0.026-22.08-17.92-39.974-40-40H88c-22.08,0.026-39.974,17.92-40,40v8H24 c-13.255,0-24,10.745-24,24v304c0,13.255,10.745,24,24,24h432c13.255,0,24-10.745,24-24V152C480,138.745,469.255,128,456,128z M264,16h116.584L408,43.488V224H264V16z M64,120c0-13.255,10.745-24,24-24h48c13.255,0,24,10.745,24,24v272 c0,13.255-10.745,24-24,24H88c-13.255,0-24-10.745-24-24V120z M464,456c0,4.418-3.582,8-8,8H24c-4.418,0-8-3.582-8-8V152 c0-4.418,3.582-8,8-8h24v248c0.026,22.08,17.92,39.974,40,40h48c22.08-0.026,39.974-17.92,40-40V144h72v80h-24v16h224v-16h-24 v-80h32c4.418,0,8,3.582,8,8V456z"/>
	</symbol>
	<symbol id="whatsapp" viewBox="0 0 52 52">
		<title>whatsapp</title>
		<path d="M26,0C11.663,0,0,11.663,0,26c0,4.891,1.359,9.639,3.937,13.762C2.91,43.36,1.055,50.166,1.035,50.237 c-0.096,0.352,0.007,0.728,0.27,0.981c0.263,0.253,0.643,0.343,0.989,0.237L12.6,48.285C16.637,50.717,21.26,52,26,52 c14.337,0,26-11.663,26-26S40.337,0,26,0z M26,50c-4.519,0-8.921-1.263-12.731-3.651c-0.161-0.101-0.346-0.152-0.531-0.152 c-0.099,0-0.198,0.015-0.294,0.044l-8.999,2.77c0.661-2.413,1.849-6.729,2.538-9.13c0.08-0.278,0.035-0.578-0.122-0.821 C3.335,35.173,2,30.657,2,26C2,12.767,12.767,2,26,2s24,10.767,24,24S39.233,50,26,50z"/>
		<path d="M42.985,32.126c-1.846-1.025-3.418-2.053-4.565-2.803c-0.876-0.572-1.509-0.985-1.973-1.218 c-1.297-0.647-2.28-0.19-2.654,0.188c-0.047,0.047-0.089,0.098-0.125,0.152c-1.347,2.021-3.106,3.954-3.621,4.058 c-0.595-0.093-3.38-1.676-6.148-3.981c-2.826-2.355-4.604-4.61-4.865-6.146C20.847,20.51,21.5,19.336,21.5,18 c0-1.377-3.212-7.126-3.793-7.707c-0.583-0.582-1.896-0.673-3.903-0.273c-0.193,0.039-0.371,0.134-0.511,0.273 c-0.243,0.243-5.929,6.04-3.227,13.066c2.966,7.711,10.579,16.674,20.285,18.13c1.103,0.165,2.137,0.247,3.105,0.247 c5.71,0,9.08-2.873,10.029-8.572C43.556,32.747,43.355,32.331,42.985,32.126z M30.648,39.511 c-10.264-1.539-16.729-11.708-18.715-16.87c-1.97-5.12,1.663-9.685,2.575-10.717c0.742-0.126,1.523-0.179,1.849-0.128 c0.681,0.947,3.039,5.402,3.143,6.204c0,0.525-0.171,1.256-2.207,3.293C17.105,21.48,17,21.734,17,22c0,5.236,11.044,12.5,13,12.5 c1.701,0,3.919-2.859,5.182-4.722c0.073,0.003,0.196,0.028,0.371,0.116c0.36,0.181,0.984,0.588,1.773,1.104 c1.042,0.681,2.426,1.585,4.06,2.522C40.644,37.09,38.57,40.701,30.648,39.511z"/>
	</symbol>
	<symbol id="map" viewBox="0 0 512 512">
		<title>map</title>
		<path d="M256,298.667c58.813,0,106.667-47.854,106.667-106.667S314.813,85.333,256,85.333S149.333,133.188,149.333,192 S197.188,298.667,256,298.667z M256,106.667c47.063,0,85.333,38.281,85.333,85.333S303.063,277.333,256,277.333 S170.667,239.052,170.667,192S208.938,106.667,256,106.667z"/>
		<path d="M489.813,497.135l-64-149.333c-1.688-3.927-5.542-6.469-9.813-6.469h-37.878l13.086-13.042 C427.833,291.938,448,243.542,448,192C448,86.135,361.875,0,256,0S64,86.135,64,192c0,51.542,20.167,99.938,56.792,136.271 l13.104,13.063H96c-4.271,0-8.125,2.542-9.813,6.469l-64,149.333c-1.396,3.292-1.063,7.073,0.917,10.073 C25.063,510.198,28.417,512,32,512h448c3.583,0,6.938-1.802,8.896-4.792C490.875,504.208,491.208,500.427,489.813,497.135z M85.333,192c0-94.104,76.563-170.667,170.667-170.667S426.667,97.896,426.667,192c0,45.813-17.938,88.833-50.5,121.167 L256,432.938L135.833,313.146C103.271,280.833,85.333,237.813,85.333,192z M48.167,490.667l54.875-128h52.255l93.182,92.885 c2.063,2.073,4.792,3.115,7.521,3.115s5.458-1.042,7.521-3.115l93.197-92.885h52.241l54.875,128H48.167z"/>
	</symbol>
	<symbol id="data" viewBox="0 0 64 64">
		<title>data</title>
		<path d="m60 39h-10v-33c0-2.757-2.243-5-5-5h-26c-2.757 0-5 2.243-5 5v33h-10c-1.654 0-3 1.346-3 3v14c0 1.654 1.346 3 3 3h6v2h-4v2h18v-2h-4v-2h6c1.654 0 3-1.346 3-3v-13h6v13c0 1.654 1.346 3 3 3h6v2h-4v2h18v-2h-4v-2h6c1.654 0 3-1.346 3-3v-14c0-1.654-1.346-3-3-3zm1 3v11h-24v-11c0-.551.448-1 1-1h22c.552 0 1 .449 1 1zm-35-3h-6v-8h24v8h-6c-1.302 0-2.402.839-2.816 2h-6.369c-.413-1.161-1.513-2-2.815-2zm18-26h-24v-6h24zm-24 2h24v6h-24zm0 8h24v6h-24zm-4-17c0-1.654 1.346-3 3-3h26c1.654 0 3 1.346 3 3v33h-2v-32c0-1.103-.897-2-2-2h-24c-1.103 0-2 .897-2 2v32h-2zm-12 35h22c.552 0 1 .449 1 1v11h-24v-11c0-.551.448-1 1-1zm14 20h-6v-2h6zm8-4h-22c-.552 0-1-.449-1-1v-1h24v1c0 .551-.448 1-1 1zm26 4h-6v-2h6zm8-4h-22c-.552 0-1-.449-1-1v-1h24v1c0 .551-.448 1-1 1z"/>
		<path d="m22 9h2v2h-2z"/>
		<path d="m26 9h2v2h-2z"/>
		<path d="m30 9h2v2h-2z"/>
		<path d="m40 17h2v2h-2z"/>
		<path d="m36 17h2v2h-2z"/>
		<path d="m32 17h2v2h-2z"/>
		<path d="m22 25h2v2h-2z"/>
		<path d="m26 25h2v2h-2z"/>
		<path d="m30 25h2v2h-2z"/>
		<path d="m32 33c-1.654 0-3 1.346-3 3s1.346 3 3 3 3-1.346 3-3-1.346-3-3-3zm0 4c-.552 0-1-.449-1-1s.448-1 1-1 1 .449 1 1-.448 1-1 1z"/>
		<path d="m54 15.816v21.184h2v-21.184c1.161-.414 2-1.514 2-2.816 0-1.654-1.346-3-3-3s-3 1.346-3 3c0 1.302.839 2.402 2 2.816zm1-3.816c.552 0 1 .449 1 1s-.448 1-1 1-1-.449-1-1 .448-1 1-1z"/>
		<path d="m57 34c0 1.654 1.346 3 3 3s3-1.346 3-3c0-1.302-.839-2.402-2-2.816v-21.184h-2v21.184c-1.161.414-2 1.514-2 2.816zm3 1c-.552 0-1-.449-1-1s.448-1 1-1 1 .449 1 1-.448 1-1 1z"/>
		<path d="m3 15.816v21.184h2v-21.184c1.161-.414 2-1.514 2-2.816 0-1.654-1.346-3-3-3s-3 1.346-3 3c0 1.302.839 2.402 2 2.816zm1-3.816c.552 0 1 .449 1 1s-.448 1-1 1-1-.449-1-1 .448-1 1-1z"/>
		<path d="m6 34c0 1.654 1.346 3 3 3s3-1.346 3-3c0-1.302-.839-2.402-2-2.816v-21.184h-2v21.184c-1.161.414-2 1.514-2 2.816zm3 1c-.552 0-1-.449-1-1s.448-1 1-1 1 .449 1 1-.448 1-1 1z"/>
		<path d="m39 43h2v2h-2z"/>
		<path d="m43 43h2v2h-2z"/>
		<path d="m47 43h2v2h-2z"/>
		<path d="m23 49h2v2h-2z"/>
		<path d="m19 49h2v2h-2z"/>
		<path d="m15 49h2v2h-2z"/>
	</symbol>
	<symbol id="firewall" viewBox="0 0 480.017 480.017">
		<title>firewall</title>
		<g>
			<g>
				<path d="M472.009,64.017h-128v-16c-0.016-3.23-1.973-6.133-4.96-7.36l-96-40c-1.932-0.876-4.148-0.876-6.08,0l-96,40 c-2.987,1.227-4.944,4.13-4.96,7.36v16h-128c-4.418,0-8,3.582-8,8v400c0,4.418,3.582,8,8,8h464c4.418,0,8-3.582,8-8v-400 C480.009,67.599,476.427,64.017,472.009,64.017z M344.009,176.017v-16h24v64h-35.84C339.937,209.209,344,192.739,344.009,176.017z M248.009,152.017v-97.36l48,20v101.36c-0.033,27.813-20.473,51.387-48,55.36V152.017z M248.009,248.017 c36.612-4.093,64.228-35.161,64-72V69.377c0.016-3.259-1.946-6.202-4.96-7.44l-59.04-24.56v-17.36l80,33.36v122.64 c0.189,45.641-34.548,83.851-80,88V248.017z M240.009,280.017c23.216,0.005,45.758-7.801,64-22.16v46.16h-128v-46.16 C194.251,272.216,216.793,280.022,240.009,280.017z M368.009,320.017v64h-120v-64H368.009z M232.009,320.017v64h-120v-64H232.009z M232.009,231.377c-27.527-3.973-47.967-27.547-48-55.36V74.657l48-20v97.36V231.377z M152.009,53.377l80-33.36v17.36 l-59.04,24.56c-3.014,1.238-4.976,4.181-4.96,7.44v106.64c0.017,36.656,27.571,67.447,64,71.52v16 c-45.269-4.132-79.94-42.063-80-87.52V53.377z M147.849,224.017h-35.84v-64h24v16C136.017,192.739,140.08,209.209,147.849,224.017 z M16.009,80.017h120v64h-120V80.017z M16.009,160.017h80v64h-80V160.017z M16.009,240.017h142.16l1.84,2.4v61.6h-144V240.017z M16.009,320.017h80v64h-80V320.017z M160.009,464.017h-144v-64h144V464.017z M304.009,464.017h-128v-64h128V464.017z M464.009,464.017h-144v-64h144V464.017z M464.009,384.017h-80v-64h80V384.017z M464.009,304.017h-144v-61.6l1.84-2.4h142.16 V304.017z M464.009,224.017h-80v-64h80V224.017z M464.009,144.017h-120v-64h120V144.017z"/>
			</g>
		</g>
		<g>
			<g>
				<path d="M208.009,80.017c-4.418,0-8,3.582-8,8v16c0,4.418,3.582,8,8,8s8-3.582,8-8v-16 C216.009,83.599,212.427,80.017,208.009,80.017z"/>
			</g>
		</g>
		<g>
			<g>
				<path d="M208.009,128.017c-4.418,0-8,3.582-8,8v48c0,4.418,3.582,8,8,8s8-3.582,8-8v-48 C216.009,131.599,212.427,128.017,208.009,128.017z"/>
			</g>
		</g>
	</symbol>
	<symbol id="firewall-1" viewBox="0 0 509.395 509.395">
		<title>firewall-1</title>
		<path d="m20.739 129.095h117.354c11.437 0 20.74-9.304 20.74-20.74 0-.038 0-.076-.001-.114l-1.018-67.168c-.034-11.407-9.325-20.676-20.74-20.676h-116.335c-11.435 0-20.739 9.304-20.739 20.74v67.218c0 11.436 9.304 20.74 20.739 20.74zm-5.739-87.958c0-3.165 2.574-5.74 5.739-5.74h116.335c3.165 0 5.74 2.575 5.74 5.74 0 .038 0 .076.001.114l1.018 67.148c-.023 3.145-2.59 5.696-5.74 5.696h-117.354c-3.165 0-5.739-2.575-5.739-5.74z"/>
		<path d="m368.302 129.095h120.354c11.436 0 20.739-9.304 20.739-20.74 0-.038 0-.076-.001-.114l-1.017-67.166c-.033-11.408-9.324-20.679-20.74-20.679h-119.335c-11.437 0-20.74 9.304-20.74 20.74v67.218c0 11.437 9.303 20.741 20.74 20.741zm-5.74-87.958c0-3.165 2.575-5.74 5.74-5.74h119.335c3.165 0 5.74 2.575 5.74 5.74 0 .038 0 .076.001.114l1.017 67.15c-.024 3.144-2.59 5.694-5.739 5.694h-120.354c-3.165 0-5.74-2.575-5.74-5.74z"/>
		<path d="m509.395 228.497c0-.038 0-.076-.001-.113l-1.017-67.167c-.034-11.407-9.325-20.678-20.74-20.678h-29.41c-4.143 0-7.5 3.358-7.5 7.5s3.357 7.5 7.5 7.5h29.41c3.165 0 5.74 2.575 5.74 5.74 0 .038 0 .076.001.114l1.017 67.15c-.024 3.144-2.59 5.694-5.739 5.694h-80.3c-3.933-29.69-16.3-56.753-34.609-78.698h54.372c4.143 0 7.5-3.358 7.5-7.5s-3.357-7.5-7.5-7.5h-67.057c-.501 0-.99.051-1.464.145-9.06-8.342-19.113-15.619-29.959-21.636 1.914-3.171 2.976-6.851 2.976-10.693 0-.038 0-.076-.001-.114l-1.018-67.168c-.034-11.407-9.325-20.676-20.74-20.676h-116.335c-11.437 0-20.74 9.304-20.74 20.74v67.218c0 4.311 1.379 8.461 3.804 11.909-9.959 5.735-19.22 12.55-27.632 20.275h-129.214c-11.435 0-20.739 9.304-20.739 20.74v67.218c0 11.436 9.304 20.74 20.739 20.74h79.055c-.063 1.813-.106 3.631-.106 5.46 0 1.645.035 3.282.086 4.915h-79.035c-11.435 0-20.739 9.305-20.739 20.741v67.218c0 11.436 9.304 20.74 20.739 20.74h117.354c3.161 0 6.253-.738 9.05-2.101 5.265 5.08 10.887 9.789 16.825 14.089h-143.229c-11.435 0-20.739 9.305-20.739 20.741v67.218c0 11.436 9.304 20.74 20.739 20.74h26.379c4.143 0 7.5-3.358 7.5-7.5s-3.357-7.5-7.5-7.5h-26.379c-3.165 0-5.739-2.575-5.739-5.74v-67.218c0-3.165 2.574-5.74 5.739-5.74h165.336c.873 0 1.707-.157 2.486-.431 12.903 6.112 26.778 10.493 41.326 12.843l.946 60.594c-.026 3.143-2.591 5.692-5.74 5.692h-145.677c-4.143 0-7.5 3.358-7.5 7.5s3.357 7.5 7.5 7.5h145.677c11.437 0 20.74-9.304 20.74-20.74 0-.039 0-.078-.001-.117l-.917-58.752c3.236.203 6.496.318 9.783.318 1.964 0 3.917-.049 5.864-.122v58.673c0 11.436 9.304 20.74 20.74 20.74h207.354c11.436 0 20.739-9.304 20.739-20.74 0-.038 0-.076-.001-.113l-1.017-67.169c-.034-11.407-9.325-20.676-20.74-20.676h-142.21c5.218-3.78 10.192-7.877 14.894-12.262.632.173 1.294.273 1.981.273h126.354c11.436 0 20.739-9.304 20.739-20.74 0-.038 0-.076-.001-.113l-1.017-67.168c-.034-11.407-9.325-20.677-20.74-20.677h-78.016c.051-1.633.086-3.27.086-4.915 0-1.829-.043-3.646-.106-5.46h79.055c11.435-.001 20.739-9.305 20.739-20.741zm-320.615-120.142v-67.218c0-3.165 2.575-5.74 5.74-5.74h116.335c3.165 0 5.74 2.575 5.74 5.74 0 .038 0 .076.001.114l1.018 67.149c-.012 1.489-.615 2.882-1.631 3.93-18.808-8.127-39.528-12.642-61.286-12.642-22.512 0-43.916 4.829-63.238 13.497-1.654-1.062-2.679-2.89-2.679-4.83zm-168.041 125.882c-3.165 0-5.739-2.575-5.739-5.74v-67.218c0-3.165 2.574-5.74 5.739-5.74h114.909c-18.309 21.945-30.676 49.008-34.609 78.698zm-5.739 113.334v-67.218c0-3.165 2.574-5.74 5.739-5.74h80.224c3.821 29.657 16.054 56.716 34.224 78.698h-114.448c-3.165 0-5.739-2.575-5.739-5.74zm304.946 47.728h167.69c3.165 0 5.74 2.575 5.74 5.74 0 .038 0 .076.001.114l1.017 67.15c-.024 3.144-2.59 5.694-5.739 5.694h-207.353c-3.165 0-5.74-2.575-5.74-5.74v-59.96c15.64-2.113 30.545-6.568 44.354-13 .01.001.02.002.03.002zm-65.249-.592c-77.202 0-140.01-62.808-140.01-140.009s62.808-140.009 140.01-140.009 140.01 62.808 140.01 140.009-62.808 140.009-140.01 140.009zm232.94-120.095c3.165 0 5.74 2.575 5.74 5.74 0 .038 0 .076.001.114l1.017 67.15c-.024 3.144-2.59 5.694-5.739 5.694h-114.449c18.17-21.982 30.404-49.041 34.224-78.698z"/>
		<path d="m316.864 228.292v-24.702c0-34.279-27.888-62.167-62.167-62.167s-62.167 27.888-62.167 62.167v24.702c-5.369 5.204-8.716 12.482-8.716 20.532v16.509c0 4.142 3.357 7.5 7.5 7.5s7.5-3.358 7.5-7.5v-16.509c0-7.504 6.105-13.609 13.609-13.609h84.547c7.504 0 13.609 6.105 13.609 13.609v78.484c0 7.504-6.105 13.609-13.609 13.609h-84.547c-7.504 0-13.609-6.105-13.609-13.609v-31.867c0-4.142-3.357-7.5-7.5-7.5s-7.5 3.358-7.5 7.5v31.867c0 15.775 12.834 28.609 28.609 28.609h84.547c15.775 0 28.609-12.834 28.609-28.609v-78.484c.001-8.049-3.346-15.328-8.715-20.532zm-41.504-8.077h-41.326v-16.625c0-11.394 9.27-20.663 20.663-20.663s20.663 9.27 20.663 20.663zm15 0v-16.625c0-19.665-15.998-35.663-35.663-35.663s-35.663 15.999-35.663 35.663v16.625h-6.61c-1.669 0-3.302.152-4.894.427v-17.052c0-26.008 21.159-47.167 47.167-47.167s47.167 21.159 47.167 47.167v17.052c-1.591-.275-3.225-.427-4.894-.427z"/>
		<path d="m271.768 321.172c4.143 0 7.5-3.358 7.5-7.5v-34.14c0-13.548-11.022-24.57-24.57-24.57s-24.57 11.022-24.57 24.57v34.14c0 4.142 3.357 7.5 7.5 7.5zm-26.641-41.64c0-5.277 4.293-9.57 9.57-9.57s9.57 4.293 9.57 9.57v26.64h-19.141v-26.64z"/>
	</symbol>
	<symbol id="network" viewBox="0 0 512 512">
		<title>network</title>
		<path d="M227.925,96.342c-3.421-3.158-8.695-3.158-12.117,0c-0.754,0.828-1.362,1.78-1.796,2.813 c-0.436,1.027-0.667,2.13-0.679,3.246c0,4.713,3.82,8.533,8.533,8.533s8.533-3.82,8.533-8.533 c-0.013-1.116-0.245-2.219-0.683-3.246C229.282,98.122,228.676,97.171,227.925,96.342z"/>
		<path d="M262.058,96.342c-0.816-0.772-1.772-1.382-2.817-1.796c-1.557-0.679-3.287-0.857-4.95-0.508 c-0.535,0.091-1.053,0.263-1.537,0.508c-0.543,0.188-1.058,0.448-1.533,0.771c-0.429,0.341-0.854,0.683-1.279,1.025 c-0.773,0.814-1.383,1.769-1.796,2.813c-0.437,1.027-0.667,2.13-0.679,3.246c0.032,2.259,0.916,4.423,2.475,6.059 c0.425,0.341,0.85,0.683,1.279,1.021c0.475,0.323,0.991,0.582,1.533,0.771c0.485,0.245,1.003,0.418,1.537,0.513 c0.565,0.098,1.136,0.155,1.708,0.171c1.115-0.014,2.216-0.246,3.242-0.683c1.054-0.394,2.013-1.005,2.817-1.792 c1.557-1.637,2.441-3.799,2.475-6.058c-0.013-1.116-0.245-2.219-0.683-3.246C263.416,98.122,262.81,97.171,262.058,96.342z"/>
		<path d="M296.191,96.342c-0.816-0.772-1.772-1.382-2.817-1.796c-2.079-0.85-4.408-0.85-6.487,0 c-2.139,0.784-3.824,2.469-4.608,4.608c-0.437,1.027-0.667,2.13-0.679,3.246c0.032,2.259,0.916,4.423,2.475,6.059 c0.83,0.752,1.781,1.357,2.813,1.791c2.067,0.911,4.421,0.911,6.487,0c1.044-0.414,1.999-1.022,2.817-1.792 c1.557-1.637,2.441-3.799,2.475-6.058c-0.013-1.116-0.245-2.219-0.683-3.246C297.549,98.122,296.943,97.171,296.191,96.342z"/>
		<path d="M53.675,407.125c1.636,1.558,3.8,2.441,6.059,2.475c1.115-0.014,2.216-0.246,3.242-0.683 c1.033-0.434,1.986-1.04,2.817-1.791c0.752-0.831,1.358-1.783,1.792-2.817c0.437-1.026,0.669-2.127,0.683-3.242 c-0.033-2.259-0.917-4.422-2.475-6.059c-0.83-0.754-1.783-1.362-2.817-1.796c-3.186-1.251-6.809-0.552-9.3,1.796 c-1.559,1.635-2.443,3.799-2.475,6.059c0.012,1.115,0.243,2.216,0.679,3.242C52.313,405.343,52.92,406.295,53.675,407.125z"/>
		<path d="M90.621,408.916c2.067,0.911,4.421,0.911,6.487,0c2.143-0.777,3.831-2.465,4.608-4.608c0.911-2.067,0.911-4.421,0-6.487 c-0.78-2.141-2.467-3.828-4.608-4.608c-2.079-0.85-4.409-0.85-6.487,0c-2.139,0.784-3.824,2.469-4.608,4.608 c-0.906,2.068-0.906,4.42,0,6.487C86.793,406.449,88.48,408.136,90.621,408.916z"/>
		<path d="M121.941,407.125c3.365,3.3,8.752,3.3,12.117,0c0.752-0.831,1.358-1.783,1.792-2.817 c0.478-1.012,0.713-2.123,0.683-3.242c0.02-3.467-2.059-6.601-5.261-7.931s-6.89-0.59-9.331,1.872 c-0.754,0.828-1.362,1.78-1.796,2.813c-0.906,2.068-0.906,4.42,0,6.487C120.579,405.342,121.187,406.295,121.941,407.125z"/>
		<path d="M387.242,393.213c-2.061-0.938-4.427-0.938-6.487,0c-1.033,0.434-1.984,1.041-2.813,1.796c-3.3,3.365-3.3,8.752,0,12.117 c0.83,0.752,1.781,1.358,2.813,1.792c2.067,0.911,4.421,0.911,6.487,0c1.033-0.434,1.986-1.04,2.817-1.792 c3.3-3.365,3.3-8.752,0-12.117C389.228,394.254,388.276,393.646,387.242,393.213z"/>
		<path d="M416.425,392.704c-0.534,0.091-1.051,0.263-1.533,0.508c-0.546,0.187-1.064,0.447-1.542,0.771l-1.275,1.025 c-1.574,1.625-2.461,3.796-2.475,6.059c0.014,1.115,0.246,2.216,0.683,3.242c0.413,1.044,1.021,2,1.792,2.817 c2.886,2.912,7.432,3.371,10.842,1.095c3.41-2.277,4.729-6.65,3.147-10.433C424.481,394.004,420.44,391.873,416.425,392.704z"/>
		<path d="M458.325,395.008c-2.734-2.765-6.987-3.342-10.359-1.407c-3.372,1.936-5.018,5.9-4.008,9.655 c1.009,3.755,4.421,6.359,8.309,6.344c2.27,0.022,4.453-0.87,6.058-2.475s2.497-3.788,2.475-6.058 c-0.013-1.116-0.245-2.219-0.683-3.246C459.705,396.777,459.097,395.823,458.325,395.008z"/>
		<path d="M494.933,298.667h-68.267V281.6h17.067c9.421-0.011,17.056-7.646,17.067-17.067h42.667c4.713,0,8.533-3.82,8.533-8.533 s-3.82-8.533-8.533-8.533H460.8c-0.011-9.421-7.646-17.056-17.067-17.067h-51.2c-9.422,0.009-17.057,7.645-17.067,17.067h-76.8 c-0.009-9.422-7.645-17.057-17.067-17.067h-17.067v-17.067H307.2c4.713,0,8.533-3.821,8.533-8.533v-17.067 c-0.015-14.132-11.468-25.585-25.6-25.6v-17.067H332.8c9.422-0.009,17.057-7.645,17.067-17.067V17.067 C349.857,7.645,342.222,0.009,332.8,0H179.2c-9.422,0.009-17.057,7.645-17.067,17.067V128 c0.009,9.422,7.645,17.057,17.067,17.067h42.667v17.067c-14.132,0.015-25.585,11.468-25.6,25.6V204.8 c0,4.713,3.82,8.533,8.533,8.533h42.667V230.4H230.4c-9.422,0.009-17.057,7.645-17.067,17.067h-76.8 c-0.009-9.422-7.645-17.057-17.067-17.067h-51.2c-9.422,0.009-17.057,7.645-17.067,17.067H8.533C3.82,247.467,0,251.287,0,256 s3.82,8.533,8.533,8.533H51.2c0.009,9.422,7.645,17.057,17.067,17.067h17.067v17.067H17.067 C7.645,298.676,0.009,306.312,0,315.733v110.933c0.009,9.422,7.645,17.057,17.067,17.067h42.667V460.8 c-14.132,0.015-25.585,11.468-25.6,25.6v17.067c0,4.713,3.82,8.533,8.533,8.533h102.4c4.713,0,8.533-3.82,8.533-8.533V486.4 c-0.015-14.132-11.468-25.585-25.6-25.6v-17.067h42.667c9.422-0.009,17.057-7.645,17.067-17.067V315.733 c-0.009-9.422-7.645-17.057-17.067-17.067H102.4V281.6h17.067c9.422-0.009,17.057-7.645,17.067-17.067h76.8 c0.009,9.422,7.645,17.057,17.067,17.067h51.2c9.422-0.009,17.057-7.645,17.067-17.067h76.8 c0.009,9.422,7.645,17.057,17.067,17.067H409.6v17.067h-68.267c-9.422,0.009-17.057,7.645-17.067,17.067v110.933 c0.009,9.422,7.645,17.057,17.067,17.067H384V460.8c-14.132,0.015-25.585,11.468-25.6,25.6v17.067 c0,4.713,3.82,8.533,8.533,8.533h102.4c2.263,0.001,4.434-0.898,6.035-2.499c1.6-1.6,2.499-3.771,2.499-6.035V486.4 c-0.015-14.132-11.468-25.585-25.6-25.6v-17.067h42.667c9.421-0.011,17.056-7.645,17.067-17.067V315.733 C511.989,306.312,504.355,298.677,494.933,298.667z M136.533,486.4v8.533H51.2V486.4c0.006-4.71,3.823-8.527,8.533-8.533H128 C132.71,477.873,136.527,481.69,136.533,486.4z M76.8,460.8v-17.067h34.133V460.8H76.8z M170.667,315.733l0.012,110.933H17.067 V315.733H170.667z M68.267,264.533v-17.067h51.2l0.006,8.503L119.467,256l0.006,0.031l0.006,8.502H68.267z M179.2,128V17.067 h153.6L332.813,128H179.2z M273.067,145.067v17.067h-34.133v-17.067H273.067z M213.333,196.267v-8.533 c0.006-4.71,3.823-8.527,8.533-8.533h68.267c4.71,0.006,8.527,3.823,8.533,8.533v8.533H213.333z M230.4,264.533v-17.067h51.2 l0.006,8.503L281.6,256l0.006,0.031l0.006,8.502H230.4z M392.533,264.533v-17.067h51.2l0.004,8.513L443.733,256l0.004,0.021 l0.004,8.513H392.533z M460.8,486.4v8.533h-85.333V486.4c0.006-4.71,3.823-8.527,8.533-8.533h68.267 C456.978,477.871,460.795,481.689,460.8,486.4z M401.067,460.8v-17.067H435.2V460.8H401.067z M341.333,426.667V315.733h153.6 l0.009,110.933H341.333z"/>
	</symbol>
	<symbol id="server" viewBox="0 0 74 74">
		<title>server</title>
		<path d="m69.009 23.307h-64.018a3 3 0 0 1 -3-3v-13.29a3 3 0 0 1 3-3h64.018a3 3 0 0 1 3 3v13.29a3 3 0 0 1 -3 3zm-64.018-17.29a1 1 0 0 0 -1 1v13.29a1 1 0 0 0 1 1h64.018a1 1 0 0 0 1-1v-13.29a1 1 0 0 0 -1-1z"/>
		<path d="m59.991 18.007a4.345 4.345 0 1 1 4.346-4.345 4.35 4.35 0 0 1 -4.346 4.345zm0-6.69a2.345 2.345 0 1 0 2.346 2.345 2.348 2.348 0 0 0 -2.346-2.345z"/>
		<path d="m46.646 18.007a4.345 4.345 0 1 1 4.345-4.345 4.35 4.35 0 0 1 -4.345 4.345zm0-6.69a2.345 2.345 0 1 0 2.345 2.345 2.348 2.348 0 0 0 -2.345-2.345z"/>
		<path d="m37.28 14.662h-26.617a1 1 0 0 1 0-2h26.617a1 1 0 0 1 0 2z"/>
		<path d="m69.009 46.645h-64.018a3 3 0 0 1 -3-3v-13.29a3 3 0 0 1 3-3h64.018a3 3 0 0 1 3 3v13.29a3 3 0 0 1 -3 3zm-64.018-17.29a1 1 0 0 0 -1 1v13.29a1 1 0 0 0 1 1h64.018a1 1 0 0 0 1-1v-13.29a1 1 0 0 0 -1-1z"/>
		<path d="m59.991 41.345a4.345 4.345 0 1 1 4.346-4.345 4.35 4.35 0 0 1 -4.346 4.345zm0-6.69a2.345 2.345 0 1 0 2.346 2.345 2.348 2.348 0 0 0 -2.346-2.345z"/>
		<path d="m46.646 41.345a4.345 4.345 0 1 1 4.345-4.345 4.35 4.35 0 0 1 -4.345 4.345zm0-6.69a2.345 2.345 0 1 0 2.345 2.345 2.348 2.348 0 0 0 -2.345-2.345z"/>
		<path d="m37.28 38h-26.617a1 1 0 1 1 0-2h26.617a1 1 0 0 1 0 2z"/>
		<path d="m69.009 69.983h-64.018a3 3 0 0 1 -3-3v-13.29a3 3 0 0 1 3-3h64.018a3 3 0 0 1 3 3v13.29a3 3 0 0 1 -3 3zm-64.018-17.29a1 1 0 0 0 -1 1v13.29a1 1 0 0 0 1 1h64.018a1 1 0 0 0 1-1v-13.29a1 1 0 0 0 -1-1z"/>
		<path d="m59.991 64.683a4.345 4.345 0 1 1 4.346-4.345 4.35 4.35 0 0 1 -4.346 4.345zm0-6.69a2.345 2.345 0 1 0 2.346 2.345 2.348 2.348 0 0 0 -2.346-2.345z"/>
		<path d="m46.646 64.683a4.345 4.345 0 1 1 4.345-4.345 4.35 4.35 0 0 1 -4.345 4.345zm0-6.69a2.345 2.345 0 1 0 2.345 2.345 2.348 2.348 0 0 0 -2.345-2.345z"/>
		<path d="m37.28 61.338h-26.617a1 1 0 0 1 0-2h26.617a1 1 0 0 1 0 2z"/>
		<path d="m61.51 29.358a1 1 0 0 1 -1-1v-5.049h-47.02v5.049a1 1 0 1 1 -2 0v-6.049a1 1 0 0 1 1-1h49.02a1 1 0 0 1 1 1v6.049a1 1 0 0 1 -1 1z"/>
		<path d="m61.51 52.688h-49.02a1 1 0 0 1 -1-1v-6.04a1 1 0 0 1 2 0v5.04h47.02v-5.04a1 1 0 0 1 2 0v6.04a1 1 0 0 1 -1 1z"/>
	</symbol>
	<symbol id="growth" viewBox="0 0 64 64">
		<title>growth</title>
		<circle cx="18" cy="57" r="1"/>
		<circle cx="22" cy="57" r="1"/>
		<circle cx="26" cy="57" r="1"/>
		<path d="M14,57a1,1,0,0,0-1-1H7a1,1,0,0,0,0,2h6A1,1,0,0,0,14,57Z"/>
		<circle cx="18" cy="49" r="1"/>
		<circle cx="22" cy="49" r="1"/>
		<circle cx="26" cy="49" r="1"/>
		<path d="M13,48H7a1,1,0,0,0,0,2h6a1,1,0,0,0,0-2Z"/>
		<path d="M31,36H23a1,1,0,0,0,0,2h7v6H4V38H20a1,1,0,0,0,0-2V31h3a1,1,0,0,0,1-1V29h6.529a36.563,36.563,0,0,0,29.19-14.569l.3,1.682a1,1,0,0,0,.984.826.948.948,0,0,0,.175-.015,1,1,0,0,0,.811-1.158l-.7-3.94a1,1,0,0,0-1.159-.811l-3.939.7a1,1,0,0,0,.348,1.97l1.434-.253A34.562,34.562,0,0,1,30.529,27H24V26a1,1,0,0,0-1-1H11a1,1,0,0,0-1,1v1H3a1,1,0,0,0,0,2h7v1a1,1,0,0,0,1,1h3v5H3a1,1,0,0,0-1,1V61a1,1,0,0,0,1,1H7a1,1,0,0,0,0-2H4V54H30v6H11a1,1,0,0,0,0,2H31a1,1,0,0,0,1-1V37A1,1,0,0,0,31,36ZM15,29H12V27H22v2H19a1,1,0,0,0-1,1v6H16V30A1,1,0,0,0,15,29ZM4,52V46H30v6Z"/>
		<circle cx="18" cy="41" r="1"/>
		<circle cx="22" cy="41" r="1"/>
		<circle cx="26" cy="41" r="1"/>
		<path d="M7,40a1,1,0,0,0,0,2h6a1,1,0,0,0,0-2Z"/>
		<path d="M41,36H35a1,1,0,0,0-1,1V61a1,1,0,0,0,2,0V56h4v5a1,1,0,0,0,2,0V37A1,1,0,0,0,41,36Zm-1,2v6H36V38ZM36,54V46h4v8Z"/>
		<path d="M51,30H45a1,1,0,0,0-1,1V61a1,1,0,0,0,2,0V51h4V61a1,1,0,0,0,2,0V31A1,1,0,0,0,51,30Zm-1,2v7H46V32ZM46,49V41h4v8Z"/>
		<path d="M61,24H55a1,1,0,0,0-1,1V61a1,1,0,0,0,2,0V43h4V61a1,1,0,0,0,2,0V25A1,1,0,0,0,61,24Zm-1,2v4H56V26ZM56,41V32h4v9Z"/>
		<path d="M11,15a1,1,0,0,0,1-1V11h2v3a1,1,0,0,0,1,1H33a1,1,0,0,0,1-1V10a1,1,0,0,0-1-1H11a1,1,0,0,0-1,1v4A1,1,0,0,0,11,15Zm21-2H26V11h6Zm-8,0H16V11h8Z"/>
		<path d="M11,23H29a1,1,0,0,0,1-1V18a1,1,0,0,0-1-1H11a1,1,0,0,0-1,1v4A1,1,0,0,0,11,23Zm17-2H26V19h2Zm-4,0H22V19h2Zm-4,0H16V19h4Zm-8-2h2v2H12Z"/>
		<path d="M3,15H7a1,1,0,0,0,1-1V10A1,1,0,0,0,7,9H3a1,1,0,0,0-1,1v4A1,1,0,0,0,3,15Zm1-4H6v2H4Z"/>
		<path d="M3,23H7a1,1,0,0,0,1-1V18a1,1,0,0,0-1-1H3a1,1,0,0,0-1,1v4A1,1,0,0,0,3,23Zm1-4H6v2H4Z"/>
	</symbol>
	<symbol id="server-1" viewBox="0 0 64 64">
		<title>server-1</title>
		<path d="m24.03 41.002h-.01c-.552 0-.994.447-.994 1s.452 1 1.005 1c.552 0 1-.447 1-1s-.449-1-1.001-1z"/>
		<path d="m6.293 40.295-2 2c-.391.391-.391 1.023 0 1.414.195.195.451.293.707.293s.512-.098.707-.293l2-2c.391-.391.391-1.023 0-1.414s-1.023-.391-1.414 0z"/>
		<path d="m11.293 40.295-2 2c-.391.391-.391 1.023 0 1.414.195.195.451.293.707.293s.512-.098.707-.293l2-2c.391-.391.391-1.023 0-1.414s-1.023-.391-1.414 0z"/>
		<path d="m16.293 40.295-2 2c-.391.391-.391 1.023 0 1.414.195.195.451.293.707.293s.512-.098.707-.293l2-2c.391-.391.391-1.023 0-1.414s-1.023-.391-1.414 0z"/>
		<path d="m24.03 49.002h-.01c-.552 0-.994.447-.994 1s.452 1 1.005 1c.552 0 1-.447 1-1s-.449-1-1.001-1z"/>
		<path d="m6.293 48.295-2 2c-.391.391-.391 1.023 0 1.414.195.195.451.293.707.293s.512-.098.707-.293l2-2c.391-.391.391-1.023 0-1.414s-1.023-.391-1.414 0z"/>
		<path d="m11.293 48.295-2 2c-.391.391-.391 1.023 0 1.414.195.195.451.293.707.293s.512-.098.707-.293l2-2c.391-.391.391-1.023 0-1.414s-1.023-.391-1.414 0z"/>
		<path d="m16.293 48.295-2 2c-.391.391-.391 1.023 0 1.414.195.195.451.293.707.293s.512-.098.707-.293l2-2c.391-.391.391-1.023 0-1.414s-1.023-.391-1.414 0z"/>
		<path d="m24.03 59.002c.552 0 1-.447 1-1s-.448-1-1-1h-.01c-.552 0-.994.447-.994 1s.452 1 1.004 1z"/>
		<path d="m1 63.002h26c.553 0 1-.447 1-1v-8-8-8c0-.04-.019-.074-.022-.112-.008-.068-.019-.134-.04-.199-.022-.067-.054-.127-.089-.187-.02-.033-.025-.07-.049-.102l-3-4c-.014-.019-.035-.027-.05-.045-.047-.054-.1-.097-.156-.14-.05-.037-.097-.074-.151-.102s-.112-.043-.172-.06c-.068-.02-.134-.037-.204-.041-.023-.002-.043-.014-.066-.014h-20.001c-.024 0-.045.013-.069.014-.068.005-.131.021-.196.04-.063.018-.122.033-.179.062-.054.027-.1.063-.147.1-.058.044-.111.086-.158.141-.015.018-.036.026-.05.045l-3 4c-.023.031-.029.068-.049.102-.035.06-.066.119-.089.186-.021.066-.032.132-.04.2-.004.038-.023.072-.023.112v8 8 8c0 .553.447 1 1 1zm3.5-28h19l1.5 2h-22zm-2.5 12h24v6h-24zm0-8h24v6h-24zm24 22h-24v-6h24z"/>
		<path d="m5 60.002c.256 0 .512-.098.707-.293l2-2c.391-.391.391-1.023 0-1.414s-1.023-.391-1.414 0l-2 2c-.391.391-.391 1.023 0 1.414.195.195.451.293.707.293z"/>
		<path d="m10 60.002c.256 0 .512-.098.707-.293l2-2c.391-.391.391-1.023 0-1.414s-1.023-.391-1.414 0l-2 2c-.391.391-.391 1.023 0 1.414.195.195.451.293.707.293z"/>
		<path d="m15 60.002c.256 0 .512-.098.707-.293l2-2c.391-.391.391-1.023 0-1.414s-1.023-.391-1.414 0l-2 2c-.391.391-.391 1.023 0 1.414.195.195.451.293.707.293z"/>
		<path d="m60.03 41.002h-.01c-.552 0-.994.447-.994 1s.452 1 1.005 1c.552 0 1-.447 1-1s-.449-1-1.001-1z"/>
		<path d="m42.293 40.295-2 2c-.391.391-.391 1.023 0 1.414.195.195.451.293.707.293s.512-.098.707-.293l2-2c.391-.391.391-1.023 0-1.414s-1.023-.391-1.414 0z"/>
		<path d="m47.293 40.295-2 2c-.391.391-.391 1.023 0 1.414.195.195.451.293.707.293s.512-.098.707-.293l2-2c.391-.391.391-1.023 0-1.414s-1.023-.391-1.414 0z"/>
		<path d="m52.293 40.295-2 2c-.391.391-.391 1.023 0 1.414.195.195.451.293.707.293s.512-.098.707-.293l2-2c.391-.391.391-1.023 0-1.414s-1.023-.391-1.414 0z"/>
		<path d="m60.03 49.002h-.01c-.552 0-.994.447-.994 1s.452 1 1.005 1c.552 0 1-.447 1-1s-.449-1-1.001-1z"/>
		<path d="m42.293 48.295-2 2c-.391.391-.391 1.023 0 1.414.195.195.451.293.707.293s.512-.098.707-.293l2-2c.391-.391.391-1.023 0-1.414s-1.023-.391-1.414 0z"/>
		<path d="m47.293 48.295-2 2c-.391.391-.391 1.023 0 1.414.195.195.451.293.707.293s.512-.098.707-.293l2-2c.391-.391.391-1.023 0-1.414s-1.023-.391-1.414 0z"/>
		<path d="m52.293 48.295-2 2c-.391.391-.391 1.023 0 1.414.195.195.451.293.707.293s.512-.098.707-.293l2-2c.391-.391.391-1.023 0-1.414s-1.023-.391-1.414 0z"/>
		<path d="m60.03 59.002c.552 0 1-.447 1-1s-.448-1-1-1h-.01c-.552 0-.994.447-.994 1s.452 1 1.004 1z"/>
		<path d="m41 60.002c.256 0 .512-.098.707-.293l2-2c.391-.391.391-1.023 0-1.414s-1.023-.391-1.414 0l-2 2c-.391.391-.391 1.023 0 1.414.195.195.451.293.707.293z"/>
		<path d="m46 60.002c.256 0 .512-.098.707-.293l2-2c.391-.391.391-1.023 0-1.414s-1.023-.391-1.414 0l-2 2c-.391.391-.391 1.023 0 1.414.195.195.451.293.707.293z"/>
		<path d="m51 60.002c.256 0 .512-.098.707-.293l2-2c.391-.391.391-1.023 0-1.414s-1.023-.391-1.414 0l-2 2c-.391.391-.391 1.023 0 1.414.195.195.451.293.707.293z"/>
		<path d="m63.938 37.69c-.022-.067-.054-.127-.089-.187-.02-.033-.025-.07-.049-.102l-3-4c-.014-.019-.035-.027-.05-.045-.047-.054-.1-.097-.156-.14-.05-.037-.097-.074-.151-.102s-.112-.043-.172-.06c-.068-.02-.134-.037-.204-.041-.023-.002-.043-.014-.066-.014h-20.001c-.024 0-.045.013-.069.014-.068.005-.131.021-.196.04-.063.018-.122.033-.179.062-.054.027-.1.063-.147.1-.058.044-.111.086-.158.141-.015.018-.036.026-.05.045l-3 4c-.023.031-.029.068-.049.102-.035.06-.066.119-.089.186-.021.066-.032.132-.04.2-.004.039-.023.073-.023.113v8 8 8c0 .553.447 1 1 1h26c.553 0 1-.447 1-1v-8-8-8c0-.04-.019-.074-.022-.112-.008-.069-.019-.134-.04-.2zm-23.438-2.688h19l1.5 2h-22zm-2.5 4h24v6h-24zm0 8h24v6h-24zm24 14h-24v-6h24z"/>
		<path d="m13.023 30.002c0 .552.447 1 1 1s1-.448 1-1v-14.993h2.978c.553 0 1-.448 1-1s-.447-1-1-1h-4.001c-.553 0-1 .448-1 1 0 .041.019.076.023.116z"/>
		<path d="m45.999 15.009h3.001v14.993c0 .552.447 1 1 1s1-.448 1-1v-15.993c0-.552-.447-1-1-1h-4.001c-.553 0-1 .448-1 1s.447 1 1 1z"/>
		<path d="m25.006 26.998c.007 0 .013-.004.02-.004h13.928c.014 0 .025.008.039.008 2.207 0 4.002-1.795 4.002-4.002 0 0 0 0 0-.001 0-.004.002-.007.002-.011v-17.988c0-.007-.004-.013-.004-.02-.011-2.197-1.8-3.982-4-3.982-.005 0-.007.002-.011.002h-13.966c-.004 0-.006-.002-.01-.002-2.206 0-4 1.794-4 3.999v17.991c0 .002.001.003.001.005s-.001.003-.001.005c0 2.206 1.794 4 4 4zm0-18.001c.005 0 .01-.003.015-.003h13.933c.014 0 .025.008.039.008.733 0 1.412-.212 2.004-.558v2.546c0 .003-.002.006-.002.01 0 1.095-.885 1.985-1.977 2-.009 0-.017-.005-.025-.005h-13.983c-.004 0-.007.002-.011.002-1.1-.004-1.993-.898-1.993-1.999v-2.557c.591.344 1.268.556 2 .556zm0 6c.005 0 .01-.003.015-.003h13.933c.014 0 .025.008.039.008.733 0 1.412-.212 2.004-.558v2.546c0 .003-.002.006-.002.01 0 1.095-.885 1.985-1.977 2-.009 0-.017-.005-.025-.005h-13.983c-.005 0-.009.003-.015.003-1.098-.006-1.989-.899-1.989-1.999v-2.557c.591.343 1.268.555 2 .555zm14.012 10.003c-.009 0-.017-.005-.025-.005h-13.983c-.005 0-.009.003-.015.003-1.098-.006-1.989-.899-1.989-1.999 0-.002-.001-.003-.001-.005s.001-.003.001-.005v-2.546c.591.344 1.269.556 2 .556.007 0 .013-.004.02-.004h13.928c.014 0 .025.008.039.008.733 0 1.412-.212 2.004-.558v2.544.001c0 .004-.002.007-.002.011-.001 1.094-.886 1.984-1.977 1.999zm-14.016-22.001c.003 0 .005.001.008.001h13.982c.002 0 .004-.001.007-.001 1.101.003 1.995.899 1.995 2.001 0 1.095-.885 1.985-1.977 2-.009 0-.017-.005-.025-.005h-13.982c-.004 0-.007.002-.011.002-1.1-.004-1.993-.898-1.993-1.999s.895-1.998 1.996-1.999z"/>
	</symbol>
	<symbol id="log" viewBox="0 0 64 64">
		<title>log</title>
		<path d="M55,15H54V9a3,3,0,0,0-3-3H50V5a3,3,0,0,0-3-3H9A3,3,0,0,0,6,5V55a3,3,0,0,0,3,3h1v1a3,3,0,0,0,3,3H51a3,3,0,0,0,3-3V41h1a3,3,0,0,0,3-3V18A3,3,0,0,0,55,15ZM51,8a1,1,0,0,1,1,1v6H50V8ZM14,4h2V6.7l-.168-.252a1.039,1.039,0,0,0-1.664,0L14,6.7ZM8,55V5A1,1,0,0,1,9,4h3v6a1,1,0,0,0,1.832.555L15,8.8l1.168,1.752A1,1,0,0,0,18,10V4H47a1,1,0,0,1,1,1V15H17a3,3,0,0,0-3,3V38a3,3,0,0,0,3,3H48V55a1,1,0,0,1-1,1H9A1,1,0,0,1,8,55Zm44,4a1,1,0,0,1-1,1H13a1,1,0,0,1-1-1V58H47a3,3,0,0,0,3-3V41h2Zm4-21a1,1,0,0,1-1,1H17a1,1,0,0,1-1-1V18a1,1,0,0,1,1-1H55a1,1,0,0,1,1,1Z"/>
		<path d="M25,22H23V33a1,1,0,0,0,1,1h5V32H25Z"/>
		<path d="M36,22H34a3,3,0,0,0-3,3v6a3,3,0,0,0,3,3h2a3,3,0,0,0,3-3V25A3,3,0,0,0,36,22Zm1,9a1,1,0,0,1-1,1H34a1,1,0,0,1-1-1V25a1,1,0,0,1,1-1h2a1,1,0,0,1,1,1Z"/>
		<path d="M44,24h2a1,1,0,0,1,1,1h2a3,3,0,0,0-3-3H44a3,3,0,0,0-3,3v6a3,3,0,0,0,3,3h2a3,3,0,0,0,3-3V28a1,1,0,0,0-1-1H45v2h2v2a1,1,0,0,1-1,1H44a1,1,0,0,1-1-1V25A1,1,0,0,1,44,24Z"/>
	</symbol>
	<symbol id="database" viewBox="0 0 480 480">
		<title>database</title>
		<path d="M104,432h80c4.418,0,8-3.582,8-8s-3.582-8-8-8h-80c-4.418,0-8,3.582-8,8S99.582,432,104,432z"/>
		<path d="M56,448c13.255,0,24-10.745,24-24s-10.745-24-24-24s-24,10.745-24,24S42.745,448,56,448z M56,416c4.418,0,8,3.582,8,8 s-3.582,8-8,8s-8-3.582-8-8S51.582,416,56,416z"/>
		<path d="M360,448c4.418,0,8-3.582,8-8v-32c0-4.418-3.582-8-8-8s-8,3.582-8,8v32C352,444.418,355.582,448,360,448z"/>
		<path d="M328,448c4.418,0,8-3.582,8-8v-32c0-4.418-3.582-8-8-8s-8,3.582-8,8v32C320,444.418,323.582,448,328,448z"/>
		<path d="M296,448c4.418,0,8-3.582,8-8v-32c0-4.418-3.582-8-8-8s-8,3.582-8,8v32C288,444.418,291.582,448,296,448z"/>
		<path d="M264,448c4.418,0,8-3.582,8-8v-32c0-4.418-3.582-8-8-8s-8,3.582-8,8v32C256,444.418,259.582,448,264,448z"/>
		<path d="M232,448c4.418,0,8-3.582,8-8v-32c0-4.418-3.582-8-8-8s-8,3.582-8,8v32C224,444.418,227.582,448,232,448z"/>
		<path d="M480,120C479.925,53.757,426.243,0.075,360,0H40c-4.16-0.016-7.638,3.16-8,7.304l-32,368V376v96c0,4.418,3.582,8,8,8h384 c4.418,0,8-3.582,8-8v-96c0-0.128,0-0.584,0-0.696l-12-138.696C441.998,223.777,480.086,175.501,480,120z M384,464H16v-80h368 V464z M377.968,222.448c-5.932,1.046-11.945,1.566-17.968,1.552c-42.942,0.179-81.526-26.201-96.944-66.28 c-1.508-4.153-6.097-6.297-10.25-4.789s-6.297,6.097-4.789,10.25c0.042,0.116,0.087,0.232,0.135,0.346 C265.937,209.772,310.455,240.209,360,240c3.872,0,7.64-0.208,11.384-0.568h0.736L383.28,368H16.728L47.336,16h252.8 c-2.4,1.376-4.696,2.84-6.968,4.368c-0.36,0.24-0.696,0.504-1.056,0.752c-2.501,1.728-4.933,3.549-7.296,5.464 c-0.664,0.528-1.328,1.064-1.976,1.6c-2.592,2.184-5.12,4.448-7.52,6.84c-0.256,0.248-0.488,0.52-0.736,0.8 c-2.176,2.2-4.248,4.504-6.248,6.872c-0.552,0.648-1.096,1.296-1.6,1.96c-2.144,2.64-4.2,5.344-6.112,8.168 c-0.168,0.24-0.312,0.504-0.48,0.744c-1.752,2.632-3.376,5.344-4.92,8.104c-0.424,0.76-0.848,1.512-1.256,2.28 c-1.6,3.032-3.128,6.112-4.48,9.288c-0.08,0.192-0.144,0.4-0.232,0.6c-1.256,3.008-2.4,6.096-3.384,9.224 c-0.272,0.84-0.536,1.688-0.8,2.536c-1.008,3.352-1.92,6.736-2.632,10.2c0,0.112,0,0.232-0.056,0.352 c-0.68,3.352-1.176,6.776-1.6,10.232c-0.104,0.904-0.2,1.808-0.28,2.72v0.136l-20.8-20.8c-3.069-3.178-8.134-3.266-11.312-0.197 c-3.178,3.069-3.266,8.134-0.197,11.312c0.064,0.067,0.13,0.132,0.197,0.197l33.944,33.936c3.124,3.123,8.188,3.123,11.312,0 l33.944-33.936c3.178-3.07,3.266-8.134,0.196-11.312c-3.07-3.178-8.134-3.266-11.312-0.196c-0.067,0.064-0.132,0.13-0.196,0.196 l-19.48,19.488c6.664-57.05,58.315-97.895,115.364-91.231c57.05,6.664,97.895,58.315,91.231,115.364 C458.055,177.774,423.306,214.54,377.968,222.448z"/>
		<path d="M408,112h-40V40c0-4.418-3.582-8-8-8s-8,3.582-8,8v80c0,4.418,3.582,8,8,8h48c4.418,0,8-3.582,8-8S412.418,112,408,112z"/>
	</symbol>
	<symbol id="data-1" viewBox="0 0 64 64">
		<title>data-1</title>
		<path d="m43.647 39.663.496 1.938c.68-.174 1.341-.365 1.981-.572l-.616-1.903c-.6.194-1.222.374-1.861.537z"/>
		<path d="m35.929 40.862.143 1.995c.682-.049 1.358-.11 2.029-.183l-.217-1.988c-.647.07-1.299.129-1.955.176z"/>
		<path d="m39.824 40.432.301 1.978c.683-.104 1.356-.222 2.016-.354l-.393-1.961c-.629.125-1.272.238-1.924.337z"/>
		<path d="m35.929 56.862.143 1.995c.682-.049 1.358-.11 2.029-.183l-.217-1.988c-.647.07-1.299.129-1.955.176z"/>
		<path d="m39.824 56.432.301 1.978c.683-.104 1.356-.222 2.016-.354l-.393-1.961c-.629.125-1.272.238-1.924.337z"/>
		<path d="m43.647 55.663.496 1.938c.68-.174 1.341-.365 1.981-.572l-.616-1.903c-.6.194-1.222.374-1.861.537z"/>
		<path d="m28.121 48.862c-.656-.047-1.309-.106-1.955-.176l-.217 1.988c.67.073 1.347.134 2.029.183z"/>
		<path d="m24.226 48.432c-.652-.099-1.294-.211-1.924-.337l-.393 1.961c.66.132 1.333.25 2.016.354z"/>
		<path d="m20.402 47.663c-.639-.164-1.26-.343-1.861-.538l-.616 1.903c.64.207 1.301.397 1.981.572z"/>
		<path d="m32 35c1.433 0 14-.112 14-4s-12.567-4-14-4-14 .112-14 4 12.567 4 14 4zm0-6c6.929 0 11.228 1.233 11.945 2-.717.767-5.016 2-11.945 2s-11.228-1.233-11.945-2c.717-.767 5.016-2 11.945-2z"/>
		<path d="m52 31c0-3.56-4.837-5.996-11-7.178v-22.822h-11.414l-6.586 6.586v16.236c-6.163 1.182-11 3.618-11 7.178v3h-10v18h10v3c0 5.196 10.305 8 20 8s20-2.804 20-8v-3h10v-18h-10zm-38 11.64c3.463 2.851 10.892 4.36 18 4.36s14.537-1.509 18-4.36v4.36c0 2.838-7.392 6-18 6s-18-3.162-18-6zm18 2.36c-10.608 0-18-3.162-18-6v-4.36c3.463 2.851 10.892 4.36 18 4.36s14.537-1.509 18-4.36v4.36c0 2.838-7.392 6-18 6zm-3-40.586v2.586h-2.586zm-4 4.586h6v-6h8v20.49c-2.266-.324-4.65-.49-7-.49s-4.734.166-7 .49zm7 16c10.608 0 18 3.162 18 6s-7.392 6-18 6-18-3.162-18-6 7.392-6 18-6zm-28 25v-14h8v14zm28 11c-10.608 0-18-3.162-18-6v-4.36c3.463 2.851 10.892 4.36 18 4.36s14.537-1.509 18-4.36v4.36c0 2.838-7.392 6-18 6zm28-25v14h-8v-14z"/>
		<path d="m19 1h-11.414l-6.586 6.586v15.414h18zm-12 3.414v2.586h-2.586zm10 16.586h-14v-12h6v-6h8z"/>
		<path d="m11 5h4v2h-4z"/>
		<path d="m11 9h4v2h-4z"/>
		<path d="m5 13h10v2h-10z"/>
		<path d="m5 17h10v2h-10z"/>
		<path d="m33 5h4v2h-4z"/>
		<path d="m33 9h4v2h-4z"/>
		<path d="m27 13h10v2h-10z"/>
		<path d="m27 17h10v2h-10z"/>
		<path d="m51.586 1-6.586 6.586v15.414h18v-22zm-.586 3.414v2.586h-2.586zm10 16.586h-14v-12h6v-6h8z"/>
		<path d="m55 5h4v2h-4z"/>
		<path d="m55 9h4v2h-4z"/>
		<path d="m49 13h10v2h-10z"/>
		<path d="m49 17h10v2h-10z"/>
		<path d="m54 38h4v2h-4z"/>
		<path d="m54 42h4v2h-4z"/>
		<path d="m54 46h4v2h-4z"/>
		<path d="m6 38h4v2h-4z"/>
		<path d="m6 42h4v2h-4z"/>
		<path d="m6 46h4v2h-4z"/>
	</symbol>
	<symbol id="earthquake" viewBox="0 0 60 60">
		<title>earthquake</title>
		<title>028 - Earthquake Cover</title>
		<desc>Created with Sketch.</desc>
		<defs/>
		<g id="Page-1" stroke="none" stroke-width="1" fill="none" fill-rule="evenodd">
			<g id="028---Earthquake-Cover" fill="#000000" fill-rule="nonzero">
				<path d="M31.371,14.017 L33.33,14.417 C33.4616763,14.4436842 33.5956483,14.4574164 33.73,14.458 C34.6786583,14.4558215 35.4952703,13.7874945 35.685,12.858 L36.485,8.939 C36.7055738,7.85714006 36.0077319,6.80120096 34.926,6.58 L32.966,6.18 C32.446022,6.07382774 31.9051651,6.17867514 31.4625257,6.4714549 C31.0198862,6.76423465 30.7117614,7.22093825 30.606,7.741 L29.806,11.66 C29.6998029,12.179835 29.8045151,12.720565 30.0970897,13.163178 C30.3896644,13.605791 30.8461226,13.9140109 31.366,14.02 L31.371,14.017 Z M32.571,8.137 L34.532,8.537 L33.732,12.457 L31.773,12.057 L32.571,8.137 Z" id="Shape"/>
				<path d="M39.209,15.614 L41.169,16.014 C42.2511804,16.2345263 43.3072682,15.5361385 43.528,14.454 L44.328,10.534 C44.5485263,9.45181964 43.8501385,8.39573182 42.768,8.175 L40.809,7.775 C40.289022,7.66882774 39.7481651,7.77367514 39.3055257,8.0664549 C38.8628862,8.35923465 38.5547614,8.81593825 38.449,9.336 L37.649,13.255 C37.4284737,14.3371804 38.1268615,15.3932682 39.209,15.614 Z M40.409,9.735 L42.369,10.135 L41.569,14.055 L39.608,13.655 L40.409,9.735 Z" id="Shape"/>
				<path d="M47.049,17.212 L49.008,17.612 C49.1396686,17.6387351 49.2736456,17.6524678 49.408,17.653 C50.3566583,17.6508215 51.1732703,16.9824945 51.363,16.053 L52.163,12.133 C52.2688767,11.6131703 52.1638874,11.0725724 51.8711341,10.6301605 C51.5783808,10.1877486 51.1218509,9.87977258 50.602,9.774 L48.643,9.374 C47.5608196,9.15347366 46.5047318,9.85186154 46.284,10.934 L45.484,14.853 C45.3782217,15.3734024 45.483752,15.9145083 45.7773258,16.3570263 C46.0708997,16.7995443 46.5284119,17.1071395 47.049,17.212 Z M48.249,11.333 L50.209,11.733 L49.409,15.652 L47.449,15.252 L48.249,11.333 Z" id="Shape"/>
				<path d="M29.373,23.815 L31.332,24.215 C32.4141804,24.4355263 33.4702682,23.7371385 33.691,22.655 L34.491,18.736 C34.597222,18.216308 34.4926452,17.6757048 34.2002755,17.2331182 C33.9079058,16.7905317 33.4516931,16.4822167 32.932,16.376 L30.973,15.976 C30.453165,15.8698029 29.912435,15.9745151 29.469822,16.2670897 C29.027209,16.5596644 28.7189891,17.0161226 28.613,17.536 L27.813,21.456 C27.5924737,22.5381804 28.2908615,23.5942682 29.373,23.815 Z M30.573,17.936 L32.532,18.336 L31.732,22.256 L29.772,21.856 L30.573,17.936 Z" id="Shape"/>
				<path d="M35.652,23.054 C35.4314737,24.1361804 36.1298615,25.1922682 37.212,25.413 L39.171,25.813 C40.2531804,26.0335263 41.3092682,25.3351385 41.53,24.253 L42.33,20.334 C42.5505738,19.2521401 41.8527319,18.196201 40.771,17.975 L38.812,17.575 C38.292165,17.4688029 37.751435,17.5735151 37.308822,17.8660897 C36.866209,18.1586644 36.5579891,18.6151226 36.452,19.135 L35.652,23.054 Z M38.41,19.534 L40.37,19.934 L39.57,23.854 L37.611,23.454 L38.41,19.534 Z" id="Shape"/>
				<path d="M43.491,24.652 C43.2704737,25.7341804 43.9688615,26.7902682 45.051,27.011 L47.011,27.411 C47.1426519,27.4378446 47.2766398,27.4515784 47.411,27.452 C48.3596583,27.4498215 49.1762703,26.7814945 49.366,25.852 L50.166,21.933 C50.2721971,21.413165 50.1674849,20.872435 49.8749103,20.429822 C49.5823356,19.987209 49.1258774,19.6789891 48.606,19.573 L46.647,19.173 C45.5648196,18.9524737 44.5087318,19.6508615 44.288,20.733 L43.491,24.652 Z M46.249,21.132 L48.209,21.532 L47.409,25.452 L45.45,25.052 L46.249,21.132 Z" id="Shape"/>
				<path d="M19.536,32.015 L21.496,32.415 C21.6276763,32.4416842 21.7616483,32.4554164 21.896,32.456 C22.8446583,32.4538215 23.6612703,31.7854945 23.851,30.856 L24.651,26.937 C24.8715263,25.8548196 24.1731385,24.7987318 23.091,24.578 L21.132,24.178 C20.6121703,24.0721233 20.0715724,24.1771126 19.6291605,24.4698659 C19.1867486,24.7626192 18.8787726,25.2191491 18.773,25.739 L17.973,29.658 C17.7524262,30.7398599 18.4502681,31.795799 19.532,32.017 L19.536,32.015 Z M20.736,26.136 L22.696,26.536 L21.896,30.456 L19.936,30.056 L20.736,26.136 Z" id="Shape"/>
				<path d="M27.376,33.613 L29.335,34.013 C29.4666686,34.0397351 29.6006456,34.0534678 29.735,34.054 C30.6836583,34.0518215 31.5002703,33.3834945 31.69,32.454 L32.49,28.534 C32.7105263,27.4518196 32.0121385,26.3957318 30.93,26.175 L28.971,25.775 C28.451165,25.6688029 27.910435,25.7735151 27.467822,26.0660897 C27.025209,26.3586644 26.7169891,26.8151226 26.611,27.335 L25.811,31.255 C25.7055174,31.775254 25.8111896,32.3161008 26.1047369,32.7583911 C26.3982841,33.2006815 26.8556226,33.5081281 27.376,33.613 Z M28.576,27.734 L30.536,28.134 L29.736,32.053 L27.776,31.653 L28.576,27.734 Z" id="Shape"/>
				<path d="M38.771,27.772 L36.812,27.372 C35.7298196,27.1514737 34.6737318,27.8498615 34.453,28.932 L33.653,32.851 C33.5471233,33.3708297 33.6521126,33.9114276 33.9448659,34.3538395 C34.2376192,34.7962514 34.6941491,35.1042274 35.214,35.21 L37.173,35.61 C37.3046686,35.6367351 37.4386456,35.6504678 37.573,35.651 C38.5216583,35.6488215 39.3382703,34.9804945 39.528,34.051 L40.328,30.131 C40.5486694,29.0497804 39.8519188,27.9941383 38.771,27.772 Z M37.571,33.651 L35.611,33.251 L36.411,29.333 L38.371,29.733 L37.571,33.651 Z" id="Shape"/>
				<path d="M46.611,29.37 L44.651,28.97 C44.1311703,28.8641233 43.5905724,28.9691126 43.1481605,29.2618659 C42.7057486,29.5546192 42.3977726,30.0111491 42.292,30.531 L41.492,34.45 C41.3858277,34.969978 41.4906751,35.5108349 41.7834549,35.9534743 C42.0762346,36.3961138 42.5329383,36.7042386 43.053,36.81 L45.012,37.21 C45.1436618,37.23678 45.2776432,37.2505131 45.412,37.251 C46.3606583,37.2488215 47.1772703,36.5804945 47.367,35.651 L48.167,31.732 C48.3875263,30.6498196 47.6891385,29.5937318 46.607,29.373 L46.611,29.37 Z M45.411,35.25 L43.451,34.85 L44.251,30.93 L46.212,31.33 L45.411,35.25 Z" id="Shape"/>
				<path d="M17.539,41.814 L19.498,42.214 C19.6295665,42.2413996 19.7636108,42.2551392 19.898,42.255 C20.8481616,42.2547188 21.6669677,41.5859644 21.857,40.655 L22.657,36.734 C22.8782913,35.6524373 22.1813922,34.5961228 21.1,34.374 L19.141,33.974 C18.621165,33.8678029 18.080435,33.9725151 17.637822,34.2650897 C17.195209,34.5576644 16.8869891,35.0141226 16.781,35.534 L15.981,39.454 C15.7597565,40.5358828 16.4572012,41.5923459 17.539,41.814 Z M18.739,35.935 L20.699,36.335 L19.899,40.255 L17.94,39.855 L18.739,35.935 Z" id="Shape"/>
				<path d="M23.818,41.053 C23.5974737,42.1351804 24.2958615,43.1912682 25.378,43.412 L27.337,43.812 C27.4686686,43.8387351 27.6026456,43.8524678 27.737,43.853 C28.6856583,43.8508215 29.5022703,43.1824945 29.692,42.253 L30.492,38.334 C30.598222,37.814308 30.4936452,37.2737048 30.2012755,36.8311182 C29.9089058,36.3885317 29.4526931,36.0802167 28.933,35.974 L26.974,35.574 C26.454165,35.4678029 25.913435,35.5725151 25.470822,35.8650897 C25.028209,36.1576644 24.7199891,36.6141226 24.614,37.134 L23.818,41.053 Z M26.577,37.533 L28.536,37.933 L27.736,41.853 L25.776,41.453 L26.577,37.533 Z" id="Shape"/>
				<path d="M2,60 L58,60 C59.1045695,60 60,59.1045695 60,58 L60,34.475 C60.0000599,33.6836194 59.5645691,32.956433 58.8668835,32.5829119 C58.1691979,32.2093907 57.3225635,32.2501636 56.664,32.689 L54.543,34.1 C54.4242542,34.1787468 54.3137015,34.269199 54.213,34.37 L51.073,37.51 L56.679,10 C56.8440801,9.21865114 56.6897311,8.40373336 56.2503536,7.73687139 C55.8109761,7.07000942 55.1230872,6.60662685 54.34,6.45 L22.99,0.06 C21.3665528,-0.268832349 19.7830221,0.77761267 19.449,2.4 L19.233,3.466 L11.4,0.082 C11.1472508,-0.0269993194 10.8607492,-0.0269993194 10.608,0.082 L0.6,4.4 C0.234411257,4.55955313 -0.00138901678,4.92111355 -1.55431223e-15,5.32 L-1.55431223e-15,17.152 C0.0100799872,19.1460665 0.981106132,21.0129089 2.608,22.166 L10.42,27.727 C10.7671643,27.974178 11.2328357,27.974178 11.58,27.727 L14.743,25.475 L12.054,38.683 C11.5248742,38.243938 10.8595634,38.0024889 10.172,38 L7.724,38 C7.49032659,37.9995881 7.26406999,37.9179236 7.084,37.769 L4.921,35.969 C4.03018266,35.2168536 2.78160353,35.0556961 1.729,35.557 C0.670717801,36.0442631 -0.00525518255,37.1049425 -1.55431223e-15,38.27 L-1.55431223e-15,58 C-1.41903768e-15,59.1045695 0.8954305,60 2,60 Z M55.649,35.769 L57.773,34.353 C57.8180052,34.3238023 57.8753421,34.3214401 57.9225965,34.3468368 C57.969851,34.3722334 57.9995179,34.4213555 58,34.475 L58,58 L37.618,58 L36.447,55.658 C35.9418471,54.6390696 34.9012699,53.9960294 33.764,54 L32.7,54 C32.4732772,53.9993276 32.2534154,53.9221646 32.076,53.781 L28.876,51.219 L34.666,43.803 L40.766,41.19 C40.815067,41.1675998 40.8726385,41.1753797 40.914,41.21 L44.577,44.14 C45.4312639,44.8228225 46.6621795,44.7547971 47.436,43.982 L55.649,35.769 Z M36.074,41.024 L33.874,41.965 C33.859,41.971 33.847,41.983 33.832,41.989 L34.416,39.13 L36.369,39.53 L36.074,41.024 Z M22.733,16.338 L24.693,16.738 L23.893,20.658 L21.934,20.258 L22.733,16.338 Z M11,25.685 L3.769,20.537 C2.66753457,19.7603365 2.0087381,18.4997225 2,17.152 L2,5.977 L11,2.089 L20,5.977 L20,17.152 C19.9910962,18.4996812 19.3323369,19.760224 18.231,20.537 L15.707,22.337 C15.686,22.35 15.667,22.365 15.647,22.38 L11,25.685 Z M19.392,22.166 C19.7132595,21.9328556 20.0116042,21.6696693 20.283,21.38 C20.574641,21.8117173 21.0236671,22.1121448 21.534,22.217 L23.493,22.617 C23.6245687,22.6443855 23.7586115,22.6581249 23.893,22.658 C24.8431616,22.6577188 25.6619677,21.9889644 25.852,21.058 L26.652,17.137 C26.8689387,16.0554122 26.1714076,15.0017424 25.091,14.779 L23.132,14.379 C22.7526508,14.3013368 22.3588813,14.3360914 21.999,14.479 L21.999,10.953 C22.1799089,11.6985194 22.7781407,12.2705884 23.531,12.418 L25.49,12.818 C25.6233163,12.8449978 25.7589778,12.8587315 25.895,12.859 C26.8436583,12.8568215 27.6602703,12.1884945 27.85,11.259 L28.65,7.34 C28.8705263,6.25781964 28.1721385,5.20173182 27.09,4.981 L25.131,4.581 C24.0488196,4.36047366 22.9927318,5.05886154 22.772,6.141 L22,9.92 L22,5.32 C22.000591,4.92183898 21.7649212,4.56126415 21.4,4.402 L21.114,4.278 L21.414,2.8 C21.5277714,2.26054537 22.0541872,1.91287021 22.595,2.02 L53.942,8.411 C54.2046768,8.46195535 54.435542,8.61706787 54.582,8.841 C54.7275533,9.0616618 54.7776869,9.33180631 54.721,9.59 L48.51,40.076 L46.019,42.567 C45.9655871,42.622378 45.8786513,42.6275941 45.819,42.579 L42.156,39.648 C41.5391563,39.1516997 40.6987798,39.0363162 39.971,39.348 L38.3,40.064 L38.329,39.919 C38.5451823,38.8392253 37.8478325,37.7878363 36.769,37.567 L34.815,37.167 C34.295165,37.0608029 33.754435,37.1655151 33.311822,37.4580897 C32.869209,37.7506644 32.5609891,38.2071226 32.455,38.727 L31.455,43.627 C31.4016285,43.8869765 31.4537919,44.1575062 31.6,44.379 C31.608,44.391 31.621,44.397 31.629,44.408 L27.483,49.738 L25.783,46.338 C25.0407945,44.8608622 23.2434969,44.2625083 21.764,45 L20.723,45.521 C20.3677898,45.6985583 19.9411735,45.6491069 19.636,45.395 L14.713,41.295 L13.757,40.342 L17.129,23.779 L19.392,22.166 Z M23.931,10.458 L24.731,6.54 L26.691,6.94 L25.891,10.859 L23.931,10.458 Z M2,38.27 C1.99659865,37.8808547 2.22217831,37.5260367 2.576,37.364 C2.71319798,37.2998127 2.86253926,37.2657165 3.014,37.264 C3.24392564,37.2646838 3.46600247,37.3476966 3.64,37.498 L5.804,39.298 C6.34235301,39.748847 7.02179997,39.996562 7.724,39.998 L10.172,39.998 C10.4369991,39.9990349 10.6909537,40.1042805 10.879,40.291 L13.232,42.645 C13.295,42.706 13.359,42.766 13.432,42.824 L18.357,46.924 C19.2732577,47.6862562 20.5534195,47.834948 21.62,47.303 L22.661,46.782 C23.1561327,46.5377576 23.7555192,46.7409849 24,47.236 L25.908,51.053 C26.103466,51.4403678 26.3796659,51.7813553 26.718,52.053 L30.827,55.34 C31.3583014,55.7662547 32.0188441,55.999014 32.7,56 L33.763,56 C34.1416657,56.0002022 34.4877365,56.2142706 34.657,56.553 L35.382,58 L1.99996207,58 L2,38.27 Z" id="Shape"/>
				<path d="M11.342,45.553 L9.485,44.625 C8.52165531,44.1452988 7.37546394,44.2166021 6.479,44.812 L4.445,46.168 C4.14775503,46.3662824 3.97887175,46.7080812 4.00196686,47.0646441 C4.02506198,47.421207 4.23662678,47.7383636 4.55696686,47.8966441 C4.87730695,48.0549246 5.25775503,48.0302824 5.555,47.832 L7.589,46.476 C7.88719498,46.2777947 8.26860542,46.2541472 8.589,46.414 L10.445,47.342 C10.7847203,47.5101765 10.9992129,47.856933 10.998,48.236 L10.998,50 C10.998,50.5522847 11.4457153,51 11.998,51 C12.5502847,51 12.998,50.5522847 12.998,50 L12.998,48.236 C13.0021092,47.0992448 12.3599867,46.0588977 11.342,45.553 Z" id="Shape"/>
				<path d="M22.447,52.105 L20.869,51.316 C20.4523925,51.1085451 19.9934022,51.0003863 19.528,51 L18.605,51 C18.0130161,50.9979187 17.4337903,51.1719649 16.941,51.5 L14.441,53.164 C13.9814991,53.4705181 13.857482,54.0914991 14.1640001,54.551 C14.4705181,55.0105009 15.0914991,55.134518 15.551,54.828 L18.051,53.163 C18.2156187,53.0553679 18.408322,52.99867 18.605,53 L19.528,53 C19.6826694,52.9988736 19.8355544,53.0330761 19.975,53.1 L21.553,53.89 C21.8727527,54.0496977 22.2534141,54.0266785 22.5515927,53.8296134 C22.8497714,53.6325483 23.0201668,53.2913762 22.9985928,52.9346134 C22.9770187,52.5778505 22.7667527,52.2596977 22.447,52.1 L22.447,52.105 Z" id="Shape"/>
				<path d="M45.265,50.426 C44.9642246,49.5300282 44.2609718,48.8267754 43.365,48.526 L42.241,48.152 C41.3627824,47.8613729 40.3997243,47.9904197 39.629,48.502 L37.442,49.959 C36.9824991,50.2655181 36.858482,50.8864991 37.1650001,51.346 C37.4715181,51.8055009 38.0924991,51.929518 38.552,51.623 L40.739,50.165 C40.9953757,49.9946503 41.3159182,49.9518621 41.608,50.049 L42.732,50.424 C43.0307107,50.5232962 43.2652316,50.7574467 43.365,51.056 L44.049,53.107 C44.2232458,53.6316705 44.7898295,53.9157458 45.3145,53.7415 C45.8391705,53.5672542 46.1232458,53.0006705 45.949,52.476 L45.265,50.426 Z" id="Shape"/>
				<path d="M49,51 C49.2651948,50.9999434 49.5195073,50.8945494 49.707,50.707 L52.121,48.293 C52.3090463,48.1062805 52.5630009,48.0010349 52.828,48 L53.172,48 C53.4369991,48.0010349 53.6909537,48.1062805 53.879,48.293 L54.293,48.707 C54.6853789,49.0859722 55.3090848,49.0805524 55.6948186,48.6948186 C56.0805524,48.3090848 56.0859722,47.6853789 55.707,47.293 L55.293,46.879 C54.7319041,46.3142872 53.9680678,45.9977327 53.172,46 L52.828,46 C52.0319322,45.9977327 51.2680959,46.3142872 50.707,46.879 L48.293,49.293 C48.0070921,49.5789943 47.9215781,50.0090366 48.076322,50.3826546 C48.2310659,50.7562725 48.5956041,50.9999137 49,51 Z" id="Shape"/>
				<path d="M55,52 L53.828,52 C53.0319322,51.9977327 52.2680959,52.3142872 51.707,52.879 L50.293,54.293 C50.0330434,54.5440745 49.9287874,54.9158779 50.0203028,55.2655073 C50.1118183,55.6151368 50.3848632,55.8881817 50.7344927,55.9796972 C51.0841221,56.0712126 51.4559255,55.9669566 51.707,55.707 L53.121,54.293 C53.3090463,54.1062805 53.5630009,54.0010349 53.828,54 L55,54 C55.5522847,54 56,53.5522847 56,53 C56,52.4477153 55.5522847,52 55,52 Z" id="Shape"/>
				<circle id="Oval" cx="8" cy="53" r="1"/>
				<circle id="Oval" cx="5" cy="42" r="1"/>
				<circle id="Oval" cx="26" cy="55" r="1"/>
				<circle id="Oval" cx="41" cy="55" r="1"/>
				<circle id="Oval" cx="54" cy="42" r="1"/>
				<circle id="Oval" cx="34" cy="50" r="1"/>
				<path d="M17.625,7.862 C17.4178959,7.69616411 17.1533778,7.6194289 16.889678,7.6486872 C16.6259781,7.6779455 16.3847145,7.81079875 16.219,8.018 L8.819,17.261 L5.6,14.843 C5.1581722,14.5116292 4.53137085,14.6011722 4.2,15.043 C3.86862915,15.4848278 3.9581722,16.1116292 4.4,16.443 L8.4,19.443 C8.83204381,19.7672308 9.44348656,19.6897489 9.781,19.268 L17.781,9.268 C17.9468359,9.06089589 18.0235711,8.79637779 17.9943128,8.53267795 C17.9650545,8.26897812 17.8322013,8.0277145 17.625,7.862 Z" id="Shape"/>
			</g>
		</g>
	</symbol>
	<symbol id="database-1" viewBox="0 0 64 64">
		<title>database-1</title>
		<path d="m41 21h-18a1 1 0 0 0 -1 1v24a1 1 0 0 0 1 1h18a1 1 0 0 0 1-1v-24a1 1 0 0 0 -1-1zm-1 24h-16v-6h16zm0-8h-16v-6h16zm0-8h-16v-6h16z"/>
		<path d="m59 2h-14a3.009 3.009 0 0 0 -3 3v8a3.009 3.009 0 0 0 3 3h4v2h-2v2h10v-2h-2v-2h4a3.009 3.009 0 0 0 3-3v-8a3.009 3.009 0 0 0 -3-3zm-6 16h-2v-2h2zm7-5a1 1 0 0 1 -1 1h-14a1 1 0 0 1 -1-1v-1h16zm0-3h-16v-5a1 1 0 0 1 1-1h14a1 1 0 0 1 1 1z"/>
		<path d="m61 56v-7a3.009 3.009 0 0 0 -3-3h-12a3.009 3.009 0 0 0 -3 3v7a1 1 0 0 0 -1 1v2a3.009 3.009 0 0 0 3 3h14a3.009 3.009 0 0 0 3-3v-2a1 1 0 0 0 -1-1zm-16-7a1 1 0 0 1 1-1h12a1 1 0 0 1 1 1v7h-14zm15 10a1 1 0 0 1 -1 1h-14a1 1 0 0 1 -1-1v-1h16z"/>
		<path d="m17 48h-1v-1a3.009 3.009 0 0 0 -3-3h-8a3.009 3.009 0 0 0 -3 3v12a3.009 3.009 0 0 0 3 3h12a3.009 3.009 0 0 0 3-3v-8a3.009 3.009 0 0 0 -3-3zm-6.82 12h-5.18a1 1 0 0 1 -1-1v-12a1 1 0 0 1 1-1h8a1 1 0 0 1 1 1v1h-1a3.009 3.009 0 0 0 -3 3v8a3 3 0 0 0 .18 1zm7.82-1a1 1 0 0 1 -1 1h-4a1 1 0 0 1 -1-1v-8a1 1 0 0 1 1-1h4a1 1 0 0 1 1 1z"/>
		<path d="m23.92 8.08a4.985 4.985 0 0 0 -6.3-3.88 5.916 5.916 0 0 0 -4.62-2.2 6.024 6.024 0 0 0 -5.67 4.04 6 6 0 0 0 .67 11.96h15a5 5 0 0 0 .92-9.92zm-.92 7.92h-15a4.006 4.006 0 0 1 -.09-8.01.777.777 0 0 0 .16.02 1.009 1.009 0 0 0 1.01-.8 3.99 3.99 0 0 1 7.33-1.28.981.981 0 0 0 1.29.38 2.977 2.977 0 0 1 4.3 2.69 1 1 0 0 0 1 1 3 3 0 0 1 0 6z"/>
		<path d="m26 25h2v2h-2z"/>
		<path d="m31 25h2v2h-2z"/>
		<path d="m36 25h2v2h-2z"/>
		<path d="m26 33h2v2h-2z"/>
		<path d="m31 33h2v2h-2z"/>
		<path d="m36 33h2v2h-2z"/>
		<path d="m26 41h2v2h-2z"/>
		<path d="m31 41h2v2h-2z"/>
		<path d="m36 41h2v2h-2z"/>
		<path d="m53 29v-7h-2v6h-7v2h8a1 1 0 0 0 1-1z"/>
		<path d="m44 36h7v8h2v-9a1 1 0 0 0 -1-1h-8z"/>
		<path d="m13 20h-2v9a1 1 0 0 0 1 1h8v-2h-7z"/>
		<path d="m11 35v7h2v-6h7v-2h-8a1 1 0 0 0 -1 1z"/>
	</symbol>
	<symbol id="data-searching" viewBox="0 0 60 60">
		<title>data-searching</title>
		<path id="Shape" d="m5 50h21v2.142c-1.9503067.503567-3.2219252 2.3787867-2.9681188 4.3770005s1.9538507 3.4959828 3.9681188 3.4959828 3.7143124-1.497769 3.9681188-3.4959828-1.0178121-3.8734335-2.9681188-4.3770005v-2.142h1.792c5.0740174 2.6305912 11.1019097 2.6677821 16.208.1l6.905 8.434c1.415254 1.6491041 3.8882595 1.866592 5.5696234.489819 1.6813639-1.3767729 1.9559334-3.8440931.6183766-5.556819l-6.9-8.432c4.3188203-5.507342 5.0250944-13.0289462 1.807-19.244v-20.791c-.0033061-2.76005315-2.2399468-4.99669388-5-5h-44c-2.76005315.00330612-4.99669388 2.23994685-5 5v40c.00330612 2.7600532 2.23994685 4.9966939 5 5zm24 6c0 1.1045695-.8954305 2-2 2s-2-.8954305-2-2 .8954305-2 2-2 2 .8954305 2 2zm-24-8c-1.65685425 0-3-1.3431458-3-3v-11h18c.0062752 1.0058191.0969265 2.0093387.271 3h-6.271c-.5522847 0-1 .4477153-1 1s.4477153 1 1 1h6.721c.4064202 1.3982775.9823643 2.7415874 1.715 4h-16.436c-.55228475 0-1 .4477153-1 1s.44771525 1 1 1h17.784c.8567585 1.1094885 1.8389494 2.1161755 2.927 3zm-3-30h27.792c-1.5390924.7933287-2.9562339 1.8036483-4.208 3h-11.584c-.5522847 0-1 .4477153-1 1s.4477153 1 1 1h9.784c-.9586909 1.225341-1.7543333 2.5698992-2.367 4h-15.417c-.55228475 0-1 .4477153-1 1s.44771525 1 1 1h14.721c-.2855734.9809649-.486312 1.984658-.6 3h-18.121zm55.547 36.734c.6986156.8545586.5728534 2.1135228-.281 2.813-.8616189.6741088-2.1011692.5507266-2.813-.28l-6.688-8.167c1.1236206-.7266108 2.1632941-1.5754538 3.1-2.531zm-19.547-4.734c-8.836556 0-16-7.163444-16-16s7.163444-16 16-16 16 7.163444 16 16c-.0104696 8.8322157-7.1677843 15.9895304-16 16zm8.208-32h5.792v4.711c-1.5822988-1.9557817-3.554924-3.5602426-5.792-4.711zm-41.208-16h44c1.6568542 0 3 1.34314575 3 3v11h-50v-11c0-1.65685425 1.34314575-3 3-3z"/>
		<path id="Shape" d="m6 7h4c.5522847 0 1-.44771525 1-1s-.4477153-1-1-1h-4c-.55228475 0-1 .44771525-1 1s.44771525 1 1 1z"/>
		<path id="Shape" d="m14 7h34c.5522847 0 1-.44771525 1-1s-.4477153-1-1-1h-34c-.5522847 0-1 .44771525-1 1s.4477153 1 1 1z"/>
		<path id="Shape" d="m6 23h4c.5522847 0 1-.4477153 1-1s-.4477153-1-1-1h-4c-.55228475 0-1 .4477153-1 1s.44771525 1 1 1z"/>
		<path id="Shape" d="m6 39h4c.5522847 0 1-.4477153 1-1s-.4477153-1-1-1h-4c-.55228475 0-1 .4477153-1 1s.44771525 1 1 1z"/>
		<path id="Shape" d="m6 13h42c.5522847 0 1-.4477153 1-1s-.4477153-1-1-1h-42c-.55228475 0-1 .4477153-1 1s.44771525 1 1 1z"/>
		<path id="Shape" d="m38 20c-5.2261163.004997-10.0143611 2.9204357-12.418 7.561-.014.028-.029.054-.041.084-1.7049961 3.3092537-2.0080513 7.1650088-.841 10.7.008.021.014.042.023.062 2.2526291 6.7922689 9.2649241 10.7923995 16.2581237 9.2743701 6.9931996-1.5180295 11.7159028-8.0655023 10.9496666-15.1804258s-6.7747284-12.5067086-13.9307903-12.5009443zm0 2c5.8493057.0101149 10.8404699 4.2331153 11.819 10h-23.638c.1741763-1.0364143.4848788-2.0451888.924-3h17.895c.5522847 0 1-.4477153 1-1s-.4477153-1-1-1h-16.727c2.2481116-3.1356508 5.868723-4.996765 9.727-5zm0 24c-4.6864909-.0073573-8.9404775-2.7405291-10.895-7h17.895c.5522847 0 1-.4477153 1-1s-.4477153-1-1-1h-18.6c-.2601318-.9789677-.3945462-1.9870753-.4-3h24c-.0071648 6.624447-5.375553 11.9928352-12 12z"/>
	</symbol>
	<symbol id="data-storage" viewBox="0 0 512 512">
		<title>data-storage</title>
		<path d="M40,368H160v48H128a8.00039,8.00039,0,0,0-8,8v32a8.00039,8.00039,0,0,0,8,8H288a8.00039,8.00039,0,0,0,8-8V424a8.00039,8.00039,0,0,0-8-8H256V368h48V352H40a8.00917,8.00917,0,0,1-8-8V112H384v16h16V72a24.0275,24.0275,0,0,0-24-24H40A24.0275,24.0275,0,0,0,16,72V344A24.0275,24.0275,0,0,0,40,368Zm240,80H136V432H280Zm-80-80v16a8,8,0,0,0,16,0V368h24v48H176V368ZM40,64H376a8.00917,8.00917,0,0,1,8,8V96H32V72A8.00917,8.00917,0,0,1,40,64Z"/>
		<path d="M488,256H448V152a8.00039,8.00039,0,0,0-8-8H302.624a24,24,0,1,0,0,16H384v80h16V160h32v96H328a8.00039,8.00039,0,0,0-8,8V456a8.00039,8.00039,0,0,0,8,8H488a8.00039,8.00039,0,0,0,8-8V264A8.00039,8.00039,0,0,0,488,256ZM280,160a8,8,0,1,1,8-8A8.00917,8.00917,0,0,1,280,160Zm56,176H480v48H336Zm0-64H480v48H336ZM480,448H336V400H480Z"/>
		<path d="M120,224a8.00039,8.00039,0,0,0-8-8H91.31348l-5.65625-5.65723A8.00235,8.00235,0,0,0,80,208H56a8.00039,8.00039,0,0,0-8,8v40a8.00039,8.00039,0,0,0,8,8h56a8.00039,8.00039,0,0,0,8-8Zm-16,24H64V224H76.68652l5.65625,5.65723A8.00235,8.00235,0,0,0,88,232h16Z"/>
		<path d="M208,224a8.00039,8.00039,0,0,0-8-8H179.31348l-5.65625-5.65723A8.00235,8.00235,0,0,0,168,208H144a8.00039,8.00039,0,0,0-8,8v40a8.00039,8.00039,0,0,0,8,8h56a8.00039,8.00039,0,0,0,8-8Zm-16,24H152V224h12.68652l5.65625,5.65723A8.00235,8.00235,0,0,0,176,232h16Z"/>
		<path d="M120,152a8.00039,8.00039,0,0,0-8-8H91.31348l-5.65625-5.65723A8.00235,8.00235,0,0,0,80,136H56a8.00039,8.00039,0,0,0-8,8v40a8.00039,8.00039,0,0,0,8,8h56a8.00039,8.00039,0,0,0,8-8Zm-16,24H64V152H76.68652l5.65625,5.65723A8.00235,8.00235,0,0,0,88,160h16Z"/>
		<path d="M208,152a8.00039,8.00039,0,0,0-8-8H179.31348l-5.65625-5.65723A8.00235,8.00235,0,0,0,168,136H144a8.00039,8.00039,0,0,0-8,8v40a8.00039,8.00039,0,0,0,8,8h56a8.00039,8.00039,0,0,0,8-8Zm-16,24H152V152h12.68652l5.65625,5.65723A8.00235,8.00235,0,0,0,176,160h16Z"/>
		<path d="M112,288H91.31348l-5.65625-5.65723A8.00235,8.00235,0,0,0,80,280H56a8.00039,8.00039,0,0,0-8,8v40a8.00039,8.00039,0,0,0,8,8h56a8.00039,8.00039,0,0,0,8-8V296A8.00039,8.00039,0,0,0,112,288Zm-8,32H64V296H76.68652l5.65625,5.65723A8.00235,8.00235,0,0,0,88,304h16Z"/>
		<path d="M200,288H179.31348l-5.65625-5.65723A8.00235,8.00235,0,0,0,168,280H144a8.00039,8.00039,0,0,0-8,8v40a8.00039,8.00039,0,0,0,8,8h56a8.00039,8.00039,0,0,0,8-8V296A8.00039,8.00039,0,0,0,200,288Zm-8,32H152V296h12.68652l5.65625,5.65723A8.00235,8.00235,0,0,0,176,304h16Z"/>
		<path d="M296,224a8.00039,8.00039,0,0,0-8-8H267.31348l-5.65625-5.65723A8.00235,8.00235,0,0,0,256,208H232a8.00039,8.00039,0,0,0-8,8v40a8.00039,8.00039,0,0,0,8,8h56a8.00039,8.00039,0,0,0,8-8Zm-16,24H240V224h12.68652l5.65625,5.65723A8.00235,8.00235,0,0,0,264,232h16Z"/>
		<path d="M288,288H267.31348l-5.65625-5.65723A8.00235,8.00235,0,0,0,256,280H232a8.00039,8.00039,0,0,0-8,8v40a8.00039,8.00039,0,0,0,8,8h56a8.00039,8.00039,0,0,0,8-8V296A8.00039,8.00039,0,0,0,288,288Zm-8,32H240V296h12.68652l5.65625,5.65723A8.00235,8.00235,0,0,0,264,304h16Z"/>
		<circle cx="48" cy="80" r="8"/>
		<circle cx="72" cy="80" r="8"/>
		<circle cx="96" cy="80" r="8"/>
		<circle cx="360" cy="296" r="8"/>
		<rect x="384" y="280" width="16" height="32"/>
		<rect x="408" y="280" width="16" height="32"/>
		<circle cx="360" cy="360" r="8"/>
		<rect x="384" y="344" width="16" height="32"/>
		<rect x="408" y="344" width="16" height="32"/>
		<circle cx="360" cy="424" r="8"/>
		<rect x="384" y="408" width="16" height="32"/>
		<rect x="408" y="408" width="16" height="32"/>
	</symbol>
	<symbol id="server-2" viewBox="0 0 64 64">
		<title>server-2</title>
		<path d="m12.006 17.496c-1.654 0-3 1.346-3 3s1.346 3 3 3 3-1.346 3-3-1.346-3-3-3zm0 4c-.552 0-1-.448-1-1s.448-1 1-1 1 .448 1 1-.448 1-1 1z"/>
		<path d="m29.453 18.602c-.494-.246-1.094-.047-1.342.447l-1 2c-.247.494-.047 1.095.447 1.342.144.071.296.105.446.105.367 0 .72-.202.896-.553l1-2c.247-.494.047-1.094-.447-1.341z"/>
		<path d="m33.453 18.602c-.493-.246-1.094-.047-1.342.447l-1 2c-.247.494-.047 1.095.447 1.342.144.071.296.105.446.105.367 0 .72-.202.896-.553l1-2c.247-.494.047-1.094-.447-1.341z"/>
		<path d="m37.453 18.602c-.494-.246-1.094-.047-1.342.447l-1 2c-.247.494-.047 1.095.447 1.342.144.071.296.105.446.105.367 0 .72-.202.896-.553l1-2c.247-.494.047-1.094-.447-1.341z"/>
		<path d="m12.006 31.498c-1.654 0-3 1.346-3 3s1.346 3 3 3 3-1.346 3-3-1.346-3-3-3zm0 4c-.552 0-1-.448-1-1s.448-1 1-1 1 .448 1 1-.448 1-1 1z"/>
		<path d="m29.453 32.604c-.494-.245-1.094-.047-1.342.447l-1 2c-.247.494-.047 1.095.447 1.342.144.071.296.105.446.105.367 0 .72-.202.896-.553l1-2c.247-.494.047-1.094-.447-1.341z"/>
		<path d="m33.453 32.604c-.493-.245-1.094-.047-1.342.447l-1 2c-.247.494-.047 1.095.447 1.342.144.071.296.105.446.105.367 0 .72-.202.896-.553l1-2c.247-.494.047-1.094-.447-1.341z"/>
		<path d="m37.453 32.604c-.494-.245-1.094-.047-1.342.447l-1 2c-.247.494-.047 1.095.447 1.342.144.071.296.105.446.105.367 0 .72-.202.896-.553l1-2c.247-.494.047-1.094-.447-1.341z"/>
		<path d="m12.006 51.5c1.654 0 3-1.346 3-3s-1.346-3-3-3-3 1.346-3 3 1.346 3 3 3zm0-4c.552 0 1 .448 1 1s-.448 1-1 1-1-.448-1-1 .448-1 1-1z"/>
		<path d="m27.559 50.395c.144.071.296.105.446.105.367 0 .72-.202.896-.553l1-2c.247-.494.047-1.095-.447-1.342-.494-.245-1.094-.047-1.342.447l-1 2c-.248.495-.048 1.095.447 1.343z"/>
		<path d="m31.559 50.395c.144.071.296.105.446.105.367 0 .72-.202.896-.553l1-2c.247-.494.047-1.095-.447-1.342-.493-.245-1.094-.047-1.342.447l-1 2c-.248.495-.048 1.095.447 1.343z"/>
		<path d="m35.559 50.395c.144.071.296.105.446.105.367 0 .72-.202.896-.553l1-2c.247-.494.047-1.095-.447-1.342-.494-.245-1.094-.047-1.342.447l-1 2c-.248.495-.048 1.095.447 1.343z"/>
		<path d="m60.398 17.003c-.001-.001-.002 0-.003-.001-.061-.025-.129-.027-.194-.041-.066-.015-.133-.04-.199-.041 0 0-.001 0-.002 0-.02 0-.035.01-.055.011-.112.007-.223.023-.325.065-.048.021-.086.057-.13.083-.065.04-.134.073-.189.128-.053.052-.086.119-.126.181-.03.046-.07.081-.093.133-.001.002-.001.005-.002.007-.014.033-.012.072-.022.107-.029.094-.058.188-.058.283v.002 3.584h-2v-3.584c0-.002-.001-.004-.001-.006 0-.06-.024-.118-.036-.178-.014-.072-.018-.147-.046-.213-.001-.001 0-.003-.001-.004-.013-.03-.038-.049-.054-.077-.048-.085-.097-.169-.166-.237-.052-.051-.116-.081-.177-.119-.048-.03-.089-.068-.141-.09-.106-.044-.221-.063-.336-.067-.015-.001-.026-.009-.042-.009-.001 0-.001 0-.002 0-.072.001-.143.027-.215.044-.06.014-.124.015-.18.039-.001.001-.003 0-.004.001-2.187.955-3.6 3.114-3.6 5.5 0 2.216 1.21 4.149 3.001 5.188v19.82c0 .002-.001.003-.001.005 0 1.654 1.346 3 3 3s3-1.346 3-3c0-.002-.001-.003-.001-.005v-19.82c1.792-1.039 3.002-2.972 3.002-5.188 0-2.389-1.414-4.548-3.602-5.501zm-1.398 30.517c-.002.551-.449.998-1 .998s-.998-.447-1-.998c0 0 .001-.001.001-.002v-19.104c.325.055.658.09.999.09s.674-.035.999-.09v19.104c0 .001.001.002.001.002zm-1-21.016c-2.206 0-4-1.794-4-4 0-.994.368-1.93 1-2.646v2.646c0 .553.447 1 1 1h4c.553 0 1-.447 1-1 0-.019-.01-.034-.011-.053.001-.018.011-.034.011-.053v-2.542c.632.717 1 1.652 1 2.647 0 2.207-1.794 4.001-4 4.001z"/>
		<path d="m50.962 22.288c-.011-.048-.006-.097-.023-.144l-1.5-4c-.003-.007-.009-.011-.011-.018-.028-.071-.076-.129-.119-.19-.031-.046-.055-.099-.093-.138-.044-.045-.102-.073-.154-.109s-.099-.081-.157-.106c-.053-.022-.112-.026-.169-.04-.07-.017-.138-.041-.212-.043-.008 0-.014-.004-.021-.004h-1c-.008 0-.014.004-.021.004-.075.002-.145.026-.217.044-.055.014-.112.017-.163.039-.062.026-.11.072-.164.11-.05.035-.105.062-.148.105-.039.039-.062.093-.094.14-.043.061-.09.118-.118.188-.002.007-.008.011-.011.018l-1.5 4c-.018.047-.013.096-.023.144-.016.076-.038.15-.036.229.002.064.022.123.036.185.014.064.019.128.045.188.032.074.084.135.132.199.028.037.042.08.076.114l.019.019s.001 0 .001.001l1.687 1.688v9.588h-.999c-.553 0-1 .447-1 1v12.015c0 .002-.001.003-.001.005 0 1.654 1.346 3 3 3s3-1.346 3-3c0-.002-.001-.003-.001-.005v-12.016c0-.553-.447-1-1-1h-.999v-9.588l1.688-1.688.001-.001.019-.019c.034-.034.048-.077.076-.114.048-.064.1-.125.132-.199.026-.061.031-.124.045-.188.014-.062.034-.12.036-.185-.001-.078-.023-.152-.039-.228zm-2.961 26.23c-.551 0-.998-.447-.999-.998 0 0 0-.001 0-.002v-11.02h1.998v11.02.002c-.001.55-.448.998-.999.998zm0-25.436-.837-.837.838-2.233.837 2.232z"/>
		<path d="m41.708 12.794-5-5c-.092-.093-.203-.166-.326-.217-.122-.051-.252-.077-.382-.077h-34.999s0 0-.001 0c-.13 0-.26.026-.382.077-.113.047-.212.116-.3.199-.007.007-.017.009-.025.017-.018.018-.023.04-.039.059-.069.08-.134.165-.176.264-.052.124-.078.256-.077.389v41.995c0 .13.026.26.077.382.051.123.124.234.217.326l4.998 4.998c.092.093.203.166.326.217.122.051.252.077.382.077h35.001c.553 0 1-.447 1-1v-14-13.998-.002-13.998c0-.13-.026-.26-.077-.382-.051-.123-.124-.234-.217-.326zm-6.122-3.294 3.002 3.002h-32.172l-3.002-3.002zm-28.585 17v-11.998h33.001v11.998zm-2-12.585v11.171l-3-3v-11.171zm0 13.999v11.172l-3-3v-11.172zm-3 11 3 3v11.172l-3-3zm5-10.412h33.001v11.998h-33.001zm33.001 25.998h-33.001v-12h33.001z"/>
	</symbol>
	<symbol id="support" viewBox="0 0 512 512">
		<title>support</title>
		<path d="m215.011 380.028a8 8 0 0 0 -11.314 0l-27.68 27.68a5.049 5.049 0 0 1 -7.139 0l-64.586-64.587a5.049 5.049 0 0 1 0-7.139l27.68-27.679a8 8 0 0 0 0-11.314l-55.359-55.359a8 8 0 0 0 -10.779-.489l-26.466 22.059a64.851 64.851 0 0 0 -20.627 68.548l15.325-4.6a48.872 48.872 0 0 1 15.545-51.658l20.854-17.378 44.535 44.534-11.751 11.754-35.863-35.864-11.313 11.314 35.913 35.913a21.009 21.009 0 0 0 .993 28.672l64.585 64.586a21.048 21.048 0 0 0 29.767 0l22.023-22.021 44.537 44.537-10.683 12.82-28.2-28.193-11.312 11.316 29 28.994a48.849 48.849 0 0 1 -33.276 13.526h-.778a49.011 49.011 0 0 1 -13.787-2.066 224.895 224.895 0 0 1 -143.012-129.008l-14.773 6.148a240.721 240.721 0 0 0 118.855 124.926h-58.725a3.1 3.1 0 0 1 -2.94-2.119l-2.941-8.821a19.1 19.1 0 0 0 -36.238 0l-2.94 8.821a3.1 3.1 0 0 1 -2.941 2.119h-23.2v16h23.2a19.073 19.073 0 0 0 18.119-13.06l2.941-8.821a3.1 3.1 0 0 1 5.881 0l2.94 8.821a19.074 19.074 0 0 0 18.119 13.06l112.8-.018a64.834 64.834 0 0 0 48.805-23.35l22.054-26.466a8 8 0 0 0 -.489-10.779z"/>
		<path d="m425.706 86.294a240 240 0 0 0 -409.027 151.745l15.956 1.181a224 224 0 0 1 447.365 16.78 221.742 221.742 0 0 1 -23.167 99.32l14.335 7.105a240.172 240.172 0 0 0 -45.462-276.131z"/>
		<path d="m364.814 451.836a8 8 0 0 0 -3.869 8.93l3.981 15.922-62.378-17.013 45.366-51.036 2.906 11.626a8 8 0 0 0 12.041 4.818 199.186 199.186 0 0 0 93.139-169.083c0-110.28-89.72-200-200-200a200.073 200.073 0 0 0 -194.592 153.622l15.567 3.7a184.823 184.823 0 0 1 64.135-101.05 182 182 0 0 1 114.89-40.272c101.458 0 184 82.542 184 184a183.152 183.152 0 0 1 -76.428 149.3l-3.811-15.242a8 8 0 0 0 -13.74-3.375l-64 72a8 8 0 0 0 3.874 13.033l88 24a8 8 0 0 0 9.866-9.658l-5.827-23.308a241.3 241.3 0 0 0 83.5-82.608l-13.685-8.288a225.254 225.254 0 0 1 -82.935 79.982z"/>
		<path d="m248 88h16v16h-16z"/>
		<path d="m168 109.436h16v16h-16z" transform="matrix(.866 -.5 .5 .866 -35.138 103.733)"/>
		<path d="m109.436 168h16v16h-16z" transform="matrix(.5 -.866 .866 .5 -93.702 189.703)"/>
		<path d="m386.564 328h16v16h-16z" transform="matrix(.5 -.866 .866 .5 -93.702 509.703)"/>
		<path d="m408 248h16v16h-16z"/>
		<path d="m386.564 168h16v16h-16z" transform="matrix(.866 -.5 .5 .866 -35.139 220.861)"/>
		<path d="m328 109.436h16v16h-16z" transform="matrix(.5 -.866 .866 .5 66.298 349.703)"/>
		<path d="m187.885 209.007-7.77 13.986 52.224 29.013a23.98 23.98 0 0 0 39.254 22.216l98.36 57.679 8.094-13.8-98.447-57.734a23.9 23.9 0 0 0 -5.2-19.76l57.5-98.235-13.8-8.083-57.47 98.164a23.927 23.927 0 0 0 -20.51 5.573zm68.115 38.993a8 8 0 1 1 -8 8 8.009 8.009 0 0 1 8-8z"/>
	</symbol>
	<symbol id="server-3" viewBox="0 0 512 512">
		<title>server-3</title>
		<path d="M68.267,366.933c-14.138,0-25.6,11.462-25.6,25.6c0,14.138,11.461,25.6,25.6,25.6s25.6-11.462,25.6-25.6 C93.851,378.401,82.399,366.949,68.267,366.933z M68.267,401.067c-4.713,0-8.533-3.821-8.533-8.533 c0-4.713,3.82-8.533,8.533-8.533s8.533,3.821,8.533,8.533C76.795,397.244,72.978,401.062,68.267,401.067z"/>
		<path d="M332.8,384h128c4.713,0,8.533-3.82,8.533-8.533s-3.82-8.533-8.533-8.533h-128c-4.713,0-8.533,3.82-8.533,8.533 S328.087,384,332.8,384z"/>
		<path d="M460.8,401.067h-85.333c-4.713,0-8.533,3.82-8.533,8.533s3.82,8.533,8.533,8.533H460.8c4.713,0,8.533-3.82,8.533-8.533 S465.513,401.067,460.8,401.067z"/>
		<path d="M68.267,204.8c-14.138,0-25.6,11.462-25.6,25.6s11.461,25.6,25.6,25.6c14.132-0.015,25.585-11.468,25.6-25.6 C93.867,216.262,82.405,204.8,68.267,204.8z M68.267,238.933c-4.711-0.005-8.529-3.822-8.533-8.533 c0-4.713,3.82-8.533,8.533-8.533s8.533,3.82,8.533,8.533S72.979,238.933,68.267,238.933z"/>
		<path d="M392.533,221.867H460.8c4.713,0,8.533-3.821,8.533-8.533c0-4.713-3.82-8.533-8.533-8.533h-68.267 c-4.713,0-8.533,3.821-8.533,8.533C384,218.046,387.821,221.867,392.533,221.867z"/>
		<path d="M392.533,256H460.8c4.713,0,8.533-3.82,8.533-8.533s-3.82-8.533-8.533-8.533h-68.267c-4.713,0-8.533,3.82-8.533,8.533 S387.821,256,392.533,256z"/>
		<path d="M477.867,136.533c18.843-0.02,34.113-15.29,34.133-34.133V34.133C511.98,15.29,496.71,0.02,477.867,0H34.133 C15.29,0.02,0.02,15.29,0,34.133V102.4c0.02,18.843,15.29,34.113,34.133,34.133h8.533v25.6h-8.533 C15.29,162.153,0.02,177.424,0,196.267v68.267c0.02,18.843,15.29,34.113,34.133,34.133h8.533v25.6h-8.533 C15.29,324.287,0.02,339.557,0,358.4v68.267c0.046,15.521,10.569,29.053,25.6,32.922v22.545C25.6,498.628,38.972,512,55.467,512 c16.495,0,29.867-13.372,29.867-29.867V460.8h29.394c-2.48,6.864-3.763,14.102-3.794,21.4v21.267 c-0.001,2.263,0.898,4.434,2.499,6.035c1.6,1.6,3.771,2.499,6.035,2.499h273.067c2.263,0.001,4.434-0.898,6.035-2.499 c1.6-1.6,2.499-3.771,2.499-6.035v-19.954c-0.02-7.764-1.449-15.459-4.217-22.712h29.817v21.333 c0,16.495,13.372,29.867,29.867,29.867c16.495,0,29.867-13.372,29.867-29.867v-22.545c15.031-3.869,25.554-17.4,25.6-32.922 V358.4c-0.02-18.843-15.29-34.113-34.133-34.133h-8.533v-25.6h8.533c18.843-0.02,34.113-15.29,34.133-34.133v-68.267 c-0.02-18.843-15.29-34.113-34.133-34.133h-8.533v-25.6H477.867z M34.133,281.6c-9.421-0.011-17.056-7.646-17.067-17.067v-68.267 c0.011-9.421,7.646-17.056,17.067-17.067H156.49c-7.503,15.015-11.414,31.569-11.423,48.354V281.6H34.133z M349.867,290.133 H332.8V256h17.067l0.008,34.092L349.867,290.133z M364.559,298.667h87.707v25.6H330.138c0.94-3.046,1.779-6.167,2.471-9.346 c0.126-0.596,0.19-1.203,0.192-1.813V307.2h17.067C355.936,307.18,361.535,303.928,364.559,298.667z M349.867,227.554 l0.002,11.379H332.8v-17.288c0.198-2.762,0.211-5.534,0.039-8.297l0.003-0.015l-0.006-0.029 c-0.566-13.616-5.694-26.647-14.56-36.996C304.967,161.242,284.017,153.6,256,153.6c-28.017,0-48.967,7.642-62.275,22.708 c-10.602,12.622-15.818,28.905-14.525,45.337v17.288h-17.068l0.002-11.379c-0.288-49.899,39.868-90.616,89.767-91.021h8.2 C309.998,136.938,350.154,177.655,349.867,227.554z M317.485,136.533h134.781v25.6H344.944 C337.355,152.063,328.062,143.399,317.485,136.533z M179.2,307.2v5.908c0.001,0.609,0.065,1.217,0.192,1.813 c1.353,6.09,3.17,12.067,5.435,17.879h-12.094c-6.303-0.513-11.026-5.994-10.6-12.304V307.2H179.2z M162.133,290.133V256H179.2 v34.133H162.133z M167.056,162.133H59.733v-25.6h134.781C183.938,143.399,174.645,152.063,167.056,162.133z M145.425,324.267 H59.733v-25.6h85.333v21.829C145.109,321.759,145.228,323.018,145.425,324.267z M68.267,482.133c0,7.069-5.731,12.8-12.8,12.8 c-7.069,0-12.8-5.731-12.8-12.8V460.8h25.6V482.133z M76.8,443.733H34.133c-9.421-0.011-17.056-7.645-17.067-17.067V358.4 c0.011-9.421,7.646-17.056,17.067-17.067h119.134c5.034,5.407,12.078,8.495,19.466,8.533h19.941 c3.388,6.417,7.18,12.612,11.351,18.55v14.6c0.114,5.559-2.758,10.752-7.525,13.613l-55.342,31.958 c-6.68,3.867-12.531,9.014-17.219,15.146H76.8z M128,494.933V482.2c-0.221-15.881,8.039-30.676,21.675-38.821l55.317-31.946 c10.071-5.903,16.213-16.744,16.1-28.417v-15.133c0.014-3.205-0.987-6.332-2.859-8.933c-1.237-1.717-3.433-4.941-5.957-9.083 h18.555c2.039,9.926,10.77,17.055,20.903,17.067h15.775c11.777-0.012,21.321-9.556,21.333-21.333v-8.533 c-0.012-11.777-9.556-21.321-21.333-21.333h-15.775c-10.133,0.012-18.863,7.141-20.902,17.067h-27.499 c-3.017-6.632-5.384-13.54-7.066-20.629v-90.963c-0.001-0.354-0.024-0.707-0.067-1.058c-0.841-11.769,2.854-23.414,10.325-32.546 c9.916-11.237,26.566-16.937,49.475-16.937c22.808,0,39.408,5.65,49.35,16.788c6.164,7.239,9.815,16.28,10.406,25.769 l-0.023,0.11c0,0.093,0.05,0.171,0.053,0.263c0.179,2.181,0.183,4.372,0.013,6.554c-0.043,0.351-0.065,0.704-0.067,1.058v90.963 c-1.383,5.887-3.253,11.649-5.591,17.226l-0.073,0.168c-4.341,10.372-9.814,20.232-16.32,29.403 c-1.862,2.599-2.856,5.719-2.842,8.917v15.788c-0.17,11.911,6.212,22.954,16.617,28.754l53.517,31.496 c14.307,8.016,23.108,23.192,22.958,39.591l0.002,11.421H128z M247.467,345.6v-8.533c0.003-2.355,1.911-4.264,4.267-4.267h15.775 c2.355,0.003,4.264,1.912,4.267,4.267v8.533c-0.003,2.355-1.912,4.264-4.267,4.267h-15.775 C249.378,349.864,247.47,347.955,247.467,345.6z M469.333,482.133c0,7.069-5.731,12.8-12.8,12.8c-7.069,0-12.8-5.731-12.8-12.8 V460.8h25.6V482.133z M477.867,341.333c9.421,0.011,17.056,7.645,17.067,17.067v68.267c-0.011,9.421-7.645,17.056-17.067,17.067 h-90.768c-4.863-6.039-10.891-11.039-17.724-14.704l-53.5-31.488c-4.995-2.808-8.033-8.142-7.9-13.871v-15.254 c6.011-8.534,11.23-17.6,15.592-27.083H477.867z M477.867,179.2c9.421,0.011,17.056,7.645,17.067,17.067v68.267 c-0.011,9.421-7.645,17.056-17.067,17.067H366.933v-54.046c-0.009-16.785-3.92-33.339-11.423-48.354H477.867z M34.133,119.467 c-9.421-0.011-17.056-7.645-17.067-17.067V34.133c0.011-9.421,7.646-17.056,17.067-17.067h443.733 c9.421,0.011,17.056,7.646,17.067,17.067V102.4c-0.011,9.421-7.645,17.056-17.067,17.067H34.133z"/>
		<path d="M68.267,42.667c-14.138,0-25.6,11.461-25.6,25.6s11.461,25.6,25.6,25.6s25.6-11.462,25.6-25.6 C93.851,54.135,82.399,42.682,68.267,42.667z M68.267,76.8c-4.713,0-8.533-3.82-8.533-8.533s3.82-8.533,8.533-8.533 s8.533,3.82,8.533,8.533C76.795,72.978,72.978,76.795,68.267,76.8z"/>
		<path d="M136.533,42.667c-14.138,0-25.6,11.461-25.6,25.6s11.461,25.6,25.6,25.6s25.6-11.462,25.6-25.6 C162.118,54.135,150.665,42.682,136.533,42.667z M136.533,76.8c-4.713,0-8.533-3.82-8.533-8.533s3.82-8.533,8.533-8.533 s8.533,3.82,8.533,8.533C145.062,72.978,141.244,76.795,136.533,76.8z"/>
		<path d="M460.8,42.667H307.2c-4.713,0-8.533,3.82-8.533,8.533s3.82,8.533,8.533,8.533h153.6c4.713,0,8.533-3.82,8.533-8.533 S465.513,42.667,460.8,42.667z"/>
		<path d="M460.8,76.8H307.2c-4.713,0-8.533,3.82-8.533,8.533s3.82,8.533,8.533,8.533h153.6c4.713,0,8.533-3.821,8.533-8.533 S465.513,76.8,460.8,76.8z"/>
	</symbol>
	<symbol id="callcenter" viewBox="0 0 512 512">
		<title>callcenter</title>
		<circle cx="168" cy="184" r="16"/>
		<circle cx="264" cy="184" r="16"/>
		<path d="M504,364a20.02,20.02,0,0,0-20-20H424V328a8,8,0,0,0-8-8H384a8,8,0,0,0-8,8v16H316a20.221,20.221,0,0,0-5.25.72L280,337.63V310.35c22.44-17.33,41.17-42.15,46.48-70.35H340a28.031,28.031,0,0,0,28-28V172a28.031,28.031,0,0,0-28-28H328V120a112,112,0,0,0-224,0v24H92a28.031,28.031,0,0,0-28,28v40a28.026,28.026,0,0,0,16,25.29V272a8,8,0,0,0,8,8h34.85A139.585,139.585,0,0,0,152,310.35v27.63L73.51,360.6A88.051,88.051,0,0,0,8,445.67V496a8,8,0,0,0,8,8H484a20.02,20.02,0,0,0,20-20V460a19.907,19.907,0,0,0-4.04-12A19.907,19.907,0,0,0,504,436V412a19.907,19.907,0,0,0-4.04-12A19.907,19.907,0,0,0,504,388ZM328,160h12a12.01,12.01,0,0,1,12,12v40a12.01,12.01,0,0,1-12,12H328ZM120,120a96,96,0,0,1,192,0v15.07c-29.63-6.88-48.45-49.76-48.65-50.22a8,8,0,0,0-15.11,1.21c-.55,2.22-3.77,8.31-21.57,16.98-11.84,5.76-27.91,11.56-47.76,17.24-23.34,6.67-46.46,11.58-58.91,14.05ZM80,212V172a12.01,12.01,0,0,1,12-12h12v64H92A12.01,12.01,0,0,1,80,212Zm16,52V240h9.52a97.13,97.13,0,0,0,7.97,24Zm46.93,16H184v8a8,8,0,0,0,8,8h48a8,8,0,0,0,8-8V256a8,8,0,0,0-8-8H192a8,8,0,0,0-8,8v8H131.45C121.9,247.53,120,232.94,120,224V150.64c11.7-2.27,37.3-7.55,63.2-14.95,36.46-10.42,59.94-20.85,71.83-32.08,9.4,16.32,28.9,43.29,56.97,47.74V224c0,13.75-4.46,40.8-34.34,67.58C258.4,308.85,234.19,320,216,320s-42.4-11.15-61.66-28.42A127.429,127.429,0,0,1,142.93,280ZM200,280V264h32v16Zm64,41.1v18.78l-48,34.29-48-34.29V321.1c16.38,9.48,33.46,14.9,48,14.9S247.62,330.58,264,321.1ZM300.04,448A19.907,19.907,0,0,0,296,460v24a20.248,20.248,0,0,0,.4,4H80V456a8,8,0,0,0-16,0v32H24V445.67a72.03,72.03,0,0,1,53.67-69.62,1.8,1.8,0,0,1,.19-.05l80.64-23.24,52.85,37.75a7.99,7.99,0,0,0,9.3,0l53.07-37.9,23.22,5.35A19.776,19.776,0,0,0,296,364v24a19.907,19.907,0,0,0,4.04,12A19.907,19.907,0,0,0,296,412v24A19.907,19.907,0,0,0,300.04,448ZM392,336h16v8H392Zm96,148a4,4,0,0,1-4,4H316a4,4,0,0,1-4-4V460a4,4,0,0,1,4-4H484a4,4,0,0,1,4,4Zm0-48a4,4,0,0,1-4,4H316a4,4,0,0,1-4-4V412a4,4,0,0,1,4-4H484a4,4,0,0,1,4,4Zm0-48a4,4,0,0,1-4,4H316a4,4,0,0,1-4-4V364a4,4,0,0,1,4-4H484a4,4,0,0,1,4,4Z"/>
		<circle cx="328" cy="376" r="8"/>
		<circle cx="352" cy="376" r="8"/>
		<circle cx="376" cy="376" r="8"/>
		<path d="M424,384h48a8,8,0,0,0,0-16H424a8,8,0,0,0,0,16Z"/>
		<circle cx="328" cy="424" r="8"/>
		<circle cx="352" cy="424" r="8"/>
		<circle cx="376" cy="424" r="8"/>
		<path d="M424,432h48a8,8,0,0,0,0-16H424a8,8,0,0,0,0,16Z"/>
		<circle cx="328" cy="472" r="8"/>
		<circle cx="352" cy="472" r="8"/>
		<circle cx="376" cy="472" r="8"/>
		<path d="M472,464H424a8,8,0,0,0,0,16h48a8,8,0,0,0,0-16Z"/>
	</symbol>
	<symbol id="menu" viewBox="0 0 384.97 384.97">
		<title>menu</title>
		<path d="M12.03,120.303h360.909c6.641,0,12.03-5.39,12.03-12.03c0-6.641-5.39-12.03-12.03-12.03H12.03 c-6.641,0-12.03,5.39-12.03,12.03C0,114.913,5.39,120.303,12.03,120.303z"/>
		<path d="M372.939,180.455H12.03c-6.641,0-12.03,5.39-12.03,12.03s5.39,12.03,12.03,12.03h360.909c6.641,0,12.03-5.39,12.03-12.03 S379.58,180.455,372.939,180.455z"/>
		<path d="M372.939,264.667H132.333c-6.641,0-12.03,5.39-12.03,12.03c0,6.641,5.39,12.03,12.03,12.03h240.606 c6.641,0,12.03-5.39,12.03-12.03C384.97,270.056,379.58,264.667,372.939,264.667z"/>
	</symbol>
</svg>