<svg id="Layer_1" data-name="Layer 1" xmlns="http://www.w3.org/2000/svg" xmlns:xlink="http://www.w3.org/1999/xlink" viewBox="0 0 175 30.71"><defs><style>.cls-1{fill:none;}.cls-2{clip-path:url(#clip-path);}.cls-3{fill:#898584;}.cls-4{fill:#0382c3;}</style><clipPath id="clip-path" transform="translate(-210 -405.65)"><rect id="SVGID" class="cls-1" x="210" y="405.65" width="175" height="30.71"/></clipPath></defs><g class="cls-2"><path class="cls-3" d="M374.57,434.9c5.41,0,9.66-2.7,10.43-8.49l-.38-.39h-1.55l-.39.39c-.77,4.24-3.47,6.56-8.11,6.56-5.79,0-10-4.25-10-12s4.25-12,10-12c4.64,0,7.34,2.31,8.11,6.17l.39.39h1.55l.38-.39c-.77-5.4-5-8.11-10.43-8.11-6.56,0-12.36,4.64-12.36,13.91s5.8,13.9,12.36,13.9m-17-.77V407.87l-.38-.39h-2.7l-.39.39-10,23.56h-.39l-10-23.56-.39-.39h-2.7l-.39.39v26.26l.39.39h1.54l.39-.39v-22.4h.39l9.65,22.4.39.39h1.93l.39-.39,9.65-22.4h.39v22.4l.39.39h1.54Zm-32.44,0V433l-.39-.38H310.45l-.38-.39v-10l.38-.39H324l.39-.38v-1.16l-.39-.39H310.45l-.38-.39V409.8l.38-.39h14.29l.39-.38v-1.16l-.39-.39h-16.6l-.39.39v26.26l.39.39h16.6Z" transform="translate(-210 -405.65)"/><path class="cls-4" d="M301.61,429.15v5.37H284.17v-27h6.14v21.67Zm-17.44-21.67h6.14m-69.35,27a13.53,13.53,0,0,0,13.09-10.12l15.3,12,15.28-11.94v10.11h17.44v-5.37h-11.3V407.48h-6.14v10.11L250,429.05l-3.28-2.57,7-5.48,7.64-6L257,411.62l-14.67,11.46-3.27-2.57,14.66-11.45-4.36-3.41-15.3,12A13.53,13.53,0,0,0,221,407.48H210v27Zm-4.82-5.37V412.86H221c4.08,0,7.38,3.64,7.38,8.14s-3.3,8.15-7.38,8.15Z" transform="translate(-210 -405.65)"/></g></svg>