<svg aria-hidden="true" style="position: absolute; width: 0; height: 0; overflow: hidden;" version="1.1" xmlns="http://www.w3.org/2000/svg" xmlns:xlink="http://www.w3.org/1999/xlink">
<defs>
<symbol id="icon-firewall" viewBox="0 0 16 16">
<path d="M12.958 2.688h0.237c0.164 0 0.296-0.105 0.296-0.234s-0.133-0.234-0.296-0.234h-0.237c-0.164 0-0.296 0.105-0.296 0.234s0.133 0.234 0.296 0.234z"></path>
<path d="M9.834 2.688h0.426c0.164 0 0.296-0.105 0.296-0.234s-0.133-0.234-0.296-0.234h-0.426c-0.164 0-0.296 0.105-0.296 0.234s0.133 0.234 0.296 0.234z"></path>
<path d="M11.396 2.688h0.426c0.164 0 0.296-0.105 0.296-0.234s-0.133-0.234-0.296-0.234h-0.426c-0.164 0-0.296 0.105-0.296 0.234s0.133 0.234 0.296 0.234z"></path>
<path d="M8.461 2.688h0.237c0.164 0 0.296-0.105 0.296-0.234s-0.133-0.234-0.296-0.234h-0.237c-0.164 0-0.296 0.105-0.296 0.234s0.133 0.234 0.296 0.234z"></path>
<path d="M8.461 1.578h0.237c0.164 0 0.296-0.105 0.296-0.234s-0.133-0.234-0.296-0.234h-0.237c-0.164 0-0.296 0.105-0.296 0.234s0.133 0.234 0.296 0.234z"></path>
<path d="M11.396 1.578h0.426c0.164 0 0.296-0.105 0.296-0.234s-0.133-0.234-0.296-0.234h-0.426c-0.164 0-0.296 0.105-0.296 0.234s0.133 0.234 0.296 0.234z"></path>
<path d="M9.834 1.578h0.426c0.164 0 0.296-0.105 0.296-0.234s-0.133-0.234-0.296-0.234h-0.426c-0.164 0-0.296 0.105-0.296 0.234s0.133 0.234 0.296 0.234z"></path>
<path d="M12.958 1.578h0.237c0.164 0 0.296-0.105 0.296-0.234s-0.133-0.234-0.296-0.234h-0.237c-0.164 0-0.296 0.105-0.296 0.234s0.133 0.234 0.296 0.234z"></path>
<path d="M4.554 2.453v-1.109c0-0.129-0.133-0.234-0.296-0.234h-1.401c-0.163 0-0.296 0.105-0.296 0.234v1.109c0 0.129 0.133 0.234 0.296 0.234h1.401c0.163 0 0.296-0.105 0.296-0.234zM3.962 2.219h-0.809v-0.641h0.809v0.641z"></path>
<path d="M5.659 2.688h1.401c0.163 0 0.296-0.105 0.296-0.234v-1.109c0-0.129-0.133-0.234-0.296-0.234h-1.401c-0.163 0-0.296 0.105-0.296 0.234v1.109c0 0.129 0.133 0.234 0.296 0.234zM5.955 1.578h0.809v0.641h-0.809v-0.641z"></path>
<path d="M12.958 7.125h0.237c0.164 0 0.296-0.105 0.296-0.234s-0.133-0.234-0.296-0.234h-0.237c-0.164 0-0.296 0.105-0.296 0.234s0.133 0.234 0.296 0.234z"></path>
<path d="M10.26 6.656h-0.426c-0.164 0-0.296 0.105-0.296 0.234s0.133 0.234 0.296 0.234h0.426c0.164 0 0.296-0.105 0.296-0.234s-0.133-0.234-0.296-0.234z"></path>
<path d="M12.118 6.891c0-0.129-0.133-0.234-0.296-0.234h-0.426c-0.164 0-0.296 0.105-0.296 0.234s0.133 0.234 0.296 0.234h0.426c0.164 0 0.296-0.105 0.296-0.234z"></path>
<path d="M8.698 6.656h-0.237c-0.164 0-0.296 0.105-0.296 0.234s0.133 0.234 0.296 0.234h0.237c0.164 0 0.296-0.105 0.296-0.234s-0.133-0.234-0.296-0.234z"></path>
<path d="M8.698 5.547h-0.237c-0.164 0-0.296 0.105-0.296 0.234s0.133 0.234 0.296 0.234h0.237c0.164 0 0.296-0.105 0.296-0.234s-0.133-0.234-0.296-0.234z"></path>
<path d="M10.26 5.547h-0.426c-0.164 0-0.296 0.105-0.296 0.234s0.133 0.234 0.296 0.234h0.426c0.164 0 0.296-0.105 0.296-0.234s-0.133-0.234-0.296-0.234z"></path>
<path d="M11.396 6.016h0.426c0.164 0 0.296-0.105 0.296-0.234s-0.133-0.234-0.296-0.234h-0.426c-0.164 0-0.296 0.105-0.296 0.234s0.133 0.234 0.296 0.234z"></path>
<path d="M12.958 6.016h0.237c0.164 0 0.296-0.105 0.296-0.234s-0.133-0.234-0.296-0.234h-0.237c-0.164 0-0.296 0.105-0.296 0.234s0.133 0.234 0.296 0.234z"></path>
<path d="M4.258 5.547h-1.401c-0.163 0-0.296 0.105-0.296 0.234v1.109c0 0.129 0.133 0.234 0.296 0.234h1.401c0.163 0 0.296-0.105 0.296-0.234v-1.109c0-0.129-0.133-0.234-0.296-0.234zM3.962 6.656h-0.809v-0.641h0.809v0.641z"></path>
<path d="M7.060 5.547h-1.401c-0.163 0-0.296 0.105-0.296 0.234v1.109c0 0.129 0.133 0.234 0.296 0.234h1.401c0.163 0 0.296-0.105 0.296-0.234v-1.109c0-0.129-0.133-0.234-0.296-0.234zM6.764 6.656h-0.809v-0.641h0.809v0.641z"></path>
<path d="M15.25 8.875h-1.19v-0.641h0.098c0.405 0 0.734-0.261 0.734-0.581v-2.635c0-0.32-0.329-0.581-0.734-0.581h-0.098v-0.641h0.098c0.405 0 0.734-0.261 0.734-0.581v-2.635c0-0.32-0.329-0.581-0.734-0.581h-12.265c-0.405 0-0.734 0.261-0.734 0.581v2.635c0 0.32 0.329 0.581 0.734 0.581h0.098v0.641h-0.098c-0.405 0-0.734 0.261-0.734 0.581v2.635c0 0.32 0.329 0.581 0.734 0.581h0.098v0.641h-1.19c-0.163 0-0.296 0.105-0.296 0.234v6.656c0 0.129 0.133 0.234 0.296 0.234h14.449c0.164 0 0.296-0.105 0.296-0.234v-6.656c0-0.129-0.133-0.234-0.296-0.234zM10.73 13.867v-1.195h4.224v1.195h-4.224zM5.914 13.867v-1.195h4.224v1.195h-4.224zM1.097 13.867v-1.195h4.224v1.195h-4.224zM5.618 11.008c0.163 0 0.296-0.105 0.296-0.234v-1.43h4.224v1.195h-0.296c-0.164 0-0.296 0.105-0.296 0.234s0.132 0.234 0.296 0.234h2.704v1.195h-4.224v-1.195h0.139c0.164 0 0.296-0.105 0.296-0.234s-0.132-0.234-0.296-0.234h-0.435c-0.163 0-0.296 0.105-0.296 0.234v1.43h-4.224v-1.195h2.112zM14.954 12.203h-1.816v-1.195h1.816v1.195zM2.914 12.203h-1.816v-1.195h1.816v1.195zM14.954 10.539h-4.224v-1.195h4.224v1.195zM2.583 3.797h0.283c0.163 0 0.296-0.105 0.296-0.234s-0.133-0.234-0.296-0.234h-0.973c-0.078 0-0.142-0.050-0.142-0.112v-2.635c0-0.062 0.064-0.112 0.142-0.112h12.265c0.078 0 0.142 0.050 0.142 0.112v2.635c0 0.062-0.064 0.112-0.142 0.112h-9.911c-0.163 0-0.296 0.105-0.296 0.234s0.133 0.234 0.296 0.234h9.221v0.641h-10.885v-0.641zM2.583 8.234h8.976c0.164 0 0.296-0.105 0.296-0.234s-0.133-0.234-0.296-0.234h-9.666c-0.078 0-0.142-0.050-0.142-0.112v-2.635c0-0.062 0.064-0.112 0.142-0.112h12.265c0.078 0 0.142 0.050 0.142 0.112v2.635c0 0.062-0.064 0.112-0.142 0.112h-1.218c-0.164 0-0.296 0.105-0.296 0.234s0.133 0.234 0.296 0.234h0.527v0.641h-10.885v-0.641zM1.097 9.344h4.224v1.195h-4.224v-1.195zM1.097 14.336h1.816v1.195h-1.816v-1.195zM3.506 14.336h4.224v1.195h-4.224v-1.195zM8.322 14.336h4.224v1.195h-4.224v-1.195zM14.954 15.531h-1.816v-1.195h1.816v1.195z"></path>
</symbol>
<symbol id="icon-network" viewBox="0 0 16 16">
<path d="M16 10.71c-0-0.171-0.068-0.335-0.189-0.456s-0.285-0.189-0.456-0.189h-1.677v-0.516c0-0.068-0.027-0.134-0.076-0.182s-0.114-0.076-0.182-0.076h-0.258v-1.29c0-0.068-0.027-0.134-0.076-0.182s-0.114-0.076-0.182-0.076h-4.645v-2.581h2.323c0.392-0 0.77-0.149 1.057-0.417s0.461-0.635 0.487-1.026c0.027-0.392-0.097-0.779-0.344-1.083s-0.602-0.503-0.991-0.556c-0.116-0.586-0.432-1.114-0.893-1.493s-1.041-0.586-1.638-0.586c-0.412 0.001-0.818 0.101-1.184 0.29s-0.682 0.462-0.921 0.798c-0.284-0.067-0.578-0.074-0.865-0.019s-0.558 0.169-0.797 0.337c-0.239 0.167-0.44 0.383-0.589 0.633s-0.244 0.529-0.278 0.819c-0.034 0.29-0.006 0.583 0.082 0.861s0.233 0.534 0.427 0.752c0.194 0.218 0.432 0.392 0.698 0.511s0.554 0.181 0.846 0.18h2.065v2.581h-4.645c-0.068 0-0.134 0.027-0.182 0.076s-0.076 0.114-0.076 0.182v1.29h-0.258c-0.068 0-0.134 0.027-0.182 0.076s-0.076 0.114-0.076 0.182v0.516h-1.677c-0.171 0-0.335 0.068-0.456 0.189s-0.189 0.285-0.189 0.456v0.774c0 0.14 0.046 0.276 0.13 0.387-0.084 0.111-0.13 0.247-0.13 0.387v0.774c0 0.14 0.046 0.276 0.13 0.387-0.084 0.111-0.13 0.247-0.13 0.387v0.774c0 0.171 0.068 0.335 0.189 0.456s0.285 0.189 0.456 0.189h1.677v0.516c0 0.068 0.027 0.134 0.076 0.182s0.114 0.076 0.182 0.076h1.032c0.068 0 0.134-0.027 0.182-0.076s0.076-0.114 0.076-0.182v-0.516h1.677c0.171-0 0.335-0.068 0.456-0.189s0.189-0.285 0.189-0.456v-0.774c-0-0.14-0.046-0.276-0.13-0.387 0.084-0.111 0.13-0.247 0.13-0.387v-0.774c-0-0.14-0.046-0.276-0.13-0.387 0.084-0.111 0.13-0.247 0.13-0.387v-0.774c-0-0.171-0.068-0.335-0.189-0.456s-0.285-0.189-0.456-0.189h-1.677v-0.516c0-0.068-0.027-0.134-0.076-0.182s-0.114-0.076-0.182-0.076h-0.258v-1.032h9.29v1.032h-0.258c-0.068 0-0.134 0.027-0.182 0.076s-0.076 0.114-0.076 0.182v0.516h-1.677c-0.171 0-0.335 0.068-0.456 0.189s-0.189 0.285-0.189 0.456v0.774c0 0.14 0.046 0.276 0.13 0.387-0.084 0.111-0.13 0.247-0.13 0.387v0.774c0 0.14 0.046 0.276 0.13 0.387-0.084 0.111-0.13 0.247-0.13 0.387v0.774c0 0.171 0.068 0.335 0.189 0.456s0.285 0.189 0.456 0.189h1.677v0.516c0 0.068 0.027 0.134 0.076 0.182s0.114 0.076 0.182 0.076h1.032c0.068 0 0.134-0.027 0.182-0.076s0.076-0.114 0.076-0.182v-0.516h1.677c0.171-0 0.335-0.068 0.456-0.189s0.189-0.285 0.189-0.456v-0.774c-0-0.14-0.046-0.276-0.13-0.387 0.084-0.111 0.13-0.247 0.13-0.387v-0.774c-0-0.14-0.046-0.276-0.13-0.387 0.084-0.111 0.13-0.247 0.13-0.387v-0.774zM2.839 9.806h0.516v0.258h-0.516v-0.258zM3.355 15.484h-0.516v-0.258h0.516v0.258zM5.677 14.581c0 0.034-0.014 0.067-0.038 0.091s-0.057 0.038-0.091 0.038h-4.903c-0.034 0-0.067-0.014-0.091-0.038s-0.038-0.057-0.038-0.091v-0.774c0-0.034 0.014-0.067 0.038-0.091s0.057-0.038 0.091-0.038h4.903c0.034 0 0.067 0.014 0.091 0.038s0.038 0.057 0.038 0.091v0.774zM5.677 13.032c0 0.034-0.014 0.067-0.038 0.091s-0.057 0.038-0.091 0.038h-4.903c-0.034 0-0.067-0.014-0.091-0.038s-0.038-0.057-0.038-0.091v-0.774c0-0.034 0.014-0.067 0.038-0.091s0.057-0.038 0.091-0.038h4.903c0.034 0 0.067 0.014 0.091 0.038s0.038 0.057 0.038 0.091v0.774zM5.548 10.581c0.034 0 0.067 0.014 0.091 0.038s0.038 0.057 0.038 0.091v0.774c0 0.034-0.014 0.067-0.038 0.091s-0.057 0.038-0.091 0.038h-4.903c-0.034 0-0.067-0.014-0.091-0.038s-0.038-0.057-0.038-0.091v-0.774c0-0.034 0.014-0.067 0.038-0.091s0.057-0.038 0.091-0.038h4.903zM5.677 4.645c-0.225-0-0.447-0.049-0.651-0.144s-0.385-0.233-0.53-0.404c-0.145-0.172-0.251-0.373-0.311-0.59s-0.071-0.444-0.034-0.666 0.122-0.433 0.249-0.618c0.127-0.186 0.293-0.341 0.486-0.457s0.409-0.187 0.633-0.21c0.224-0.023 0.45 0.003 0.662 0.076 0.056 0.019 0.117 0.018 0.172-0.002s0.102-0.059 0.133-0.11c0.222-0.371 0.554-0.663 0.951-0.835s0.837-0.215 1.259-0.124c0.422 0.092 0.805 0.314 1.095 0.635s0.471 0.725 0.519 1.154c0.007 0.063 0.037 0.122 0.084 0.164s0.109 0.066 0.172 0.066h0.014c0.274 0 0.536 0.109 0.73 0.302s0.302 0.456 0.302 0.73c0 0.274-0.109 0.536-0.302 0.73s-0.456 0.302-0.73 0.302h-4.903zM12.645 9.806h0.516v0.258h-0.516v-0.258zM13.161 15.484h-0.516v-0.258h0.516v0.258zM15.484 14.581c0 0.034-0.014 0.067-0.038 0.091s-0.057 0.038-0.091 0.038h-4.903c-0.034 0-0.067-0.014-0.091-0.038s-0.038-0.057-0.038-0.091v-0.774c0-0.034 0.014-0.067 0.038-0.091s0.057-0.038 0.091-0.038h4.903c0.034 0 0.067 0.014 0.091 0.038s0.038 0.057 0.038 0.091v0.774zM15.484 13.032c0 0.034-0.014 0.067-0.038 0.091s-0.057 0.038-0.091 0.038h-4.903c-0.034 0-0.067-0.014-0.091-0.038s-0.038-0.057-0.038-0.091v-0.774c0-0.034 0.014-0.067 0.038-0.091s0.057-0.038 0.091-0.038h4.903c0.034 0 0.067 0.014 0.091 0.038s0.038 0.057 0.038 0.091v0.774zM15.484 11.484c0 0.034-0.014 0.067-0.038 0.091s-0.057 0.038-0.091 0.038h-4.903c-0.034 0-0.067-0.014-0.091-0.038s-0.038-0.057-0.038-0.091v-0.774c0-0.034 0.014-0.067 0.038-0.091s0.057-0.038 0.091-0.038h4.903c0.034 0 0.067 0.014 0.091 0.038s0.038 0.057 0.038 0.091v0.774z"></path>
<path d="M10.839 11.355c0.143 0 0.258-0.116 0.258-0.258s-0.116-0.258-0.258-0.258c-0.143 0-0.258 0.116-0.258 0.258s0.116 0.258 0.258 0.258z"></path>
<path d="M11.613 11.355c0.143 0 0.258-0.116 0.258-0.258s-0.116-0.258-0.258-0.258c-0.143 0-0.258 0.116-0.258 0.258s0.116 0.258 0.258 0.258z"></path>
<path d="M13.677 11.355h1.29c0.068 0 0.134-0.027 0.182-0.076s0.076-0.114 0.076-0.182c0-0.068-0.027-0.134-0.076-0.182s-0.114-0.076-0.182-0.076h-1.29c-0.068 0-0.134 0.027-0.182 0.076s-0.076 0.114-0.076 0.182 0.027 0.134 0.076 0.182c0.048 0.048 0.114 0.076 0.182 0.076z"></path>
<path d="M10.839 12.903c0.143 0 0.258-0.116 0.258-0.258s-0.116-0.258-0.258-0.258c-0.143 0-0.258 0.116-0.258 0.258s0.116 0.258 0.258 0.258z"></path>
<path d="M11.613 12.903c0.143 0 0.258-0.116 0.258-0.258s-0.116-0.258-0.258-0.258c-0.143 0-0.258 0.116-0.258 0.258s0.116 0.258 0.258 0.258z"></path>
<path d="M13.677 12.903h1.29c0.068 0 0.134-0.027 0.182-0.076s0.076-0.114 0.076-0.182c0-0.068-0.027-0.134-0.076-0.182s-0.114-0.076-0.182-0.076h-1.29c-0.068 0-0.134 0.027-0.182 0.076s-0.076 0.114-0.076 0.182 0.027 0.134 0.076 0.182c0.048 0.048 0.114 0.076 0.182 0.076z"></path>
<path d="M10.839 14.452c0.143 0 0.258-0.116 0.258-0.258s-0.116-0.258-0.258-0.258c-0.143 0-0.258 0.116-0.258 0.258s0.116 0.258 0.258 0.258z"></path>
<path d="M11.613 14.452c0.143 0 0.258-0.116 0.258-0.258s-0.116-0.258-0.258-0.258c-0.143 0-0.258 0.116-0.258 0.258s0.116 0.258 0.258 0.258z"></path>
<path d="M14.968 13.935h-1.29c-0.068 0-0.134 0.027-0.182 0.076s-0.076 0.114-0.076 0.182 0.027 0.134 0.076 0.182c0.048 0.048 0.114 0.076 0.182 0.076h1.29c0.068 0 0.134-0.027 0.182-0.076s0.076-0.114 0.076-0.182-0.027-0.134-0.076-0.182c-0.048-0.048-0.114-0.076-0.182-0.076z"></path>
<path d="M1.032 11.355c0.143 0 0.258-0.116 0.258-0.258s-0.116-0.258-0.258-0.258-0.258 0.116-0.258 0.258c0 0.143 0.116 0.258 0.258 0.258z"></path>
<path d="M1.806 11.355c0.143 0 0.258-0.116 0.258-0.258s-0.116-0.258-0.258-0.258-0.258 0.116-0.258 0.258c0 0.143 0.116 0.258 0.258 0.258z"></path>
<path d="M3.871 11.355h1.29c0.068 0 0.134-0.027 0.182-0.076s0.076-0.114 0.076-0.182c0-0.068-0.027-0.134-0.076-0.182s-0.114-0.076-0.182-0.076h-1.29c-0.068 0-0.134 0.027-0.182 0.076s-0.076 0.114-0.076 0.182 0.027 0.134 0.076 0.182c0.048 0.048 0.114 0.076 0.182 0.076z"></path>
<path d="M1.032 12.903c0.143 0 0.258-0.116 0.258-0.258s-0.116-0.258-0.258-0.258-0.258 0.116-0.258 0.258c0 0.143 0.116 0.258 0.258 0.258z"></path>
<path d="M1.806 12.903c0.143 0 0.258-0.116 0.258-0.258s-0.116-0.258-0.258-0.258-0.258 0.116-0.258 0.258c0 0.143 0.116 0.258 0.258 0.258z"></path>
<path d="M3.871 12.903h1.29c0.068 0 0.134-0.027 0.182-0.076s0.076-0.114 0.076-0.182c0-0.068-0.027-0.134-0.076-0.182s-0.114-0.076-0.182-0.076h-1.29c-0.068 0-0.134 0.027-0.182 0.076s-0.076 0.114-0.076 0.182 0.027 0.134 0.076 0.182c0.048 0.048 0.114 0.076 0.182 0.076z"></path>
<path d="M1.032 14.452c0.143 0 0.258-0.116 0.258-0.258s-0.116-0.258-0.258-0.258c-0.143 0-0.258 0.116-0.258 0.258s0.116 0.258 0.258 0.258z"></path>
<path d="M1.806 14.452c0.143 0 0.258-0.116 0.258-0.258s-0.116-0.258-0.258-0.258c-0.143 0-0.258 0.116-0.258 0.258s0.116 0.258 0.258 0.258z"></path>
<path d="M5.161 13.935h-1.29c-0.068 0-0.134 0.027-0.182 0.076s-0.076 0.114-0.076 0.182 0.027 0.134 0.076 0.182c0.048 0.048 0.114 0.076 0.182 0.076h1.29c0.068 0 0.134-0.027 0.182-0.076s0.076-0.114 0.076-0.182-0.027-0.134-0.076-0.182c-0.048-0.048-0.114-0.076-0.182-0.076z"></path>
</symbol>
<symbol id="icon-sanallastirma" viewBox="0 0 16 16">
<path d="M12.699 3.051c-0.19 0-0.379 0.017-0.565 0.050-0.76-2.075-2.935-3.369-5.121-3.054-1.871 0.27-3.438 1.671-3.91 3.502l0.455 0.117c0.491-1.907 2.287-3.252 4.254-3.196 1.945 0.055 3.438 1.381 4.009 3.185 0.921-0.229 1.846-0.136 2.602 0.478 0.718 0.584 1.103 1.514 0.996 2.435-0.112 0.962-0.737 1.8-1.616 2.198-0.533 0.241-1.045 0.21-1.616 0.21v0.47c0.573 0 1.092 0.027 1.639-0.181 1.11-0.421 1.781-1.263 2.010-2.334 0.419-1.967-1.125-3.882-3.138-3.882z"></path>
<path d="M2.249 8.95c-1.469-0.311-2.23-2.033-1.471-3.329 0.784-1.337 2.598-1.44 3.622-0.337l0.342-0.323c-0.401-0.432-0.898-0.75-1.481-0.868l-0 0.001c-1.993-0.368-3.768 1.522-3.127 3.493 0.294 0.903 1.083 1.645 2.025 1.824 0.506 0.097 1.050 0.053 1.563 0.053v-0.47c-0.487 0-0.989 0.032-1.472-0.044z"></path>
<path d="M5.132 11.777h0.47v0.47h-0.47v-0.47z"></path>
<path d="M6.073 11.777h0.47v0.47h-0.47v-0.47z"></path>
<path d="M8.895 11.777h1.881v0.47h-1.881v-0.47z"></path>
<path d="M7.735 13.648h0.47v0.47h-0.47v-0.47z"></path>
<path d="M5.132 14.589h0.47v0.47h-0.47v-0.47z"></path>
<path d="M6.073 14.589h0.47v0.47h-0.47v-0.47z"></path>
<path d="M8.895 14.589h1.881v0.47h-1.881v-0.47z"></path>
<path d="M7.735 9.906h0.47v0.47h-0.47v-0.47z"></path>
<path d="M5.132 8.966h0.47v0.47h-0.47v-0.47z"></path>
<path d="M6.073 8.966h0.47v0.47h-0.47v-0.47z"></path>
<path d="M8.895 8.966h1.881v0.47h-1.881v-0.47z"></path>
<path d="M9.601 6.145h0.731c0.101 0.269 0.361 0.462 0.665 0.462 0.391 0 0.709-0.318 0.709-0.709s-0.318-0.709-0.709-0.709c-0.313 0-0.579 0.204-0.673 0.486h-1.193v2.351h-0.47v-3.461l0.515-0.515c0.098 0.051 0.209 0.080 0.327 0.080 0.391 0 0.709-0.318 0.709-0.709s-0.318-0.709-0.709-0.709c-0.391 0-0.709 0.318-0.709 0.709 0 0.102 0.022 0.199 0.061 0.286l-0.663 0.663v3.655h-0.47v-5.014l-0.626-0.626c0.029-0.078 0.046-0.162 0.046-0.25 0-0.391-0.318-0.709-0.709-0.709s-0.709 0.318-0.709 0.709c0 0.391 0.318 0.709 0.709 0.709 0.131 0 0.254-0.036 0.359-0.098l0.46 0.46v4.819h-0.47v-1.901h-1.195c-0.101-0.269-0.361-0.461-0.664-0.461-0.391 0-0.709 0.318-0.709 0.709s0.318 0.709 0.709 0.709c0.313 0 0.58-0.204 0.673-0.487h0.716v1.431h-2.111v2.352h0.481v0.46h-0.481v2.352h0.481v0.46h-0.481v2.352h7.515v-2.352h-0.449v-0.46h0.449v-2.352h-0.449v-0.46h0.449v-2.352h-2.111v-1.88zM10.996 5.659c0.132 0 0.239 0.107 0.239 0.239s-0.107 0.239-0.239 0.239c-0.132 0-0.239-0.107-0.239-0.239s0.107-0.239 0.239-0.239zM9.502 3.181c0.132 0 0.239 0.107 0.239 0.239s-0.107 0.239-0.239 0.239c-0.132 0-0.239-0.107-0.239-0.239s0.107-0.239 0.239-0.239zM6.191 2.135c0-0.132 0.107-0.239 0.239-0.239s0.239 0.107 0.239 0.239c0 0.132-0.107 0.239-0.239 0.239s-0.239-0.107-0.239-0.239zM4.919 6.611c-0.132 0-0.239-0.107-0.239-0.239s0.107-0.239 0.239-0.239 0.239 0.107 0.239 0.239c0 0.132-0.107 0.239-0.239 0.239zM4.667 11.307h6.575v1.411h-6.575v-1.411zM10.792 13.648h-2.117v0.47h2.566v1.411h-6.575v-1.411h2.597v-0.47h-2.116v-0.46h5.644v0.46zM11.242 9.906h-2.566v0.47h2.117v0.46h-5.644v-0.46h2.116v-0.47h-2.597v-1.411h6.575v1.411z"></path>
</symbol>
<symbol id="icon-sistem" viewBox="0 0 16 16">
<path d="M7.147 5.793c0-0.219 0.090-0.43 0.251-0.585s0.379-0.242 0.606-0.242c0.227 0 0.445 0.087 0.606 0.242s0.251 0.366 0.251 0.585v0.276h0.571v-0.276c0-0.366-0.15-0.717-0.418-0.975s-0.631-0.404-1.010-0.404c-0.379 0-0.742 0.145-1.010 0.404s-0.418 0.61-0.418 0.975v0.276h0.571v-0.276z"></path>
<path d="M4.291 11.586h-3.998c-0.076 0-0.148 0.029-0.202 0.081s-0.084 0.122-0.084 0.195v1.379h4.569v-1.379c0-0.073-0.030-0.143-0.084-0.195s-0.126-0.081-0.202-0.081z"></path>
<path d="M10.003 6.621h-3.998c-0.076 0-0.148 0.029-0.202 0.081s-0.084 0.122-0.084 0.195v1.379h4.569v-1.379c0-0.073-0.030-0.143-0.084-0.195s-0.126-0.081-0.202-0.081zM6.861 7.724h-0.571v-0.552h0.571v0.552zM8.289 7.724h-0.571v-0.552h0.571v0.552zM9.717 7.724h-0.571v-0.552h0.571v0.552z"></path>
<path d="M6.29 2.483c-0.001-0.219-0.091-0.429-0.252-0.584s-0.378-0.242-0.605-0.243c-0.076 0-0.148-0.029-0.202-0.081s-0.084-0.122-0.084-0.195c0.001-0.14-0.035-0.279-0.105-0.402s-0.171-0.227-0.294-0.301c-0.123-0.074-0.264-0.117-0.409-0.124s-0.29 0.022-0.42 0.085c-0.064 0.031-0.137 0.038-0.206 0.018s-0.127-0.063-0.163-0.123c-0.119-0.19-0.294-0.341-0.503-0.433s-0.442-0.121-0.669-0.083-0.436 0.142-0.6 0.297c-0.164 0.155-0.276 0.355-0.321 0.572-0.013 0.062-0.048 0.118-0.099 0.159s-0.115 0.062-0.181 0.062c-0.014 0-0.029-0.001-0.043-0.003-0.303 0.002-0.593 0.12-0.806 0.328s-0.331 0.49-0.33 0.782c0.002 0.293 0.124 0.573 0.34 0.778s0.507 0.32 0.81 0.318h4.284c0.227-0.001 0.445-0.088 0.605-0.243s0.251-0.365 0.252-0.584v0z"></path>
<path d="M0.007 14.069c0 0.073 0.030 0.143 0.084 0.195s0.126 0.081 0.202 0.081h3.998c0.076 0 0.148-0.029 0.202-0.081s0.084-0.122 0.084-0.195v-0.276h-4.569v0.276z"></path>
<path d="M2.577 14.897h-0.571v0.552h-1.142v0.552h2.856v-0.552h-1.142v-0.552z"></path>
<path d="M5.719 10.207c0 0.073 0.030 0.143 0.084 0.195s0.126 0.081 0.202 0.081h3.998c0.076 0 0.148-0.029 0.202-0.081s0.084-0.122 0.084-0.195v-1.379h-4.569v1.379zM9.146 9.379h0.571v0.552h-0.571v-0.552zM7.718 9.379h0.571v0.552h-0.571v-0.552zM6.29 9.379h0.571v0.552h-0.571v-0.552z"></path>
<path d="M15.714 1.103h-1.142c-0.158 0-0.286 0.124-0.286 0.276v2.207c0 0.152 0.128 0.276 0.286 0.276h1.142c0.158 0 0.286-0.124 0.286-0.276v-2.207c0-0.152-0.128-0.276-0.286-0.276z"></path>
<path d="M12.287 3.862h1.479c-0.033-0.088-0.051-0.182-0.051-0.276v-2.207c0.001-0.219 0.091-0.429 0.252-0.584s0.378-0.242 0.605-0.243h0.286v-0.276c0-0.073-0.030-0.143-0.084-0.195s-0.126-0.081-0.202-0.081h-2.285c-0.076 0-0.148 0.029-0.202 0.081s-0.084 0.122-0.084 0.195v3.31c0 0.073 0.030 0.143 0.084 0.195s0.126 0.081 0.202 0.081z"></path>
<path d="M11.716 12.414v1.931h3.998v-1.931c0-0.073-0.030-0.143-0.084-0.195s-0.126-0.081-0.202-0.081h-3.427c-0.076 0-0.148 0.029-0.202 0.081s-0.084 0.122-0.084 0.195z"></path>
<path d="M11.431 15.172c0 0.073 0.030 0.143 0.084 0.195s0.126 0.081 0.202 0.081h3.998c0.076 0 0.148-0.029 0.202-0.081s0.084-0.122 0.084-0.195v-0.276h-4.569v0.276z"></path>
<path d="M14.001 6.897v-1.931h-0.571v1.655h-1.999v0.552h2.285c0.076 0 0.148-0.029 0.202-0.081s0.084-0.122 0.084-0.195z"></path>
<path d="M13.43 11.034h0.571v-2.483c0-0.073-0.030-0.143-0.084-0.195s-0.126-0.081-0.202-0.081h-2.285v0.552h1.999v2.207z"></path>
<path d="M2.577 4.414h-0.571v2.483c0 0.073 0.030 0.143 0.084 0.195s0.126 0.081 0.202 0.081h2.285v-0.552h-1.999v-2.207z"></path>
<path d="M2.006 8.552v1.931h0.571v-1.655h1.999v-0.552h-2.285c-0.076 0-0.148 0.029-0.202 0.081s-0.084 0.122-0.084 0.195z"></path>
</symbol>
<symbol id="icon-fax" viewBox="0 0 16 16">
<path d="M13 16h-10.5c-0.552 0-1-0.448-1-1v-12c0-0.553 0.448-1 1-1v12c0 0.552 0.448 1 1 1h2c0.553 0 1-0.448 1-1v-12h6.5c0.553 0 1 0.448 1 1v12c0 0.552-0.447 1-1 1zM10.5 14.5h1v-1h-1v1zM10.5 13h1v-1h-1v1zM10.5 11.5h1v-1h-1v1zM10.5 10h1v-1h-1v1zM9 14.5h1v-1h-1v1zM9 13h1v-1h-1v1zM9 11.5h1v-1h-1v1zM9 10h1v-1h-1v1zM13 3.5c0-0.276-0.223-0.5-0.5-0.5h-4.5c-0.276 0-0.5 0.224-0.5 0.5v2c0 0.276 0.224 0.5 0.5 0.5h4.5c0.277 0 0.5-0.224 0.5-0.5v-2zM13 9h-1v1h1v-1zM13 10.5h-1v1h1v-1zM13 12h-1v1h1v-1zM13 13.5h-1v1h1v-1zM5.5 14.5h-2c-0.276 0-0.5-0.223-0.5-0.5v-12.5c0-0.276 0.224-0.5 0.5-0.5h0.969v-1h0.531v1h0.5c0.276 0 0.5 0.224 0.5 0.5v12.5c0 0.277-0.224 0.5-0.5 0.5z"></path>
</symbol>
<symbol id="icon-phone" viewBox="0 0 16 16">
<path d="M8.983 8.983c-1.266 1.266-2.734 2.477-3.314 1.897-0.83-0.83-1.342-1.553-3.172-0.082s-0.424 2.451 0.38 3.254c0.928 0.928 4.387 0.050 7.806-3.369s4.294-6.878 3.366-7.806c-0.804-0.805-1.78-2.21-3.25-0.38s-0.749 2.342 0.082 3.172c0.578 0.58-0.633 2.047-1.898 3.314z"></path>
</symbol>
<symbol id="icon-menu" viewBox="0 0 16 16">
<path d="M13.12 7.2h-10.24c-0.442 0-0.48 0.358-0.48 0.8s0.038 0.8 0.48 0.8h10.24c0.442 0 0.48-0.358 0.48-0.8s-0.038-0.8-0.48-0.8zM13.12 10.4h-10.24c-0.442 0-0.48 0.358-0.48 0.8s0.038 0.8 0.48 0.8h10.24c0.442 0 0.48-0.358 0.48-0.8s-0.038-0.8-0.48-0.8zM2.88 5.6h10.24c0.442 0 0.48-0.358 0.48-0.8s-0.038-0.8-0.48-0.8h-10.24c-0.442 0-0.48 0.358-0.48 0.8s0.038 0.8 0.48 0.8z"></path>
</symbol>
<symbol id="icon-location" viewBox="0 0 16 16">
<path d="M15.494 14.482l-1.094-3.282h-1.2l0.666 3.2h-11.733l0.666-3.2h-1.2l-1.094 3.282c-0.278 0.835 0.214 1.518 1.094 1.518h12.8c0.88 0 1.372-0.683 1.094-1.518zM12 4c0-2.209-1.79-4-4-4s-4 1.791-4 4c0 3.82 4 8 4 8s4-4.18 4-8zM5.84 4.048c0-1.193 0.966-2.159 2.16-2.159s2.16 0.966 2.16 2.159c0 1.194-0.967 2.16-2.16 2.16s-2.16-0.967-2.16-2.16z"></path>
</symbol>
<symbol id="icon-arrow-left" viewBox="0 0 16 16">
<path d="M8.471 12.195l-3.529-3.529h7.724c0.368 0 0.667-0.299 0.667-0.667s-0.299-0.667-0.667-0.667h-7.724l3.529-3.529c0.261-0.261 0.261-0.683 0-0.943s-0.683-0.261-0.943 0l-4.667 4.667c-0.064 0.064-0.112 0.137-0.145 0.216-0.034 0.081-0.051 0.169-0.051 0.255 0 0.171 0.065 0.341 0.195 0.471l4.667 4.667c0.261 0.261 0.683 0.261 0.943 0s0.261-0.683 0-0.943z"></path>
</symbol>
<symbol id="icon-arrow-right" viewBox="0 0 16 16">
<path d="M7.529 3.805l3.529 3.529h-7.724c-0.368 0-0.667 0.299-0.667 0.667s0.299 0.667 0.667 0.667h7.724l-3.529 3.529c-0.261 0.261-0.261 0.683 0 0.943s0.683 0.261 0.943 0l4.667-4.667c0.061-0.061 0.111-0.135 0.145-0.216 0.067-0.163 0.067-0.347 0-0.511-0.033-0.079-0.081-0.152-0.145-0.216l-4.667-4.667c-0.261-0.261-0.683-0.261-0.943 0s-0.261 0.683 0 0.943z"></path>
</symbol>
<symbol id="icon-mail" viewBox="0 0 16 16">
<path d="M2 5.281l5.618 3.933c0.227 0.157 0.53 0.164 0.765 0l5.617-3.933v6.719c0 0.181-0.073 0.347-0.197 0.47s-0.289 0.197-0.47 0.197h-10.667c-0.181 0-0.347-0.073-0.47-0.197s-0.197-0.289-0.197-0.47zM0.667 3.989c0 0.007 0 0.013 0 0.020v7.991c0 0.552 0.227 1.053 0.587 1.413s0.861 0.587 1.413 0.587h10.667c0.552 0 1.053-0.227 1.413-0.587s0.587-0.861 0.587-1.413v-7.992c0-0.007 0-0.013 0-0.020-0.003-0.547-0.229-1.043-0.587-1.401-0.361-0.36-0.861-0.587-1.413-0.587h-10.667c-0.552 0-1.053 0.227-1.413 0.587-0.358 0.358-0.583 0.854-0.587 1.402zM13.929 3.703l-5.929 4.15-5.929-4.15c0.032-0.064 0.075-0.122 0.125-0.173 0.123-0.123 0.289-0.197 0.471-0.197h10.667c0.181 0 0.347 0.073 0.47 0.197 0.051 0.051 0.093 0.109 0.125 0.173z"></path>
</symbol>
<symbol id="icon-bar" viewBox="0 0 16 16">
<path d="M2 8.667h12c0.368 0 0.667-0.299 0.667-0.667s-0.299-0.667-0.667-0.667h-12c-0.368 0-0.667 0.299-0.667 0.667s0.299 0.667 0.667 0.667zM2 4.667h12c0.368 0 0.667-0.299 0.667-0.667s-0.299-0.667-0.667-0.667h-12c-0.368 0-0.667 0.299-0.667 0.667s0.299 0.667 0.667 0.667zM2 12.667h12c0.368 0 0.667-0.299 0.667-0.667s-0.299-0.667-0.667-0.667h-12c-0.368 0-0.667 0.299-0.667 0.667s0.299 0.667 0.667 0.667z"></path>
</symbol>
<symbol id="icon-maps" viewBox="0 0 16 16">
<path d="M8 0c-2.761 0-5 2.239-5 5 0 5 5 11 5 11s5-6 5-11c0-2.761-2.239-5-5-5zM8 8.063c-1.691 0-3.063-1.371-3.063-3.063s1.371-3.063 3.063-3.063 3.063 1.371 3.063 3.063-1.371 3.063-3.063 3.063zM6.063 5c0-1.070 0.867-1.938 1.938-1.938s1.938 0.867 1.938 1.938c0 1.070-0.867 1.938-1.938 1.938s-1.938-0.867-1.938-1.938z"></path>
</symbol>
<symbol id="icon-map" viewBox="0 0 16 16">
<path d="M0 3l5-2v12l-5 2z"></path>
<path d="M6 0.5l5 3v11.5l-5-2.5z"></path>
<path d="M12 3.5l4-3v12l-4 3z"></path>
</symbol>
</defs>
</svg>
