<!-- Generated by IcoMoon.io -->
<svg version="1.1" xmlns="http://www.w3.org/2000/svg" width="16" height="16" viewBox="0 0 16 16">
<title>arrow-left</title>
<path d="M8.471 12.195l-3.529-3.529h7.724c0.368 0 0.667-0.299 0.667-0.667s-0.299-0.667-0.667-0.667h-7.724l3.529-3.529c0.261-0.261 0.261-0.683 0-0.943s-0.683-0.261-0.943 0l-4.667 4.667c-0.064 0.064-0.112 0.137-0.145 0.216-0.034 0.081-0.051 0.169-0.051 0.255 0 0.171 0.065 0.341 0.195 0.471l4.667 4.667c0.261 0.261 0.683 0.261 0.943 0s0.261-0.683 0-0.943z"></path>
</svg>
