<!-- Generated by IcoMoon.io -->
<svg version="1.1" xmlns="http://www.w3.org/2000/svg" width="16" height="16" viewBox="0 0 16 16">
<title>fax</title>
<path d="M13 16h-10.5c-0.552 0-1-0.448-1-1v-12c0-0.553 0.448-1 1-1v12c0 0.552 0.448 1 1 1h2c0.553 0 1-0.448 1-1v-12h6.5c0.553 0 1 0.448 1 1v12c0 0.552-0.447 1-1 1zM10.5 14.5h1v-1h-1v1zM10.5 13h1v-1h-1v1zM10.5 11.5h1v-1h-1v1zM10.5 10h1v-1h-1v1zM9 14.5h1v-1h-1v1zM9 13h1v-1h-1v1zM9 11.5h1v-1h-1v1zM9 10h1v-1h-1v1zM13 3.5c0-0.276-0.223-0.5-0.5-0.5h-4.5c-0.276 0-0.5 0.224-0.5 0.5v2c0 0.276 0.224 0.5 0.5 0.5h4.5c0.277 0 0.5-0.224 0.5-0.5v-2zM13 9h-1v1h1v-1zM13 10.5h-1v1h1v-1zM13 12h-1v1h1v-1zM13 13.5h-1v1h1v-1zM5.5 14.5h-2c-0.276 0-0.5-0.223-0.5-0.5v-12.5c0-0.276 0.224-0.5 0.5-0.5h0.969v-1h0.531v1h0.5c0.276 0 0.5 0.224 0.5 0.5v12.5c0 0.277-0.224 0.5-0.5 0.5z"></path>
</svg>
