<!-- Generated by IcoMoon.io -->
<svg version="1.1" xmlns="http://www.w3.org/2000/svg" width="16" height="16" viewBox="0 0 16 16">
<title>firewall</title>
<path fill="#616161" d="M12.958 2.688h0.237c0.164 0 0.296-0.105 0.296-0.234s-0.133-0.234-0.296-0.234h-0.237c-0.164 0-0.296 0.105-0.296 0.234s0.133 0.234 0.296 0.234z"></path>
<path fill="#616161" d="M9.834 2.688h0.426c0.164 0 0.296-0.105 0.296-0.234s-0.133-0.234-0.296-0.234h-0.426c-0.164 0-0.296 0.105-0.296 0.234s0.133 0.234 0.296 0.234z"></path>
<path fill="#616161" d="M11.396 2.688h0.426c0.164 0 0.296-0.105 0.296-0.234s-0.133-0.234-0.296-0.234h-0.426c-0.164 0-0.296 0.105-0.296 0.234s0.133 0.234 0.296 0.234z"></path>
<path fill="#616161" d="M8.461 2.688h0.237c0.164 0 0.296-0.105 0.296-0.234s-0.133-0.234-0.296-0.234h-0.237c-0.164 0-0.296 0.105-0.296 0.234s0.133 0.234 0.296 0.234z"></path>
<path fill="#616161" d="M8.461 1.578h0.237c0.164 0 0.296-0.105 0.296-0.234s-0.133-0.234-0.296-0.234h-0.237c-0.164 0-0.296 0.105-0.296 0.234s0.133 0.234 0.296 0.234z"></path>
<path fill="#616161" d="M11.396 1.578h0.426c0.164 0 0.296-0.105 0.296-0.234s-0.133-0.234-0.296-0.234h-0.426c-0.164 0-0.296 0.105-0.296 0.234s0.133 0.234 0.296 0.234z"></path>
<path fill="#616161" d="M9.834 1.578h0.426c0.164 0 0.296-0.105 0.296-0.234s-0.133-0.234-0.296-0.234h-0.426c-0.164 0-0.296 0.105-0.296 0.234s0.133 0.234 0.296 0.234z"></path>
<path fill="#616161" d="M12.958 1.578h0.237c0.164 0 0.296-0.105 0.296-0.234s-0.133-0.234-0.296-0.234h-0.237c-0.164 0-0.296 0.105-0.296 0.234s0.133 0.234 0.296 0.234z"></path>
<path fill="#616161" d="M4.554 2.453v-1.109c0-0.129-0.133-0.234-0.296-0.234h-1.401c-0.163 0-0.296 0.105-0.296 0.234v1.109c0 0.129 0.133 0.234 0.296 0.234h1.401c0.163 0 0.296-0.105 0.296-0.234zM3.962 2.219h-0.809v-0.641h0.809v0.641z"></path>
<path fill="#616161" d="M5.659 2.688h1.401c0.163 0 0.296-0.105 0.296-0.234v-1.109c0-0.129-0.133-0.234-0.296-0.234h-1.401c-0.163 0-0.296 0.105-0.296 0.234v1.109c0 0.129 0.133 0.234 0.296 0.234zM5.955 1.578h0.809v0.641h-0.809v-0.641z"></path>
<path fill="#616161" d="M12.958 7.125h0.237c0.164 0 0.296-0.105 0.296-0.234s-0.133-0.234-0.296-0.234h-0.237c-0.164 0-0.296 0.105-0.296 0.234s0.133 0.234 0.296 0.234z"></path>
<path fill="#616161" d="M10.26 6.656h-0.426c-0.164 0-0.296 0.105-0.296 0.234s0.133 0.234 0.296 0.234h0.426c0.164 0 0.296-0.105 0.296-0.234s-0.133-0.234-0.296-0.234z"></path>
<path fill="#616161" d="M12.118 6.891c0-0.129-0.133-0.234-0.296-0.234h-0.426c-0.164 0-0.296 0.105-0.296 0.234s0.133 0.234 0.296 0.234h0.426c0.164 0 0.296-0.105 0.296-0.234z"></path>
<path fill="#616161" d="M8.698 6.656h-0.237c-0.164 0-0.296 0.105-0.296 0.234s0.133 0.234 0.296 0.234h0.237c0.164 0 0.296-0.105 0.296-0.234s-0.133-0.234-0.296-0.234z"></path>
<path fill="#616161" d="M8.698 5.547h-0.237c-0.164 0-0.296 0.105-0.296 0.234s0.133 0.234 0.296 0.234h0.237c0.164 0 0.296-0.105 0.296-0.234s-0.133-0.234-0.296-0.234z"></path>
<path fill="#616161" d="M10.26 5.547h-0.426c-0.164 0-0.296 0.105-0.296 0.234s0.133 0.234 0.296 0.234h0.426c0.164 0 0.296-0.105 0.296-0.234s-0.133-0.234-0.296-0.234z"></path>
<path fill="#616161" d="M11.396 6.016h0.426c0.164 0 0.296-0.105 0.296-0.234s-0.133-0.234-0.296-0.234h-0.426c-0.164 0-0.296 0.105-0.296 0.234s0.133 0.234 0.296 0.234z"></path>
<path fill="#616161" d="M12.958 6.016h0.237c0.164 0 0.296-0.105 0.296-0.234s-0.133-0.234-0.296-0.234h-0.237c-0.164 0-0.296 0.105-0.296 0.234s0.133 0.234 0.296 0.234z"></path>
<path fill="#616161" d="M4.258 5.547h-1.401c-0.163 0-0.296 0.105-0.296 0.234v1.109c0 0.129 0.133 0.234 0.296 0.234h1.401c0.163 0 0.296-0.105 0.296-0.234v-1.109c0-0.129-0.133-0.234-0.296-0.234zM3.962 6.656h-0.809v-0.641h0.809v0.641z"></path>
<path fill="#616161" d="M7.060 5.547h-1.401c-0.163 0-0.296 0.105-0.296 0.234v1.109c0 0.129 0.133 0.234 0.296 0.234h1.401c0.163 0 0.296-0.105 0.296-0.234v-1.109c0-0.129-0.133-0.234-0.296-0.234zM6.764 6.656h-0.809v-0.641h0.809v0.641z"></path>
<path fill="#616161" d="M15.25 8.875h-1.19v-0.641h0.098c0.405 0 0.734-0.261 0.734-0.581v-2.635c0-0.32-0.329-0.581-0.734-0.581h-0.098v-0.641h0.098c0.405 0 0.734-0.261 0.734-0.581v-2.635c0-0.32-0.329-0.581-0.734-0.581h-12.265c-0.405 0-0.734 0.261-0.734 0.581v2.635c0 0.32 0.329 0.581 0.734 0.581h0.098v0.641h-0.098c-0.405 0-0.734 0.261-0.734 0.581v2.635c0 0.32 0.329 0.581 0.734 0.581h0.098v0.641h-1.19c-0.163 0-0.296 0.105-0.296 0.234v6.656c0 0.129 0.133 0.234 0.296 0.234h14.449c0.164 0 0.296-0.105 0.296-0.234v-6.656c0-0.129-0.133-0.234-0.296-0.234zM10.73 13.867v-1.195h4.224v1.195h-4.224zM5.914 13.867v-1.195h4.224v1.195h-4.224zM1.097 13.867v-1.195h4.224v1.195h-4.224zM5.618 11.008c0.163 0 0.296-0.105 0.296-0.234v-1.43h4.224v1.195h-0.296c-0.164 0-0.296 0.105-0.296 0.234s0.132 0.234 0.296 0.234h2.704v1.195h-4.224v-1.195h0.139c0.164 0 0.296-0.105 0.296-0.234s-0.132-0.234-0.296-0.234h-0.435c-0.163 0-0.296 0.105-0.296 0.234v1.43h-4.224v-1.195h2.112zM14.954 12.203h-1.816v-1.195h1.816v1.195zM2.914 12.203h-1.816v-1.195h1.816v1.195zM14.954 10.539h-4.224v-1.195h4.224v1.195zM2.583 3.797h0.283c0.163 0 0.296-0.105 0.296-0.234s-0.133-0.234-0.296-0.234h-0.973c-0.078 0-0.142-0.050-0.142-0.112v-2.635c0-0.062 0.064-0.112 0.142-0.112h12.265c0.078 0 0.142 0.050 0.142 0.112v2.635c0 0.062-0.064 0.112-0.142 0.112h-9.911c-0.163 0-0.296 0.105-0.296 0.234s0.133 0.234 0.296 0.234h9.221v0.641h-10.885v-0.641zM2.583 8.234h8.976c0.164 0 0.296-0.105 0.296-0.234s-0.133-0.234-0.296-0.234h-9.666c-0.078 0-0.142-0.050-0.142-0.112v-2.635c0-0.062 0.064-0.112 0.142-0.112h12.265c0.078 0 0.142 0.050 0.142 0.112v2.635c0 0.062-0.064 0.112-0.142 0.112h-1.218c-0.164 0-0.296 0.105-0.296 0.234s0.133 0.234 0.296 0.234h0.527v0.641h-10.885v-0.641zM1.097 9.344h4.224v1.195h-4.224v-1.195zM1.097 14.336h1.816v1.195h-1.816v-1.195zM3.506 14.336h4.224v1.195h-4.224v-1.195zM8.322 14.336h4.224v1.195h-4.224v-1.195zM14.954 15.531h-1.816v-1.195h1.816v1.195z"></path>
</svg>
