<!-- Generated by IcoMoon.io -->
<svg version="1.1" xmlns="http://www.w3.org/2000/svg" width="16" height="16" viewBox="0 0 16 16">
<title>mail</title>
<path d="M2 5.281l5.618 3.933c0.227 0.157 0.53 0.164 0.765 0l5.617-3.933v6.719c0 0.181-0.073 0.347-0.197 0.47s-0.289 0.197-0.47 0.197h-10.667c-0.181 0-0.347-0.073-0.47-0.197s-0.197-0.289-0.197-0.47zM0.667 3.989c0 0.007 0 0.013 0 0.020v7.991c0 0.552 0.227 1.053 0.587 1.413s0.861 0.587 1.413 0.587h10.667c0.552 0 1.053-0.227 1.413-0.587s0.587-0.861 0.587-1.413v-7.992c0-0.007 0-0.013 0-0.020-0.003-0.547-0.229-1.043-0.587-1.401-0.361-0.36-0.861-0.587-1.413-0.587h-10.667c-0.552 0-1.053 0.227-1.413 0.587-0.358 0.358-0.583 0.854-0.587 1.402zM13.929 3.703l-5.929 4.15-5.929-4.15c0.032-0.064 0.075-0.122 0.125-0.173 0.123-0.123 0.289-0.197 0.471-0.197h10.667c0.181 0 0.347 0.073 0.47 0.197 0.051 0.051 0.093 0.109 0.125 0.173z"></path>
</svg>
