<!-- Generated by IcoMoon.io -->
<svg version="1.1" xmlns="http://www.w3.org/2000/svg" width="16" height="16" viewBox="0 0 16 16">
<title>menu</title>
<path d="M13.12 7.2h-10.24c-0.442 0-0.48 0.358-0.48 0.8s0.038 0.8 0.48 0.8h10.24c0.442 0 0.48-0.358 0.48-0.8s-0.038-0.8-0.48-0.8zM13.12 10.4h-10.24c-0.442 0-0.48 0.358-0.48 0.8s0.038 0.8 0.48 0.8h10.24c0.442 0 0.48-0.358 0.48-0.8s-0.038-0.8-0.48-0.8zM2.88 5.6h10.24c0.442 0 0.48-0.358 0.48-0.8s-0.038-0.8-0.48-0.8h-10.24c-0.442 0-0.48 0.358-0.48 0.8s0.038 0.8 0.48 0.8z"></path>
</svg>
