<!-- Generated by IcoMoon.io -->
<svg version="1.1" xmlns="http://www.w3.org/2000/svg" width="16" height="16" viewBox="0 0 16 16">
<title>network</title>
<path fill="#616161" d="M16 10.71c-0-0.171-0.068-0.335-0.189-0.456s-0.285-0.189-0.456-0.189h-1.677v-0.516c0-0.068-0.027-0.134-0.076-0.182s-0.114-0.076-0.182-0.076h-0.258v-1.29c0-0.068-0.027-0.134-0.076-0.182s-0.114-0.076-0.182-0.076h-4.645v-2.581h2.323c0.392-0 0.77-0.149 1.057-0.417s0.461-0.635 0.487-1.026c0.027-0.392-0.097-0.779-0.344-1.083s-0.602-0.503-0.991-0.556c-0.116-0.586-0.432-1.114-0.893-1.493s-1.041-0.586-1.638-0.586c-0.412 0.001-0.818 0.101-1.184 0.29s-0.682 0.462-0.921 0.798c-0.284-0.067-0.578-0.074-0.865-0.019s-0.558 0.169-0.797 0.337c-0.239 0.167-0.44 0.383-0.589 0.633s-0.244 0.529-0.278 0.819c-0.034 0.29-0.006 0.583 0.082 0.861s0.233 0.534 0.427 0.752c0.194 0.218 0.432 0.392 0.698 0.511s0.554 0.181 0.846 0.18h2.065v2.581h-4.645c-0.068 0-0.134 0.027-0.182 0.076s-0.076 0.114-0.076 0.182v1.29h-0.258c-0.068 0-0.134 0.027-0.182 0.076s-0.076 0.114-0.076 0.182v0.516h-1.677c-0.171 0-0.335 0.068-0.456 0.189s-0.189 0.285-0.189 0.456v0.774c0 0.14 0.046 0.276 0.13 0.387-0.084 0.111-0.13 0.247-0.13 0.387v0.774c0 0.14 0.046 0.276 0.13 0.387-0.084 0.111-0.13 0.247-0.13 0.387v0.774c0 0.171 0.068 0.335 0.189 0.456s0.285 0.189 0.456 0.189h1.677v0.516c0 0.068 0.027 0.134 0.076 0.182s0.114 0.076 0.182 0.076h1.032c0.068 0 0.134-0.027 0.182-0.076s0.076-0.114 0.076-0.182v-0.516h1.677c0.171-0 0.335-0.068 0.456-0.189s0.189-0.285 0.189-0.456v-0.774c-0-0.14-0.046-0.276-0.13-0.387 0.084-0.111 0.13-0.247 0.13-0.387v-0.774c-0-0.14-0.046-0.276-0.13-0.387 0.084-0.111 0.13-0.247 0.13-0.387v-0.774c-0-0.171-0.068-0.335-0.189-0.456s-0.285-0.189-0.456-0.189h-1.677v-0.516c0-0.068-0.027-0.134-0.076-0.182s-0.114-0.076-0.182-0.076h-0.258v-1.032h9.29v1.032h-0.258c-0.068 0-0.134 0.027-0.182 0.076s-0.076 0.114-0.076 0.182v0.516h-1.677c-0.171 0-0.335 0.068-0.456 0.189s-0.189 0.285-0.189 0.456v0.774c0 0.14 0.046 0.276 0.13 0.387-0.084 0.111-0.13 0.247-0.13 0.387v0.774c0 0.14 0.046 0.276 0.13 0.387-0.084 0.111-0.13 0.247-0.13 0.387v0.774c0 0.171 0.068 0.335 0.189 0.456s0.285 0.189 0.456 0.189h1.677v0.516c0 0.068 0.027 0.134 0.076 0.182s0.114 0.076 0.182 0.076h1.032c0.068 0 0.134-0.027 0.182-0.076s0.076-0.114 0.076-0.182v-0.516h1.677c0.171-0 0.335-0.068 0.456-0.189s0.189-0.285 0.189-0.456v-0.774c-0-0.14-0.046-0.276-0.13-0.387 0.084-0.111 0.13-0.247 0.13-0.387v-0.774c-0-0.14-0.046-0.276-0.13-0.387 0.084-0.111 0.13-0.247 0.13-0.387v-0.774zM2.839 9.806h0.516v0.258h-0.516v-0.258zM3.355 15.484h-0.516v-0.258h0.516v0.258zM5.677 14.581c0 0.034-0.014 0.067-0.038 0.091s-0.057 0.038-0.091 0.038h-4.903c-0.034 0-0.067-0.014-0.091-0.038s-0.038-0.057-0.038-0.091v-0.774c0-0.034 0.014-0.067 0.038-0.091s0.057-0.038 0.091-0.038h4.903c0.034 0 0.067 0.014 0.091 0.038s0.038 0.057 0.038 0.091v0.774zM5.677 13.032c0 0.034-0.014 0.067-0.038 0.091s-0.057 0.038-0.091 0.038h-4.903c-0.034 0-0.067-0.014-0.091-0.038s-0.038-0.057-0.038-0.091v-0.774c0-0.034 0.014-0.067 0.038-0.091s0.057-0.038 0.091-0.038h4.903c0.034 0 0.067 0.014 0.091 0.038s0.038 0.057 0.038 0.091v0.774zM5.548 10.581c0.034 0 0.067 0.014 0.091 0.038s0.038 0.057 0.038 0.091v0.774c0 0.034-0.014 0.067-0.038 0.091s-0.057 0.038-0.091 0.038h-4.903c-0.034 0-0.067-0.014-0.091-0.038s-0.038-0.057-0.038-0.091v-0.774c0-0.034 0.014-0.067 0.038-0.091s0.057-0.038 0.091-0.038h4.903zM5.677 4.645c-0.225-0-0.447-0.049-0.651-0.144s-0.385-0.233-0.53-0.404c-0.145-0.172-0.251-0.373-0.311-0.59s-0.071-0.444-0.034-0.666 0.122-0.433 0.249-0.618c0.127-0.186 0.293-0.341 0.486-0.457s0.409-0.187 0.633-0.21c0.224-0.023 0.45 0.003 0.662 0.076 0.056 0.019 0.117 0.018 0.172-0.002s0.102-0.059 0.133-0.11c0.222-0.371 0.554-0.663 0.951-0.835s0.837-0.215 1.259-0.124c0.422 0.092 0.805 0.314 1.095 0.635s0.471 0.725 0.519 1.154c0.007 0.063 0.037 0.122 0.084 0.164s0.109 0.066 0.172 0.066h0.014c0.274 0 0.536 0.109 0.73 0.302s0.302 0.456 0.302 0.73c0 0.274-0.109 0.536-0.302 0.73s-0.456 0.302-0.73 0.302h-4.903zM12.645 9.806h0.516v0.258h-0.516v-0.258zM13.161 15.484h-0.516v-0.258h0.516v0.258zM15.484 14.581c0 0.034-0.014 0.067-0.038 0.091s-0.057 0.038-0.091 0.038h-4.903c-0.034 0-0.067-0.014-0.091-0.038s-0.038-0.057-0.038-0.091v-0.774c0-0.034 0.014-0.067 0.038-0.091s0.057-0.038 0.091-0.038h4.903c0.034 0 0.067 0.014 0.091 0.038s0.038 0.057 0.038 0.091v0.774zM15.484 13.032c0 0.034-0.014 0.067-0.038 0.091s-0.057 0.038-0.091 0.038h-4.903c-0.034 0-0.067-0.014-0.091-0.038s-0.038-0.057-0.038-0.091v-0.774c0-0.034 0.014-0.067 0.038-0.091s0.057-0.038 0.091-0.038h4.903c0.034 0 0.067 0.014 0.091 0.038s0.038 0.057 0.038 0.091v0.774zM15.484 11.484c0 0.034-0.014 0.067-0.038 0.091s-0.057 0.038-0.091 0.038h-4.903c-0.034 0-0.067-0.014-0.091-0.038s-0.038-0.057-0.038-0.091v-0.774c0-0.034 0.014-0.067 0.038-0.091s0.057-0.038 0.091-0.038h4.903c0.034 0 0.067 0.014 0.091 0.038s0.038 0.057 0.038 0.091v0.774z"></path>
<path fill="#616161" d="M10.839 11.355c0.143 0 0.258-0.116 0.258-0.258s-0.116-0.258-0.258-0.258c-0.143 0-0.258 0.116-0.258 0.258s0.116 0.258 0.258 0.258z"></path>
<path fill="#616161" d="M11.613 11.355c0.143 0 0.258-0.116 0.258-0.258s-0.116-0.258-0.258-0.258c-0.143 0-0.258 0.116-0.258 0.258s0.116 0.258 0.258 0.258z"></path>
<path fill="#616161" d="M13.677 11.355h1.29c0.068 0 0.134-0.027 0.182-0.076s0.076-0.114 0.076-0.182c0-0.068-0.027-0.134-0.076-0.182s-0.114-0.076-0.182-0.076h-1.29c-0.068 0-0.134 0.027-0.182 0.076s-0.076 0.114-0.076 0.182 0.027 0.134 0.076 0.182c0.048 0.048 0.114 0.076 0.182 0.076z"></path>
<path fill="#616161" d="M10.839 12.903c0.143 0 0.258-0.116 0.258-0.258s-0.116-0.258-0.258-0.258c-0.143 0-0.258 0.116-0.258 0.258s0.116 0.258 0.258 0.258z"></path>
<path fill="#616161" d="M11.613 12.903c0.143 0 0.258-0.116 0.258-0.258s-0.116-0.258-0.258-0.258c-0.143 0-0.258 0.116-0.258 0.258s0.116 0.258 0.258 0.258z"></path>
<path fill="#616161" d="M13.677 12.903h1.29c0.068 0 0.134-0.027 0.182-0.076s0.076-0.114 0.076-0.182c0-0.068-0.027-0.134-0.076-0.182s-0.114-0.076-0.182-0.076h-1.29c-0.068 0-0.134 0.027-0.182 0.076s-0.076 0.114-0.076 0.182 0.027 0.134 0.076 0.182c0.048 0.048 0.114 0.076 0.182 0.076z"></path>
<path fill="#616161" d="M10.839 14.452c0.143 0 0.258-0.116 0.258-0.258s-0.116-0.258-0.258-0.258c-0.143 0-0.258 0.116-0.258 0.258s0.116 0.258 0.258 0.258z"></path>
<path fill="#616161" d="M11.613 14.452c0.143 0 0.258-0.116 0.258-0.258s-0.116-0.258-0.258-0.258c-0.143 0-0.258 0.116-0.258 0.258s0.116 0.258 0.258 0.258z"></path>
<path fill="#616161" d="M14.968 13.935h-1.29c-0.068 0-0.134 0.027-0.182 0.076s-0.076 0.114-0.076 0.182 0.027 0.134 0.076 0.182c0.048 0.048 0.114 0.076 0.182 0.076h1.29c0.068 0 0.134-0.027 0.182-0.076s0.076-0.114 0.076-0.182-0.027-0.134-0.076-0.182c-0.048-0.048-0.114-0.076-0.182-0.076z"></path>
<path fill="#616161" d="M1.032 11.355c0.143 0 0.258-0.116 0.258-0.258s-0.116-0.258-0.258-0.258-0.258 0.116-0.258 0.258c0 0.143 0.116 0.258 0.258 0.258z"></path>
<path fill="#616161" d="M1.806 11.355c0.143 0 0.258-0.116 0.258-0.258s-0.116-0.258-0.258-0.258-0.258 0.116-0.258 0.258c0 0.143 0.116 0.258 0.258 0.258z"></path>
<path fill="#616161" d="M3.871 11.355h1.29c0.068 0 0.134-0.027 0.182-0.076s0.076-0.114 0.076-0.182c0-0.068-0.027-0.134-0.076-0.182s-0.114-0.076-0.182-0.076h-1.29c-0.068 0-0.134 0.027-0.182 0.076s-0.076 0.114-0.076 0.182 0.027 0.134 0.076 0.182c0.048 0.048 0.114 0.076 0.182 0.076z"></path>
<path fill="#616161" d="M1.032 12.903c0.143 0 0.258-0.116 0.258-0.258s-0.116-0.258-0.258-0.258-0.258 0.116-0.258 0.258c0 0.143 0.116 0.258 0.258 0.258z"></path>
<path fill="#616161" d="M1.806 12.903c0.143 0 0.258-0.116 0.258-0.258s-0.116-0.258-0.258-0.258-0.258 0.116-0.258 0.258c0 0.143 0.116 0.258 0.258 0.258z"></path>
<path fill="#616161" d="M3.871 12.903h1.29c0.068 0 0.134-0.027 0.182-0.076s0.076-0.114 0.076-0.182c0-0.068-0.027-0.134-0.076-0.182s-0.114-0.076-0.182-0.076h-1.29c-0.068 0-0.134 0.027-0.182 0.076s-0.076 0.114-0.076 0.182 0.027 0.134 0.076 0.182c0.048 0.048 0.114 0.076 0.182 0.076z"></path>
<path fill="#616161" d="M1.032 14.452c0.143 0 0.258-0.116 0.258-0.258s-0.116-0.258-0.258-0.258c-0.143 0-0.258 0.116-0.258 0.258s0.116 0.258 0.258 0.258z"></path>
<path fill="#616161" d="M1.806 14.452c0.143 0 0.258-0.116 0.258-0.258s-0.116-0.258-0.258-0.258c-0.143 0-0.258 0.116-0.258 0.258s0.116 0.258 0.258 0.258z"></path>
<path fill="#616161" d="M5.161 13.935h-1.29c-0.068 0-0.134 0.027-0.182 0.076s-0.076 0.114-0.076 0.182 0.027 0.134 0.076 0.182c0.048 0.048 0.114 0.076 0.182 0.076h1.29c0.068 0 0.134-0.027 0.182-0.076s0.076-0.114 0.076-0.182-0.027-0.134-0.076-0.182c-0.048-0.048-0.114-0.076-0.182-0.076z"></path>
</svg>
